<svg xmlns="http://www.w3.org/2000/svg" xmlns:xlink="http://www.w3.org/1999/xlink" viewBox="0 0 319 154" version="1.1">
  <title>
    Diamong Stats
  </title>
  <g stroke="none" stroke-width="1" fill="none" fill-rule="evenodd">
    <g transform="translate(-250.000000, -2436.000000)">
      <g transform="translate(250.000000, 2436.000000)">
        <g transform="translate(89.000000, 31.411215)">
          <path d="M41.8 0L41.8 43 0.1 43 41.8 0Z" fill="#F8E02D"/>
          <path d="M41.8 42.9L41.8 0 84.8 42.9 41.8 42.9Z" fill="#F06F2A"/>
          <path d="M41.8 42.9L41.8 85.9 0.1 85.9 41.8 42.9Z" fill="#2AA7F0" transform="translate(20.945322, 64.381553) scale(1, -1) translate(-20.945322, -64.381553) "/>
          <path d="M41.8 42.9L41.8 85.9 84.8 42.9 41.8 42.9Z" fill="#19D474"/>
        </g>
        <path d="M18.4 0.9L18.4 2.2C18.4 2.6 18.4 3 18.3 3.2 18.2 3.4 18.1 3.7 18 3.8L8 24.2C7.8 24.5 7.6 24.7 7.3 24.9 7.1 25.1 6.7 25.2 6.3 25.2L4.1 25.2 14.4 5.2C14.5 4.9 14.7 4.6 14.8 4.4 15 4.1 15.1 3.9 15.3 3.7L2.6 3.7C2.4 3.7 2.3 3.6 2.1 3.5 1.9 3.3 1.9 3.1 1.9 2.9L1.9 0.9 18.4 0.9ZM36.3 2.2C36.3 2.6 36.2 3 35.9 3.3 35.7 3.6 35.2 3.7 34.6 3.7L26.9 3.7 25.8 10.1C27.1 9.8 28.2 9.7 29.3 9.7 30.6 9.7 31.7 9.9 32.7 10.2 33.6 10.6 34.4 11.1 35.1 11.8 35.8 12.4 36.3 13.2 36.6 14.1 36.9 15 37.1 16 37.1 17 37.1 18.3 36.9 19.5 36.4 20.5 36 21.6 35.3 22.5 34.6 23.2 33.8 24 32.8 24.5 31.8 24.9 30.7 25.3 29.6 25.5 28.3 25.5 27.6 25.5 26.9 25.4 26.3 25.3 25.6 25.2 25 25 24.4 24.7 23.9 24.5 23.3 24.2 22.8 23.9 22.4 23.6 21.9 23.3 21.6 23L22.5 21.7C22.7 21.4 22.9 21.2 23.3 21.2 23.5 21.2 23.8 21.3 24 21.5 24.3 21.7 24.7 21.9 25.1 22.1 25.5 22.3 26 22.5 26.5 22.7 27.1 22.8 27.7 22.9 28.5 22.9 29.3 22.9 30.1 22.8 30.8 22.5 31.5 22.2 32 21.9 32.5 21.3 33 20.8 33.4 20.2 33.6 19.5 33.9 18.8 34 18 34 17.2 34 16.4 33.9 15.7 33.7 15.1 33.5 14.5 33.1 14 32.7 13.6 32.3 13.1 31.7 12.8 31 12.5 30.4 12.3 29.6 12.2 28.7 12.2 28.1 12.2 27.4 12.2 26.8 12.3 26.1 12.4 25.4 12.6 24.7 12.8L22.8 12.3 24.8 0.9 36.3 0.9 36.3 2.2ZM51.5 6.8C51.5 7.7 51.3 8.6 51 9.3 50.7 10.1 50.3 10.7 49.8 11.2 49.3 11.7 48.8 12.1 48.1 12.4 47.5 12.7 46.8 12.8 46.1 12.8 45.3 12.8 44.6 12.7 43.9 12.4 43.3 12.1 42.7 11.7 42.2 11.2 41.7 10.7 41.3 10.1 41.1 9.3 40.8 8.6 40.7 7.7 40.7 6.8 40.7 5.8 40.8 4.9 41.1 4.2 41.3 3.4 41.7 2.8 42.2 2.2 42.7 1.7 43.3 1.3 43.9 1.1 44.6 0.8 45.3 0.6 46.1 0.6 46.8 0.6 47.5 0.8 48.2 1.1 48.8 1.3 49.4 1.7 49.9 2.2 50.4 2.8 50.8 3.4 51 4.2 51.3 4.9 51.5 5.8 51.5 6.8L51.5 6.8ZM49.1 6.8C49.1 6 49 5.4 48.9 4.9 48.7 4.3 48.5 3.9 48.2 3.6 47.9 3.2 47.6 3 47.2 2.9 46.9 2.7 46.5 2.6 46.1 2.6 45.6 2.6 45.2 2.7 44.9 2.9 44.5 3 44.2 3.2 43.9 3.6 43.6 3.9 43.4 4.3 43.3 4.9 43.1 5.4 43 6 43 6.8 43 7.5 43.1 8.1 43.3 8.6 43.4 9.2 43.6 9.6 43.9 9.9 44.2 10.2 44.5 10.5 44.9 10.6 45.2 10.7 45.6 10.8 46.1 10.8 46.5 10.8 46.9 10.7 47.2 10.6 47.6 10.5 47.9 10.2 48.2 9.9 48.5 9.6 48.7 9.2 48.9 8.6 49 8.1 49.1 7.5 49.1 6.8L49.1 6.8ZM60 1.5C60.1 1.3 60.3 1.2 60.4 1 60.6 0.9 60.8 0.9 61.1 0.9L63.3 0.9 45.5 24.8C45.4 24.9 45.2 25 45.1 25.1 44.9 25.2 44.7 25.2 44.5 25.2L42.3 25.2 60 1.5ZM64.9 19.5C64.9 20.5 64.8 21.3 64.5 22.1 64.2 22.8 63.8 23.4 63.3 23.9 62.8 24.5 62.2 24.9 61.6 25.1 60.9 25.4 60.2 25.5 59.5 25.5 58.8 25.5 58.1 25.4 57.4 25.1 56.7 24.9 56.2 24.5 55.7 23.9 55.2 23.4 54.8 22.8 54.6 22.1 54.3 21.3 54.1 20.5 54.1 19.5 54.1 18.5 54.3 17.7 54.6 16.9 54.8 16.1 55.2 15.5 55.7 15 56.2 14.4 56.7 14 57.4 13.8 58.1 13.5 58.8 13.4 59.5 13.4 60.3 13.4 61 13.5 61.7 13.8 62.3 14 62.9 14.4 63.4 15 63.9 15.5 64.2 16.1 64.5 16.9 64.8 17.7 64.9 18.5 64.9 19.5L64.9 19.5ZM62.6 19.5C62.6 18.8 62.5 18.1 62.3 17.6 62.2 17.1 62 16.6 61.7 16.3 61.4 16 61.1 15.7 60.7 15.6 60.3 15.4 60 15.4 59.5 15.4 59.1 15.4 58.7 15.4 58.4 15.6 58 15.7 57.7 16 57.4 16.3 57.1 16.6 56.9 17.1 56.8 17.6 56.6 18.1 56.5 18.8 56.5 19.5 56.5 20.2 56.6 20.9 56.8 21.4 56.9 21.9 57.1 22.3 57.4 22.6 57.7 22.9 58 23.2 58.4 23.3 58.7 23.5 59.1 23.5 59.5 23.5 60 23.5 60.3 23.5 60.7 23.3 61.1 23.2 61.4 22.9 61.7 22.6 62 22.3 62.2 21.9 62.3 21.4 62.5 20.9 62.6 20.2 62.6 19.5L62.6 19.5Z" fill="#627087"/>
        <path d="M3.1 53.9L3.1 58.2 1.6 58.2 1.6 46.7 4.9 46.7C5.7 46.7 6.3 46.8 6.8 46.9 7.4 47.1 7.8 47.3 8.2 47.7 8.5 48 8.8 48.3 8.9 48.8 9.1 49.2 9.2 49.7 9.2 50.2 9.2 50.8 9.1 51.3 8.9 51.7 8.7 52.1 8.5 52.5 8.1 52.8 7.7 53.2 7.3 53.4 6.8 53.6 6.2 53.8 5.6 53.9 4.9 53.9L3.1 53.9ZM3.1 52.6L4.9 52.6C5.4 52.6 5.8 52.6 6.1 52.5 6.4 52.3 6.7 52.2 7 52 7.2 51.8 7.4 51.5 7.5 51.2 7.6 50.9 7.7 50.6 7.7 50.2 7.7 49.5 7.4 48.9 7 48.5 6.5 48.1 5.8 47.9 4.9 47.9L3.1 47.9 3.1 52.6ZM13.5 53.4L13.5 58.2 12 58.2 12 46.7 15.2 46.7C16 46.7 16.6 46.8 17.1 46.9 17.6 47.1 18.1 47.3 18.4 47.5 18.8 47.8 19 48.2 19.2 48.5 19.4 48.9 19.4 49.4 19.4 49.9 19.4 50.3 19.4 50.6 19.2 51 19.1 51.4 18.9 51.7 18.7 51.9 18.4 52.2 18.1 52.5 17.8 52.7 17.4 52.9 17.1 53 16.6 53.1 16.8 53.2 17 53.4 17.1 53.6L20.5 58.2 19.1 58.2C18.8 58.2 18.6 58 18.5 57.8L15.5 53.7C15.4 53.6 15.3 53.5 15.2 53.5 15.1 53.4 14.9 53.4 14.7 53.4L13.5 53.4ZM13.5 52.2L15.2 52.2C15.6 52.2 16 52.2 16.4 52.1 16.7 52 17 51.8 17.2 51.6 17.5 51.4 17.6 51.2 17.7 50.9 17.9 50.6 17.9 50.3 17.9 50 17.9 49.3 17.7 48.8 17.2 48.4 16.8 48.1 16.1 47.9 15.2 47.9L13.5 47.9 13.5 52.2ZM32.2 58.2L31 58.2C30.9 58.2 30.8 58.1 30.7 58 30.6 58 30.6 57.9 30.5 57.8L29.4 55 24.3 55 23.2 57.8C23.2 57.9 23.1 58 23 58 22.9 58.1 22.8 58.2 22.7 58.2L21.5 58.2 26.1 46.7 27.7 46.7 32.2 58.2ZM24.7 53.9L29 53.9 27.2 49.2C27.1 48.9 27 48.6 26.9 48.2 26.8 48.4 26.7 48.6 26.7 48.8 26.6 48.9 26.6 49.1 26.5 49.2L24.7 53.9ZM29.6 43.9L27.2 45.6C27.1 45.7 27.1 45.7 27 45.8 26.9 45.8 26.8 45.8 26.7 45.8L25.6 45.8 27.3 44.2C27.4 44.1 27.4 44.1 27.4 44 27.5 44 27.5 44 27.6 44 27.6 43.9 27.7 43.9 27.7 43.9 27.8 43.9 27.9 43.9 28 43.9L29.6 43.9ZM41.1 46.7L41.1 48 37.4 48 37.4 58.2 35.8 58.2 35.8 48 32.1 48 32.1 46.7 41.1 46.7ZM45.2 58.2L43.7 58.2 43.7 46.7 45.2 46.7 45.2 58.2ZM57.1 55.8C57.1 55.8 57.2 55.8 57.3 55.9L57.9 56.6C57.4 57.1 56.9 57.5 56.2 57.8 55.5 58.1 54.7 58.3 53.8 58.3 52.9 58.3 52.2 58.1 51.5 57.9 50.9 57.6 50.3 57.2 49.8 56.7 49.3 56.1 49 55.5 48.7 54.8 48.4 54.1 48.3 53.3 48.3 52.4 48.3 51.6 48.4 50.8 48.7 50 49 49.3 49.4 48.7 49.9 48.2 50.4 47.7 51 47.3 51.7 47 52.4 46.7 53.2 46.6 54.1 46.6 54.9 46.6 55.6 46.7 56.2 47 56.9 47.2 57.4 47.6 57.9 48L57.4 48.7C57.3 48.8 57.3 48.8 57.2 48.9 57.2 48.9 57.1 48.9 57 48.9 57 48.9 56.9 48.9 56.8 48.8 56.7 48.8 56.6 48.7 56.5 48.6 56.4 48.6 56.3 48.5 56.2 48.4 56 48.3 55.9 48.2 55.7 48.2 55.5 48.1 55.2 48 55 48 54.7 47.9 54.4 47.9 54.1 47.9 53.4 47.9 52.9 48 52.4 48.2 51.9 48.4 51.4 48.7 51.1 49.1 50.7 49.5 50.4 50 50.2 50.5 50 51.1 49.9 51.7 49.9 52.4 49.9 53.1 50 53.8 50.2 54.3 50.4 54.9 50.7 55.4 51 55.8 51.4 56.1 51.8 56.4 52.3 56.6 52.8 56.8 53.3 56.9 53.9 56.9 54.2 56.9 54.5 56.9 54.8 56.9 55.1 56.8 55.3 56.8 55.5 56.7 55.8 56.6 56 56.5 56.2 56.4 56.4 56.2 56.6 56.1 56.8 55.9 56.9 55.8 57 55.8 57.1 55.8L57.1 55.8ZM71.3 52.4C71.3 53.3 71.1 54.1 70.8 54.8 70.6 55.5 70.2 56.1 69.7 56.6 69.2 57.2 68.6 57.6 67.9 57.8 67.2 58.1 66.4 58.3 65.6 58.3 64.8 58.3 64 58.1 63.3 57.8 62.6 57.6 62 57.2 61.5 56.6 61 56.1 60.6 55.5 60.4 54.8 60.1 54.1 60 53.3 60 52.4 60 51.6 60.1 50.8 60.4 50.1 60.6 49.3 61 48.7 61.5 48.2 62 47.7 62.6 47.3 63.3 47 64 46.7 64.8 46.6 65.6 46.6 66.4 46.6 67.2 46.7 67.9 47 68.6 47.3 69.2 47.7 69.7 48.2 70.2 48.7 70.6 49.3 70.8 50.1 71.1 50.8 71.3 51.6 71.3 52.4L71.3 52.4ZM69.7 52.4C69.7 51.7 69.6 51.1 69.4 50.5 69.2 50 68.9 49.5 68.6 49.1 68.2 48.7 67.8 48.4 67.3 48.2 66.8 48 66.2 47.9 65.6 47.9 65 47.9 64.4 48 63.9 48.2 63.4 48.4 63 48.7 62.6 49.1 62.3 49.5 62 50 61.8 50.5 61.6 51.1 61.5 51.7 61.5 52.4 61.5 53.1 61.6 53.8 61.8 54.3 62 54.9 62.3 55.3 62.6 55.7 63 56.1 63.4 56.4 63.9 56.6 64.4 56.8 65 56.9 65.6 56.9 66.2 56.9 66.8 56.8 67.3 56.6 67.8 56.4 68.2 56.1 68.6 55.7 68.9 55.3 69.2 54.9 69.4 54.3 69.6 53.8 69.7 53.1 69.7 52.4L69.7 52.4Z" fill="#BEC6D3"/>
        <path d="M199.5 0.6C200.6 0.6 201.5 0.8 202.4 1.1 203.3 1.4 204.1 1.8 204.8 2.4 205.4 3 205.9 3.7 206.3 4.5 206.7 5.4 206.9 6.3 206.9 7.4 206.9 8.3 206.7 9.1 206.4 9.9 206.2 10.7 205.8 11.4 205.3 12.1 204.9 12.8 204.3 13.5 203.7 14.2 203.1 14.9 202.5 15.5 201.8 16.2L195.4 22.8C195.8 22.7 196.3 22.6 196.8 22.5 197.2 22.4 197.7 22.4 198.1 22.4L206.3 22.4C206.6 22.4 206.9 22.5 207.1 22.7 207.2 22.9 207.3 23.1 207.3 23.4L207.3 25.2 191.1 25.2 191.1 24.2C191.1 24 191.1 23.8 191.2 23.5 191.3 23.3 191.4 23.1 191.6 22.9L199.4 15.1C200.1 14.4 200.7 13.8 201.2 13.2 201.7 12.6 202.2 12 202.6 11.4 203 10.7 203.2 10.1 203.5 9.5 203.7 8.9 203.8 8.2 203.8 7.5 203.8 6.8 203.6 6.1 203.4 5.6 203.2 5.1 202.9 4.6 202.5 4.3 202.1 3.9 201.6 3.7 201.1 3.5 200.6 3.3 200 3.2 199.4 3.2 198.8 3.2 198.2 3.3 197.7 3.5 197.1 3.7 196.7 3.9 196.3 4.2 195.9 4.6 195.5 5 195.3 5.4 195 5.8 194.8 6.3 194.7 6.9 194.6 7.2 194.5 7.4 194.3 7.6 194.1 7.7 193.9 7.8 193.6 7.8 193.5 7.8 193.4 7.8 193.4 7.8 193.3 7.8 193.2 7.8 193.2 7.8L191.6 7.5C191.7 6.4 192 5.4 192.5 4.5 193 3.7 193.5 3 194.2 2.4 194.9 1.8 195.7 1.4 196.6 1.1 197.5 0.8 198.5 0.6 199.5 0.6L199.5 0.6ZM225.7 2.2C225.7 2.6 225.5 3 225.3 3.3 225 3.6 224.5 3.7 223.9 3.7L216.2 3.7 215.1 10.1C216.4 9.8 217.6 9.7 218.6 9.7 219.9 9.7 221 9.9 222 10.2 223 10.6 223.8 11.1 224.4 11.8 225.1 12.4 225.6 13.2 225.9 14.1 226.3 15 226.4 16 226.4 17 226.4 18.3 226.2 19.5 225.7 20.5 225.3 21.6 224.7 22.5 223.9 23.2 223.1 24 222.2 24.5 221.1 24.9 220 25.3 218.9 25.5 217.6 25.5 216.9 25.5 216.2 25.4 215.6 25.3 214.9 25.2 214.3 25 213.8 24.7 213.2 24.5 212.7 24.2 212.2 23.9 211.7 23.6 211.3 23.3 210.9 23L211.8 21.7C212 21.4 212.3 21.2 212.6 21.2 212.8 21.2 213.1 21.3 213.4 21.5 213.7 21.7 214 21.9 214.4 22.1 214.8 22.3 215.3 22.5 215.9 22.7 216.4 22.8 217.1 22.9 217.8 22.9 218.7 22.9 219.4 22.8 220.1 22.5 220.8 22.2 221.4 21.9 221.9 21.3 222.3 20.8 222.7 20.2 223 19.5 223.2 18.8 223.4 18 223.4 17.2 223.4 16.4 223.2 15.7 223 15.1 222.8 14.5 222.5 14 222 13.6 221.6 13.1 221 12.8 220.3 12.5 219.7 12.3 218.9 12.2 218 12.2 217.4 12.2 216.8 12.2 216.1 12.3 215.4 12.4 214.8 12.6 214.1 12.8L212.2 12.3 214.1 0.9 225.7 0.9 225.7 2.2ZM240.8 6.8C240.8 7.7 240.6 8.6 240.3 9.3 240 10.1 239.7 10.7 239.2 11.2 238.7 11.7 238.1 12.1 237.4 12.4 236.8 12.7 236.1 12.8 235.4 12.8 234.6 12.8 233.9 12.7 233.2 12.4 232.6 12.1 232 11.7 231.5 11.2 231 10.7 230.7 10.1 230.4 9.3 230.1 8.6 230 7.7 230 6.8 230 5.8 230.1 4.9 230.4 4.2 230.7 3.4 231 2.8 231.5 2.2 232 1.7 232.6 1.3 233.2 1.1 233.9 0.8 234.6 0.6 235.4 0.6 236.1 0.6 236.8 0.8 237.5 1.1 238.2 1.3 238.7 1.7 239.2 2.2 239.7 2.8 240.1 3.4 240.4 4.2 240.6 4.9 240.8 5.8 240.8 6.8L240.8 6.8ZM238.4 6.8C238.4 6 238.3 5.4 238.2 4.9 238 4.3 237.8 3.9 237.5 3.6 237.3 3.2 236.9 3 236.6 2.9 236.2 2.7 235.8 2.6 235.4 2.6 235 2.6 234.6 2.7 234.2 2.9 233.8 3 233.5 3.2 233.2 3.6 233 3.9 232.8 4.3 232.6 4.9 232.4 5.4 232.4 6 232.4 6.8 232.4 7.5 232.4 8.1 232.6 8.6 232.8 9.2 233 9.6 233.2 9.9 233.5 10.2 233.8 10.5 234.2 10.6 234.6 10.7 235 10.8 235.4 10.8 235.8 10.8 236.2 10.7 236.6 10.6 236.9 10.5 237.3 10.2 237.5 9.9 237.8 9.6 238 9.2 238.2 8.6 238.3 8.1 238.4 7.5 238.4 6.8L238.4 6.8ZM249.3 1.5C249.4 1.3 249.6 1.2 249.8 1 249.9 0.9 250.2 0.9 250.4 0.9L252.6 0.9 234.8 24.8C234.7 24.9 234.5 25 234.4 25.1 234.2 25.2 234 25.2 233.8 25.2L231.6 25.2 249.3 1.5ZM254.2 19.5C254.2 20.5 254.1 21.3 253.8 22.1 253.5 22.8 253.1 23.4 252.6 23.9 252.1 24.5 251.6 24.9 250.9 25.1 250.3 25.4 249.6 25.5 248.9 25.5 248.1 25.5 247.4 25.4 246.7 25.1 246.1 24.9 245.5 24.5 245 23.9 244.5 23.4 244.1 22.8 243.9 22.1 243.6 21.3 243.5 20.5 243.5 19.5 243.5 18.5 243.6 17.7 243.9 16.9 244.1 16.1 244.5 15.5 245 15 245.5 14.4 246.1 14 246.7 13.8 247.4 13.5 248.1 13.4 248.9 13.4 249.6 13.4 250.3 13.5 251 13.8 251.6 14 252.2 14.4 252.7 15 253.2 15.5 253.6 16.1 253.8 16.9 254.1 17.7 254.2 18.5 254.2 19.5L254.2 19.5ZM251.9 19.5C251.9 18.8 251.8 18.1 251.7 17.6 251.5 17.1 251.3 16.6 251 16.3 250.7 16 250.4 15.7 250 15.6 249.7 15.4 249.3 15.4 248.9 15.4 248.4 15.4 248 15.4 247.7 15.6 247.3 15.7 247 16 246.7 16.3 246.4 16.6 246.2 17.1 246.1 17.6 245.9 18.1 245.8 18.8 245.8 19.5 245.8 20.2 245.9 20.9 246.1 21.4 246.2 21.9 246.4 22.3 246.7 22.6 247 22.9 247.3 23.2 247.7 23.3 248 23.5 248.4 23.5 248.9 23.5 249.3 23.5 249.7 23.5 250 23.3 250.4 23.2 250.7 22.9 251 22.6 251.3 22.3 251.5 21.9 251.7 21.4 251.8 20.9 251.9 20.2 251.9 19.5L251.9 19.5Z" fill="#627087"/>
        <path d="M198.5 46.7L198.5 48 194.8 48 194.8 58.2 193.3 58.2 193.3 48 189.5 48 189.5 46.7 198.5 46.7ZM207.9 46.7L207.9 48 202.4 48 202.4 51.8 206.8 51.8 206.8 53 202.4 53 202.4 56.9 207.9 56.9 207.9 58.2 200.8 58.2 200.8 46.7 207.9 46.7ZM221.4 52.4C221.4 53.3 221.3 54.1 221 54.8 220.8 55.5 220.4 56.1 219.9 56.6 219.4 57.2 218.8 57.6 218.1 57.8 217.4 58.1 216.6 58.3 215.8 58.3 214.9 58.3 214.2 58.1 213.5 57.8 212.8 57.6 212.2 57.2 211.7 56.6 211.2 56.1 210.8 55.5 210.5 54.8 210.3 54.1 210.1 53.3 210.1 52.4 210.1 51.6 210.3 50.8 210.5 50.1 210.8 49.3 211.2 48.7 211.7 48.2 212.2 47.7 212.8 47.3 213.5 47 214.2 46.7 214.9 46.6 215.8 46.6 216.6 46.6 217.4 46.7 218.1 47 218.8 47.3 219.4 47.7 219.9 48.2 220.4 48.7 220.8 49.3 221 50.1 221.3 50.8 221.4 51.6 221.4 52.4L221.4 52.4ZM219.8 52.4C219.8 51.7 219.7 51.1 219.6 50.5 219.4 50 219.1 49.5 218.7 49.1 218.4 48.7 218 48.4 217.5 48.2 217 48 216.4 47.9 215.8 47.9 215.2 47.9 214.6 48 214.1 48.2 213.6 48.4 213.2 48.7 212.8 49.1 212.5 49.5 212.2 50 212 50.5 211.8 51.1 211.7 51.7 211.7 52.4 211.7 53.1 211.8 53.8 212 54.3 212.2 54.9 212.5 55.3 212.8 55.7 213.2 56.1 213.6 56.4 214.1 56.6 214.6 56.8 215.2 56.9 215.8 56.9 216.4 56.9 217 56.8 217.5 56.6 218 56.4 218.4 56.1 218.7 55.7 219.1 55.3 219.4 54.9 219.6 54.3 219.7 53.8 219.8 53.1 219.8 52.4L219.8 52.4ZM218.5 43.9L216.2 45.6C216.1 45.7 216 45.7 215.9 45.8 215.9 45.8 215.8 45.8 215.7 45.8L214.6 45.8 216.2 44.2C216.3 44.1 216.3 44.1 216.4 44 216.4 44 216.5 44 216.5 44 216.6 43.9 216.6 43.9 216.7 43.9 216.7 43.9 216.8 43.9 216.9 43.9L218.5 43.9ZM225.9 53.4L225.9 58.2 224.4 58.2 224.4 46.7 227.6 46.7C228.3 46.7 229 46.8 229.5 46.9 230 47.1 230.5 47.3 230.8 47.5 231.2 47.8 231.4 48.2 231.6 48.5 231.7 48.9 231.8 49.4 231.8 49.9 231.8 50.3 231.8 50.6 231.6 51 231.5 51.4 231.3 51.7 231.1 51.9 230.8 52.2 230.5 52.5 230.2 52.7 229.8 52.9 229.4 53 229 53.1 229.2 53.2 229.4 53.4 229.5 53.6L232.9 58.2 231.5 58.2C231.2 58.2 231 58 230.9 57.8L227.9 53.7C227.8 53.6 227.7 53.5 227.6 53.5 227.5 53.4 227.3 53.4 227.1 53.4L225.9 53.4ZM225.9 52.2L227.5 52.2C228 52.2 228.4 52.2 228.7 52.1 229.1 52 229.4 51.8 229.6 51.6 229.8 51.4 230 51.2 230.1 50.9 230.2 50.6 230.3 50.3 230.3 50 230.3 49.3 230.1 48.8 229.6 48.4 229.2 48.1 228.5 47.9 227.6 47.9L225.9 47.9 225.9 52.2ZM237 58.2L235.5 58.2 235.5 46.7 237 46.7 237 58.2ZM248.8 55.8C248.9 55.8 249 55.8 249.1 55.9L249.7 56.6C249.2 57.1 248.7 57.5 248 57.8 247.3 58.1 246.5 58.3 245.6 58.3 244.7 58.3 244 58.1 243.3 57.9 242.6 57.6 242.1 57.2 241.6 56.7 241.1 56.1 240.8 55.5 240.5 54.8 240.2 54.1 240.1 53.3 240.1 52.4 240.1 51.6 240.2 50.8 240.5 50 240.8 49.3 241.2 48.7 241.7 48.2 242.2 47.7 242.8 47.3 243.5 47 244.2 46.7 245 46.6 245.9 46.6 246.7 46.6 247.4 46.7 248 47 248.6 47.2 249.2 47.6 249.7 48L249.2 48.7C249.1 48.8 249.1 48.8 249 48.9 249 48.9 248.9 48.9 248.8 48.9 248.8 48.9 248.7 48.9 248.6 48.8 248.5 48.8 248.4 48.7 248.3 48.6 248.2 48.6 248.1 48.5 248 48.4 247.8 48.3 247.6 48.2 247.4 48.2 247.2 48.1 247 48 246.8 48 246.5 47.9 246.2 47.9 245.8 47.9 245.2 47.9 244.7 48 244.2 48.2 243.7 48.4 243.2 48.7 242.8 49.1 242.5 49.5 242.2 50 242 50.5 241.8 51.1 241.7 51.7 241.7 52.4 241.7 53.1 241.8 53.8 242 54.3 242.2 54.9 242.5 55.4 242.8 55.8 243.2 56.1 243.6 56.4 244.1 56.6 244.6 56.8 245.1 56.9 245.7 56.9 246 56.9 246.3 56.9 246.6 56.9 246.8 56.8 247.1 56.8 247.3 56.7 247.6 56.6 247.8 56.5 248 56.4 248.2 56.2 248.4 56.1 248.6 55.9 248.7 55.8 248.8 55.8 248.8 55.8L248.8 55.8ZM263 52.4C263 53.3 262.9 54.1 262.6 54.8 262.4 55.5 262 56.1 261.5 56.6 261 57.2 260.4 57.6 259.7 57.8 259 58.1 258.2 58.3 257.4 58.3 256.5 58.3 255.8 58.1 255.1 57.8 254.4 57.6 253.8 57.2 253.3 56.6 252.8 56.1 252.4 55.5 252.1 54.8 251.9 54.1 251.7 53.3 251.7 52.4 251.7 51.6 251.9 50.8 252.1 50.1 252.4 49.3 252.8 48.7 253.3 48.2 253.8 47.7 254.4 47.3 255.1 47 255.8 46.7 256.5 46.6 257.4 46.6 258.2 46.6 259 46.7 259.7 47 260.4 47.3 261 47.7 261.5 48.2 262 48.7 262.4 49.3 262.6 50.1 262.9 50.8 263 51.6 263 52.4L263 52.4ZM261.5 52.4C261.5 51.7 261.4 51.1 261.2 50.5 261 50 260.7 49.5 260.3 49.1 260 48.7 259.6 48.4 259.1 48.2 258.6 48 258 47.9 257.4 47.9 256.8 47.9 256.2 48 255.7 48.2 255.2 48.4 254.8 48.7 254.4 49.1 254.1 49.5 253.8 50 253.6 50.5 253.4 51.1 253.3 51.7 253.3 52.4 253.3 53.1 253.4 53.8 253.6 54.3 253.8 54.9 254.1 55.3 254.4 55.7 254.8 56.1 255.2 56.4 255.7 56.6 256.2 56.8 256.8 56.9 257.4 56.9 258 56.9 258.6 56.8 259.1 56.6 259.6 56.4 260 56.1 260.3 55.7 260.7 55.3 261 54.9 261.2 54.3 261.4 53.8 261.5 53.1 261.5 52.4L261.5 52.4Z" fill="#BEC6D3"/>
        <path d="M9.3 110.3C8.4 110.3 7.5 110.1 6.7 109.8 5.9 109.5 5.2 109 4.6 108.4 3.9 107.8 3.4 107.1 3.1 106.2 2.7 105.4 2.5 104.4 2.5 103.3 2.5 102.2 2.7 101.2 3.1 100.3 3.5 99.3 4.1 98.5 4.8 97.8 5.5 97.2 6.3 96.6 7.3 96.2 8.3 95.8 9.4 95.6 10.6 95.6 11.7 95.6 12.8 95.8 13.8 96.2 14.7 96.6 15.5 97.1 16.2 97.8 16.9 98.5 17.4 99.3 17.8 100.3 18.1 101.3 18.3 102.3 18.3 103.5 18.3 104.2 18.3 104.9 18.1 105.5 18 106.1 17.8 106.7 17.6 107.3 17.3 107.9 17 108.5 16.7 109.1 16.3 109.7 15.9 110.3 15.5 111L9.6 119.5C9.4 119.8 9.2 119.9 8.9 120.1 8.7 120.2 8.3 120.2 8 120.2L5.2 120.2 12.6 110.5C12.9 110.2 13.1 109.9 13.3 109.6 13.5 109.3 13.7 109 13.9 108.7 13.3 109.2 12.6 109.6 11.8 109.9 11 110.1 10.2 110.3 9.3 110.3L9.3 110.3ZM15.4 103.1C15.4 102.4 15.3 101.7 15.1 101.1 14.8 100.4 14.5 99.9 14 99.5 13.6 99.1 13.1 98.7 12.5 98.5 11.9 98.3 11.3 98.1 10.5 98.1 9.8 98.1 9.1 98.3 8.5 98.5 7.9 98.8 7.3 99.1 6.9 99.5 6.5 100 6.1 100.5 5.9 101.1 5.7 101.7 5.5 102.3 5.5 103 5.5 103.8 5.7 104.5 5.9 105.1 6.1 105.7 6.4 106.2 6.8 106.6 7.2 107.1 7.7 107.4 8.3 107.6 8.9 107.8 9.6 107.9 10.3 107.9 11.2 107.9 11.9 107.8 12.5 107.5 13.1 107.3 13.7 106.9 14.1 106.5 14.5 106 14.9 105.5 15.1 104.9 15.3 104.4 15.4 103.8 15.4 103.1L15.4 103.1Z" fill="#627087"/>
        <path d="M7.3 143.5C7.2 143.6 7.2 143.6 7.1 143.7 7.1 143.7 7 143.7 6.9 143.7 6.8 143.7 6.7 143.7 6.6 143.6 6.5 143.5 6.3 143.4 6.1 143.3 5.9 143.2 5.7 143.1 5.5 143 5.2 142.9 4.9 142.8 4.5 142.8 4.2 142.8 3.9 142.9 3.6 143 3.3 143.1 3.1 143.2 2.9 143.4 2.8 143.5 2.6 143.7 2.5 143.9 2.4 144.1 2.4 144.4 2.4 144.6 2.4 145 2.5 145.2 2.6 145.4 2.8 145.6 3 145.8 3.3 146 3.5 146.1 3.8 146.2 4.1 146.4 4.5 146.5 4.8 146.6 5.1 146.7 5.5 146.8 5.8 146.9 6.2 147.1 6.5 147.2 6.8 147.4 7 147.6 7.3 147.9 7.5 148.1 7.7 148.5 7.8 148.8 7.9 149.2 7.9 149.7 7.9 150.2 7.8 150.6 7.6 151.1 7.5 151.5 7.2 151.9 6.9 152.2 6.6 152.6 6.2 152.8 5.7 153 5.2 153.2 4.7 153.3 4.1 153.3 3.3 153.3 2.6 153.1 2 152.9 1.4 152.6 0.9 152.2 0.5 151.8L0.9 151C1 151 1 150.9 1.1 150.9 1.1 150.9 1.2 150.8 1.3 150.8 1.4 150.8 1.5 150.9 1.7 151 1.8 151.1 2 151.3 2.2 151.4 2.4 151.6 2.7 151.7 3 151.8 3.3 151.9 3.7 152 4.1 152 4.5 152 4.8 151.9 5.1 151.8 5.4 151.7 5.6 151.6 5.8 151.4 6 151.2 6.2 151 6.3 150.8 6.4 150.5 6.4 150.2 6.4 149.9 6.4 149.5 6.4 149.3 6.2 149 6 148.8 5.8 148.6 5.6 148.5 5.3 148.3 5 148.2 4.7 148.1 4.4 148 4 147.9 3.7 147.8 3.4 147.7 3 147.6 2.7 147.4 2.4 147.3 2.1 147.1 1.8 146.8 1.6 146.6 1.4 146.3 1.2 146 1 145.6 1 145.2 1 144.7 1 144.3 1 143.9 1.2 143.5 1.4 143.2 1.6 142.8 1.9 142.5 2.2 142.2 2.5 142 3 141.8 3.4 141.6 3.9 141.6 4.5 141.6 5.1 141.6 5.7 141.7 6.3 141.9 6.8 142.1 7.2 142.4 7.6 142.7L7.3 143.5ZM17.6 141.7L17.6 143 12.1 143 12.1 146.8 16.6 146.8 16.6 148 12.1 148 12.1 151.9 17.6 151.9 17.6 153.2 10.5 153.2 10.5 141.7 17.6 141.7ZM26.1 149C26.2 149.1 26.3 149.3 26.3 149.4 26.4 149.6 26.4 149.7 26.5 149.8 26.6 149.7 26.6 149.5 26.7 149.4 26.7 149.3 26.8 149.1 26.9 149L30.7 142C30.8 141.8 30.9 141.8 31 141.7 31 141.7 31.1 141.7 31.3 141.7L32.4 141.7 32.4 153.2 31.1 153.2 31.1 144.7C31.1 144.6 31.1 144.5 31.1 144.4 31.1 144.2 31.1 144.1 31.1 144L27.2 151.1C27 151.4 26.9 151.5 26.6 151.5L26.4 151.5C26.1 151.5 26 151.4 25.8 151.1L21.8 144C21.8 144.1 21.8 144.2 21.8 144.4 21.9 144.5 21.9 144.6 21.9 144.7L21.9 153.2 20.5 153.2 20.5 141.7 21.6 141.7C21.8 141.7 21.9 141.7 22 141.7 22 141.8 22.1 141.8 22.2 142L26.1 149ZM45.3 153.2L44.1 153.2C44 153.2 43.9 153.1 43.8 153 43.7 153 43.6 152.9 43.6 152.8L42.5 150 37.4 150 36.3 152.8C36.3 152.9 36.2 153 36.1 153 36 153.1 35.9 153.2 35.8 153.2L34.6 153.2 39.2 141.7 40.7 141.7 45.3 153.2ZM37.8 148.9L42.1 148.9 40.3 144.2C40.2 143.9 40.1 143.6 39.9 143.2 39.9 143.4 39.8 143.6 39.8 143.8 39.7 143.9 39.7 144.1 39.6 144.2L37.8 148.9ZM48.2 141.7C48.4 141.7 48.5 141.7 48.5 141.7 48.6 141.8 48.7 141.8 48.8 142L55.4 150.6C55.4 150.5 55.4 150.3 55.4 150.2 55.4 150.1 55.4 149.9 55.4 149.8L55.4 141.7 56.7 141.7 56.7 153.2 55.9 153.2C55.8 153.2 55.7 153.1 55.6 153.1 55.6 153 55.5 153 55.4 152.9L48.8 144.2C48.8 144.4 48.8 144.5 48.8 144.6 48.8 144.8 48.8 144.9 48.8 145L48.8 153.2 47.4 153.2 47.4 141.7 48.2 141.7ZM69.6 153.2L68.4 153.2C68.3 153.2 68.2 153.1 68.1 153 68 153 67.9 152.9 67.9 152.8L66.8 150 61.7 150 60.6 152.8C60.6 152.9 60.5 153 60.4 153 60.3 153.1 60.2 153.2 60.1 153.2L58.9 153.2 63.5 141.7 65 141.7 69.6 153.2ZM62.1 148.9L66.4 148.9 64.6 144.2C64.5 143.9 64.4 143.6 64.3 143.2 64.2 143.4 64.1 143.6 64.1 143.8 64 143.9 64 144.1 63.9 144.2L62.1 148.9ZM77.6 143.5C77.6 143.6 77.5 143.6 77.5 143.7 77.4 143.7 77.3 143.7 77.3 143.7 77.2 143.7 77.1 143.7 76.9 143.6 76.8 143.5 76.7 143.4 76.5 143.3 76.3 143.2 76.1 143.1 75.8 143 75.6 142.9 75.2 142.8 74.9 142.8 74.5 142.8 74.2 142.9 74 143 73.7 143.1 73.5 143.2 73.3 143.4 73.1 143.5 73 143.7 72.9 143.9 72.8 144.1 72.8 144.4 72.8 144.6 72.8 145 72.8 145.2 73 145.4 73.1 145.6 73.4 145.8 73.6 146 73.9 146.1 74.2 146.2 74.5 146.4 74.8 146.5 75.2 146.6 75.5 146.7 75.8 146.8 76.2 146.9 76.5 147.1 76.8 147.2 77.1 147.4 77.4 147.6 77.6 147.9 77.9 148.1 78 148.5 78.2 148.8 78.2 149.2 78.2 149.7 78.2 150.2 78.2 150.6 78 151.1 77.8 151.5 77.6 151.9 77.2 152.2 76.9 152.6 76.5 152.8 76 153 75.6 153.2 75 153.3 74.4 153.3 73.7 153.3 73 153.1 72.4 152.9 71.8 152.6 71.2 152.2 70.8 151.8L71.3 151C71.3 151 71.4 150.9 71.4 150.9 71.5 150.9 71.5 150.8 71.6 150.8 71.7 150.8 71.9 150.9 72 151 72.2 151.1 72.3 151.3 72.5 151.4 72.8 151.6 73 151.7 73.3 151.8 73.6 151.9 74 152 74.5 152 74.8 152 75.2 151.9 75.4 151.8 75.7 151.7 76 151.6 76.2 151.4 76.4 151.2 76.5 151 76.6 150.8 76.7 150.5 76.8 150.2 76.8 149.9 76.8 149.5 76.7 149.3 76.6 149 76.4 148.8 76.2 148.6 75.9 148.5 75.7 148.3 75.4 148.2 75.1 148.1 74.7 148 74.4 147.9 74.1 147.8 73.7 147.7 73.4 147.6 73 147.4 72.7 147.3 72.4 147.1 72.2 146.8 71.9 146.6 71.7 146.3 71.5 146 71.4 145.6 71.3 145.2 71.3 144.7 71.3 144.3 71.4 143.9 71.5 143.5 71.7 143.2 71.9 142.8 72.2 142.5 72.5 142.2 72.9 142 73.3 141.8 73.8 141.6 74.3 141.6 74.9 141.6 75.5 141.6 76.1 141.7 76.6 141.9 77.1 142.1 77.6 142.4 78 142.7L77.6 143.5Z" fill="#BEC6D3"/>
        <path d="M199.2 120.5C198 120.5 196.8 120.4 195.8 120 194.8 119.7 194 119.3 193.2 118.7 192.5 118.1 191.9 117.3 191.6 116.5 191.2 115.6 191 114.7 191 113.6 191 112 191.4 110.7 192.2 109.7 193 108.7 194.2 108 195.7 107.5 194.4 107.1 193.4 106.4 192.8 105.4 192.1 104.5 191.8 103.3 191.8 102 191.8 101.1 192 100.3 192.3 99.5 192.7 98.7 193.2 98 193.8 97.5 194.5 96.9 195.2 96.4 196.1 96.1 197.1 95.8 198.1 95.6 199.2 95.6 200.3 95.6 201.3 95.8 202.2 96.1 203.1 96.4 203.9 96.9 204.5 97.5 205.2 98 205.6 98.7 206 99.5 206.4 100.3 206.5 101.1 206.5 102 206.5 103.3 206.2 104.5 205.5 105.4 204.9 106.4 203.9 107.1 202.7 107.5 204.2 108 205.3 108.7 206.2 109.7 207 110.7 207.4 112 207.4 113.6 207.4 114.7 207.2 115.6 206.8 116.5 206.4 117.3 205.8 118.1 205.1 118.7 204.4 119.3 203.5 119.7 202.5 120 201.5 120.4 200.4 120.5 199.2 120.5L199.2 120.5ZM199.2 118.1C200 118.1 200.7 118 201.3 117.8 201.9 117.6 202.5 117.2 202.9 116.8 203.3 116.4 203.7 116 203.9 115.4 204.1 114.8 204.3 114.2 204.3 113.5 204.3 112.7 204.1 112 203.8 111.4 203.6 110.8 203.2 110.3 202.7 109.9 202.2 109.6 201.7 109.3 201.1 109.1 200.5 108.9 199.8 108.8 199.2 108.8 198.5 108.8 197.9 108.9 197.2 109.1 196.6 109.3 196.1 109.6 195.6 109.9 195.2 110.3 194.8 110.8 194.5 111.4 194.2 112 194.1 112.7 194.1 113.5 194.1 114.2 194.2 114.8 194.4 115.4 194.7 116 195 116.4 195.4 116.8 195.9 117.2 196.4 117.6 197 117.8 197.7 118 198.4 118.1 199.2 118.1L199.2 118.1ZM199.2 106.4C200 106.4 200.6 106.3 201.2 106 201.8 105.8 202.2 105.5 202.6 105.1 202.9 104.7 203.2 104.2 203.3 103.7 203.5 103.2 203.6 102.6 203.6 102.1 203.6 101.5 203.5 101 203.3 100.5 203.1 100 202.8 99.5 202.5 99.2 202.1 98.8 201.6 98.5 201.1 98.3 200.5 98.1 199.9 98 199.2 98 198.4 98 197.8 98.1 197.3 98.3 196.7 98.5 196.2 98.8 195.9 99.2 195.5 99.5 195.2 100 195 100.5 194.9 101 194.8 101.5 194.8 102.1 194.8 102.6 194.8 103.2 195 103.7 195.2 104.2 195.4 104.7 195.8 105.1 196.1 105.5 196.6 105.8 197.1 106 197.7 106.3 198.4 106.4 199.2 106.4L199.2 106.4Z" fill="#627087"/>
        <path d="M200 153.2L198.5 153.2 198.5 147.9 192.3 147.9 192.3 153.2 190.7 153.2 190.7 141.7 192.3 141.7 192.3 146.8 198.5 146.8 198.5 141.7 200 141.7 200 153.2ZM214.1 147.4C214.1 148.3 214 149.1 213.7 149.8 213.4 150.5 213.1 151.1 212.6 151.6 212.1 152.2 211.5 152.6 210.8 152.8 210.1 153.1 209.3 153.3 208.5 153.3 207.6 153.3 206.9 153.1 206.2 152.8 205.5 152.6 204.9 152.2 204.4 151.6 203.9 151.1 203.5 150.5 203.2 149.8 203 149.1 202.8 148.3 202.8 147.4 202.8 146.6 203 145.8 203.2 145.1 203.5 144.3 203.9 143.7 204.4 143.2 204.9 142.7 205.5 142.3 206.2 142 206.9 141.7 207.6 141.6 208.5 141.6 209.3 141.6 210.1 141.7 210.8 142 211.5 142.3 212.1 142.7 212.6 143.2 213.1 143.7 213.4 144.3 213.7 145.1 214 145.8 214.1 146.6 214.1 147.4L214.1 147.4ZM212.5 147.4C212.5 146.7 212.4 146.1 212.2 145.5 212.1 145 211.8 144.5 211.4 144.1 211.1 143.7 210.7 143.4 210.2 143.2 209.6 143 209.1 142.9 208.5 142.9 207.9 142.9 207.3 143 206.8 143.2 206.3 143.4 205.9 143.7 205.5 144.1 205.2 144.5 204.9 145 204.7 145.5 204.5 146.1 204.4 146.7 204.4 147.4 204.4 148.1 204.5 148.8 204.7 149.3 204.9 149.9 205.2 150.3 205.5 150.7 205.9 151.1 206.3 151.4 206.8 151.6 207.3 151.8 207.9 151.9 208.5 151.9 209.1 151.9 209.6 151.8 210.2 151.6 210.7 151.4 211.1 151.1 211.4 150.7 211.8 150.3 212.1 149.9 212.2 149.3 212.4 148.8 212.5 148.1 212.5 147.4L212.5 147.4ZM218.6 148.4L218.6 153.2 217.1 153.2 217.1 141.7 220.3 141.7C221 141.7 221.7 141.8 222.2 141.9 222.7 142.1 223.2 142.3 223.5 142.5 223.8 142.8 224.1 143.2 224.3 143.5 224.4 143.9 224.5 144.4 224.5 144.9 224.5 145.3 224.4 145.6 224.3 146 224.2 146.4 224 146.7 223.8 146.9 223.5 147.2 223.2 147.5 222.9 147.7 222.5 147.9 222.1 148 221.7 148.1 221.9 148.2 222.1 148.4 222.2 148.6L225.5 153.2 224.2 153.2C223.9 153.2 223.7 153 223.5 152.8L220.6 148.7C220.5 148.6 220.4 148.5 220.3 148.5 220.2 148.4 220 148.4 219.8 148.4L218.6 148.4ZM218.6 147.2L220.2 147.2C220.7 147.2 221.1 147.2 221.4 147.1 221.8 147 222.1 146.8 222.3 146.6 222.5 146.4 222.7 146.2 222.8 145.9 222.9 145.6 223 145.3 223 145 223 144.3 222.8 143.8 222.3 143.4 221.9 143.1 221.2 142.9 220.3 142.9L218.6 142.9 218.6 147.2ZM237.3 153.2L236.1 153.2C236 153.2 235.9 153.1 235.8 153 235.7 153 235.6 152.9 235.6 152.8L234.5 150 229.4 150 228.3 152.8C228.3 152.9 228.2 153 228.1 153 228 153.1 227.9 153.2 227.8 153.2L226.6 153.2 231.2 141.7 232.7 141.7 237.3 153.2ZM229.8 148.9L234.1 148.9 232.3 144.2C232.2 143.9 232.1 143.6 231.9 143.2 231.9 143.4 231.8 143.6 231.8 143.8 231.7 143.9 231.7 144.1 231.6 144.2L229.8 148.9ZM245.3 143.5C245.3 143.6 245.2 143.6 245.2 143.7 245.1 143.7 245 143.7 244.9 143.7 244.9 143.7 244.7 143.7 244.6 143.6 244.5 143.5 244.4 143.4 244.2 143.3 244 143.2 243.8 143.1 243.5 143 243.2 142.9 242.9 142.8 242.6 142.8 242.2 142.8 241.9 142.9 241.6 143 241.4 143.1 241.2 143.2 241 143.4 240.8 143.5 240.7 143.7 240.6 143.9 240.5 144.1 240.4 144.4 240.4 144.6 240.4 145 240.5 145.2 240.7 145.4 240.8 145.6 241 145.8 241.3 146 241.6 146.1 241.9 146.2 242.2 146.4 242.5 146.5 242.8 146.6 243.2 146.7 243.5 146.8 243.9 146.9 244.2 147.1 244.5 147.2 244.8 147.4 245.1 147.6 245.3 147.9 245.5 148.1 245.7 148.5 245.9 148.8 245.9 149.2 245.9 149.7 245.9 150.2 245.8 150.6 245.7 151.1 245.5 151.5 245.3 151.9 244.9 152.2 244.6 152.6 244.2 152.8 243.7 153 243.2 153.2 242.7 153.3 242.1 153.3 241.4 153.3 240.7 153.1 240.1 152.9 239.5 152.6 238.9 152.2 238.5 151.8L239 151C239 151 239 150.9 239.1 150.9 239.2 150.9 239.2 150.8 239.3 150.8 239.4 150.8 239.6 150.9 239.7 151 239.8 151.1 240 151.3 240.2 151.4 240.5 151.6 240.7 151.7 241 151.8 241.3 151.9 241.7 152 242.1 152 242.5 152 242.8 151.9 243.1 151.8 243.4 151.7 243.7 151.6 243.9 151.4 244.1 151.2 244.2 151 244.3 150.8 244.4 150.5 244.5 150.2 244.5 149.9 244.5 149.5 244.4 149.3 244.2 149 244.1 148.8 243.9 148.6 243.6 148.5 243.4 148.3 243.1 148.2 242.7 148.1 242.4 148 242.1 147.9 241.7 147.8 241.4 147.7 241.1 147.6 240.7 147.4 240.4 147.3 240.1 147.1 239.9 146.8 239.6 146.6 239.4 146.3 239.2 146 239.1 145.6 239 145.2 239 144.7 239 144.3 239.1 143.9 239.2 143.5 239.4 143.2 239.6 142.8 239.9 142.5 240.2 142.2 240.6 142 241 141.8 241.5 141.6 242 141.6 242.5 141.6 243.2 141.6 243.8 141.7 244.3 141.9 244.8 142.1 245.3 142.4 245.7 142.7L245.3 143.5ZM254 148.9L254 153.2 252.5 153.2 252.5 141.7 255.9 141.7C256.6 141.7 257.2 141.8 257.8 141.9 258.3 142.1 258.7 142.3 259.1 142.7 259.5 143 259.7 143.3 259.9 143.8 260.1 144.2 260.1 144.7 260.1 145.2 260.1 145.8 260.1 146.3 259.9 146.7 259.7 147.1 259.4 147.5 259 147.8 258.7 148.2 258.2 148.4 257.7 148.6 257.2 148.8 256.6 148.9 255.9 148.9L254 148.9ZM254 147.6L255.9 147.6C256.3 147.6 256.7 147.6 257 147.5 257.4 147.3 257.7 147.2 257.9 147 258.1 146.8 258.3 146.5 258.4 146.2 258.5 145.9 258.6 145.6 258.6 145.2 258.6 144.5 258.4 143.9 257.9 143.5 257.5 143.1 256.8 142.9 255.9 142.9L254 142.9 254 147.6ZM273.4 147.4C273.4 148.3 273.3 149.1 273 149.8 272.7 150.5 272.4 151.1 271.9 151.6 271.4 152.2 270.8 152.6 270.1 152.8 269.4 153.1 268.6 153.3 267.8 153.3 266.9 153.3 266.2 153.1 265.5 152.8 264.8 152.6 264.2 152.2 263.7 151.6 263.2 151.1 262.8 150.5 262.5 149.8 262.3 149.1 262.1 148.3 262.1 147.4 262.1 146.6 262.3 145.8 262.5 145.1 262.8 144.3 263.2 143.7 263.7 143.2 264.2 142.7 264.8 142.3 265.5 142 266.2 141.7 266.9 141.6 267.8 141.6 268.6 141.6 269.4 141.7 270.1 142 270.8 142.3 271.4 142.7 271.9 143.2 272.4 143.7 272.7 144.3 273 145.1 273.3 145.8 273.4 146.6 273.4 147.4L273.4 147.4ZM271.8 147.4C271.8 146.7 271.7 146.1 271.5 145.5 271.4 145 271.1 144.5 270.7 144.1 270.4 143.7 269.9 143.4 269.4 143.2 268.9 143 268.4 142.9 267.8 142.9 267.2 142.9 266.6 143 266.1 143.2 265.6 143.4 265.2 143.7 264.8 144.1 264.5 144.5 264.2 145 264 145.5 263.8 146.1 263.7 146.7 263.7 147.4 263.7 148.1 263.8 148.8 264 149.3 264.2 149.9 264.5 150.3 264.8 150.7 265.2 151.1 265.6 151.4 266.1 151.6 266.6 151.8 267.2 151.9 267.8 151.9 268.4 151.9 268.9 151.8 269.4 151.6 269.9 151.4 270.4 151.1 270.7 150.7 271.1 150.3 271.4 149.9 271.5 149.3 271.7 148.8 271.8 148.1 271.8 147.4L271.8 147.4ZM277.9 148.4L277.9 153.2 276.4 153.2 276.4 141.7 279.6 141.7C280.3 141.7 281 141.8 281.5 141.9 282 142.1 282.5 142.3 282.8 142.5 283.1 142.8 283.4 143.2 283.6 143.5 283.7 143.9 283.8 144.4 283.8 144.9 283.8 145.3 283.7 145.6 283.6 146 283.5 146.4 283.3 146.7 283.1 146.9 282.8 147.2 282.5 147.5 282.2 147.7 281.8 147.9 281.4 148 281 148.1 281.2 148.2 281.3 148.4 281.5 148.6L284.8 153.2 283.5 153.2C283.2 153.2 283 153 282.8 152.8L279.9 148.7C279.8 148.6 279.7 148.5 279.6 148.5 279.5 148.4 279.3 148.4 279.1 148.4L277.9 148.4ZM277.9 147.2L279.5 147.2C280 147.2 280.4 147.2 280.7 147.1 281.1 147 281.4 146.8 281.6 146.6 281.8 146.4 282 146.2 282.1 145.9 282.2 145.6 282.3 145.3 282.3 145 282.3 144.3 282.1 143.8 281.6 143.4 281.2 143.1 280.5 142.9 279.6 142.9L277.9 142.9 277.9 147.2ZM300.9 147.4C300.9 148.3 300.7 149.1 300.5 149.8 300.2 150.5 299.8 151.1 299.3 151.6 298.8 152.1 298.2 152.5 297.5 152.7 296.8 153 296.1 153.2 295.2 153.2L290.9 153.2 290.9 141.7 295.2 141.7C296.1 141.7 296.8 141.8 297.5 142.1 298.2 142.4 298.8 142.8 299.3 143.3 299.8 143.8 300.2 144.4 300.5 145.1 300.7 145.8 300.9 146.6 300.9 147.4L300.9 147.4ZM299.3 147.4C299.3 146.7 299.2 146.1 299 145.5 298.8 145 298.5 144.5 298.2 144.1 297.8 143.7 297.4 143.5 296.9 143.2 296.4 143 295.8 142.9 295.2 142.9L292.5 142.9 292.5 151.9 295.2 151.9C295.8 151.9 296.4 151.8 296.9 151.6 297.4 151.4 297.8 151.1 298.2 150.7 298.5 150.3 298.8 149.9 299 149.3 299.2 148.8 299.3 148.1 299.3 147.4L299.3 147.4ZM305.5 153.2L303.9 153.2 303.9 141.7 305.5 141.7 305.5 153.2ZM318.7 153.2L317.5 153.2C317.3 153.2 317.2 153.1 317.1 153 317 153 317 152.9 316.9 152.8L315.9 150 310.7 150 309.6 152.8C309.6 152.9 309.5 153 309.5 153 309.4 153.1 309.2 153.2 309.1 153.2L307.9 153.2 312.5 141.7 314.1 141.7 318.7 153.2ZM311.1 148.9L315.4 148.9 313.6 144.2C313.5 143.9 313.4 143.6 313.3 143.2 313.2 143.4 313.2 143.6 313.1 143.8 313.1 143.9 313 144.1 312.9 144.2L311.1 148.9Z" fill="#BEC6D3"/>
      </g>
    </g>
  </g>
</svg>
