<?xml version="1.0" encoding="UTF-8" standalone="no"?>
<svg width="50px" height="50px" viewBox="0 0 50 50" version="1.1" xmlns="http://www.w3.org/2000/svg" xmlns:xlink="http://www.w3.org/1999/xlink">
    <defs></defs>
    <g stroke="none" stroke-width="1" fill="none" fill-rule="evenodd">
        <g transform="translate(-494.000000, -480.000000)">
            <g transform="translate(494.000000, 480.000000)">
                <rect fill="#FFFFFF" x="13.4447674" y="13.2994186" width="23.5465116" height="23.255814"></rect>
                <g transform="translate(25.019449, 24.997341) rotate(-45.000000) translate(-25.019449, -24.997341) translate(7.432240, 7.337457)">
                    <path d="M35.1636747,0.145348837 L35.1636747,20.2784339 L15.0305896,0.145348837 L35.1636747,0.145348837 L35.1636747,0.145348837 Z" fill="#F9E02D"></path>
                    <path d="M20.1929191,5.30767833 L15.0305896,0.145348837 L20.1929191,0.145348837 L20.1929191,5.30767833 Z" fill="#D0BB28"></path>
                    <path d="M0.0598341067,0.145348837 L0.0598341067,20.2784339 L20.1929191,0.145348837 L0.0598341067,0.145348837 L0.0598341067,0.145348837 Z" fill="#2AA7F0"></path>
                    <path d="M0.0598341067,15.1161044 L0.0598341067,20.2784339 L5.2221636,15.1161044 L0.0598341067,15.1161044 L0.0598341067,15.1161044 Z" fill="#258CCA"></path>
                    <path d="M0.0598341067,35.2491894 L20.1929191,35.2491894 L0.0598341067,15.1161044 L0.0598341067,35.2491894 L0.0598341067,35.2491894 Z" fill="#F0772A"></path>
                    <path d="M35.1636747,20.0203174 L35.1636747,35.2491894 L15.0305896,35.2491894 L32.5825099,17.6972691 L35.1636747,20.0203174 L35.1636747,20.0203174 Z" fill="#19D474"></path>
                    <path d="M17.6117544,32.6680247 L15.0305896,35.2491894 L15.0305896,30.0868599 L17.6117544,32.6680247 L17.6117544,32.6680247 Z" opacity="0.6" fill="#D96C27"></path>
                    <path d="M30.0829937,20.2162114 L32.6169485,17.6903863 L35.1401197,20.0161348 L30.0829937,20.2162114 L30.0829937,20.2162114 Z" fill="#16B263"></path>
                </g>
            </g>
        </g>
    </g>
</svg>