<svg xmlns="http://www.w3.org/2000/svg" xmlns:xlink="http://www.w3.org/1999/xlink" width="97" height="97" viewBox="0 0 97 97" version="1.1">
  <g stroke="none" stroke-width="1" fill="none" fill-rule="evenodd">
    <g transform="translate(-102.000000, -7675.000000)">
      <g transform="translate(102.500000, 7675.000000)">
        <g transform="translate(48.883883, 48.823223) rotate(-45.000000) translate(-48.883883, -48.823223) translate(14.383883, 14.323223)">
          <path d="M68 0L68 39 29 0 68 0 68 0Z" fill="#F9E02D"/>
          <path d="M39 0L39 10 29 0 39 0 39 0Z" fill="#F1C407"/>
          <path d="M0 0L0 39 39 0 0 0 0 0Z" fill="#2AA7F0"/>
          <path d="M0 29L0 39 10 29 0 29 0 29Z" fill="#066DE1"/>
          <path d="M0 68L39 68 0 29 0 68 0 68Z" fill="#F0772A"/>
          <path d="M68 38.5L68 68 29 68 63 34 68 38.5 68 38.5Z" fill="#19D474"/>
          <path d="M34 63L29 68 29 58 34 63 34 63Z" opacity="0.6" fill="#E75115"/>
          <path d="M63 34L68 38.5 58.5 38.5 63 34 63 34Z" fill="#02AE34"/>
        </g>
        <path d="M34 46.3C34 46.3 34.1 46.3 34.1 46.4L34.5 46.8C34.3 47 34 47.2 33.7 47.4 33.4 47.5 33.1 47.6 32.7 47.6 32.3 47.6 31.9 47.5 31.6 47.4 31.3 47.2 31.1 47.1 30.9 46.8 30.7 46.6 30.5 46.3 30.4 46 30.3 45.7 30.2 45.3 30.2 45 30.2 44.6 30.3 44.2 30.4 43.9 30.5 43.6 30.7 43.3 30.9 43.1 31.2 42.9 31.4 42.7 31.8 42.6 32.1 42.4 32.4 42.4 32.8 42.4 33.2 42.4 33.5 42.4 33.8 42.6 34.1 42.7 34.3 42.8 34.5 43L34.2 43.5C34.2 43.5 34.2 43.5 34.1 43.6 34.1 43.6 34.1 43.6 34 43.6 34 43.6 33.9 43.6 33.9 43.5 33.8 43.5 33.7 43.4 33.6 43.4 33.6 43.3 33.4 43.3 33.3 43.2 33.2 43.2 33 43.2 32.8 43.2 32.6 43.2 32.4 43.2 32.2 43.3 32 43.4 31.8 43.5 31.6 43.7 31.5 43.8 31.4 44 31.3 44.2 31.2 44.4 31.2 44.7 31.2 45 31.2 45.3 31.2 45.5 31.3 45.7 31.4 46 31.5 46.1 31.6 46.3 31.8 46.4 31.9 46.6 32.1 46.6 32.3 46.7 32.5 46.8 32.7 46.8 32.8 46.8 33 46.8 33.1 46.7 33.2 46.7 33.3 46.7 33.4 46.7 33.4 46.6 33.5 46.6 33.6 46.6 33.7 46.5 33.8 46.4 33.8 46.4 33.9 46.4 33.9 46.3 33.9 46.3 33.9 46.3 34 46.3 34 46.3L34 46.3ZM36.2 45.5L36.2 47.5 35.2 47.5 35.2 42.4 36.8 42.4C37.1 42.4 37.4 42.5 37.7 42.5 37.9 42.6 38.1 42.7 38.3 42.8 38.4 43 38.5 43.1 38.6 43.3 38.7 43.5 38.7 43.7 38.7 43.9 38.7 44.1 38.7 44.2 38.7 44.4 38.6 44.5 38.5 44.7 38.4 44.8 38.3 44.9 38.2 45 38.1 45.1 37.9 45.2 37.8 45.3 37.6 45.3 37.7 45.4 37.8 45.5 37.9 45.6L39.2 47.5 38.3 47.5C38.3 47.5 38.2 47.5 38.1 47.5 38.1 47.4 38 47.4 38 47.3L36.9 45.7C36.9 45.6 36.8 45.6 36.8 45.6 36.7 45.5 36.7 45.5 36.6 45.5L36.2 45.5ZM36.2 44.8L36.8 44.8C36.9 44.8 37.1 44.8 37.2 44.8 37.4 44.7 37.5 44.7 37.6 44.6 37.6 44.5 37.7 44.4 37.7 44.3 37.8 44.2 37.8 44.1 37.8 44 37.8 43.7 37.7 43.5 37.6 43.4 37.4 43.2 37.1 43.2 36.8 43.2L36.2 43.2 36.2 44.8ZM43 42.4L43 43.2 40.7 43.2 40.7 44.6 42.5 44.6 42.5 45.3 40.7 45.3 40.7 46.7 43 46.7 43 47.5 39.8 47.5 39.8 42.4 43 42.4ZM48.2 47.5L47.5 47.5C47.4 47.5 47.4 47.5 47.3 47.4 47.3 47.4 47.2 47.3 47.2 47.3L46.8 46.3 44.7 46.3 44.4 47.3C44.3 47.3 44.3 47.4 44.2 47.4 44.2 47.5 44.1 47.5 44 47.5L43.3 47.5 45.3 42.4 46.3 42.4 48.2 47.5ZM45 45.6L46.6 45.6 46 43.9C45.9 43.8 45.9 43.7 45.9 43.6 45.8 43.5 45.8 43.4 45.8 43.3 45.7 43.4 45.7 43.5 45.7 43.6 45.6 43.7 45.6 43.8 45.6 43.9L45 45.6ZM51.8 42.4L51.8 43.2 50.3 43.2 50.3 47.5 49.4 47.5 49.4 43.2 47.8 43.2 47.8 42.4 51.8 42.4ZM57 45C57 45.3 56.9 45.7 56.8 46 56.7 46.3 56.5 46.6 56.3 46.8 56.1 47.1 55.8 47.2 55.5 47.4 55.2 47.5 54.8 47.6 54.4 47.6 54.1 47.6 53.7 47.5 53.4 47.4 53.1 47.2 52.8 47.1 52.6 46.8 52.4 46.6 52.2 46.3 52.1 46 51.9 45.7 51.9 45.3 51.9 45 51.9 44.6 51.9 44.3 52.1 43.9 52.2 43.6 52.4 43.3 52.6 43.1 52.8 42.9 53.1 42.7 53.4 42.6 53.7 42.4 54.1 42.4 54.4 42.4 54.8 42.4 55.2 42.4 55.5 42.6 55.8 42.7 56.1 42.9 56.3 43.1 56.5 43.3 56.7 43.6 56.8 43.9 56.9 44.3 57 44.6 57 45L57 45ZM56 45C56 44.7 56 44.4 55.9 44.2 55.8 44 55.7 43.8 55.6 43.7 55.5 43.5 55.3 43.4 55.1 43.3 54.9 43.2 54.7 43.2 54.4 43.2 54.2 43.2 54 43.2 53.8 43.3 53.6 43.4 53.4 43.5 53.3 43.7 53.1 43.8 53 44 52.9 44.2 52.9 44.4 52.8 44.7 52.8 45 52.8 45.2 52.9 45.5 52.9 45.7 53 45.9 53.1 46.1 53.3 46.3 53.4 46.4 53.6 46.5 53.8 46.6 54 46.7 54.2 46.8 54.4 46.8 54.7 46.8 54.9 46.7 55.1 46.6 55.3 46.5 55.5 46.4 55.6 46.3 55.7 46.1 55.8 45.9 55.9 45.7 56 45.5 56 45.2 56 45L56 45ZM58.7 45.5L58.7 47.5 57.8 47.5 57.8 42.4 59.3 42.4C59.7 42.4 60 42.5 60.2 42.5 60.4 42.6 60.7 42.7 60.8 42.8 61 43 61.1 43.1 61.2 43.3 61.2 43.5 61.3 43.7 61.3 43.9 61.3 44.1 61.2 44.2 61.2 44.4 61.1 44.5 61.1 44.7 61 44.8 60.9 44.9 60.8 45 60.6 45.1 60.5 45.2 60.3 45.3 60.1 45.3 60.3 45.4 60.4 45.5 60.5 45.6L61.7 47.5 60.9 47.5C60.8 47.5 60.7 47.5 60.7 47.5 60.6 47.4 60.6 47.4 60.5 47.3L59.5 45.7C59.4 45.6 59.4 45.6 59.3 45.6 59.3 45.5 59.2 45.5 59.1 45.5L58.7 45.5ZM58.7 44.8L59.3 44.8C59.5 44.8 59.6 44.8 59.8 44.8 59.9 44.7 60 44.7 60.1 44.6 60.2 44.5 60.2 44.4 60.3 44.3 60.3 44.2 60.3 44.1 60.3 44 60.3 43.7 60.3 43.5 60.1 43.4 59.9 43.2 59.7 43.2 59.3 43.2L58.7 43.2 58.7 44.8ZM65 43.4C65 43.4 65 43.4 64.9 43.5 64.9 43.5 64.9 43.5 64.8 43.5 64.8 43.5 64.7 43.5 64.7 43.4 64.6 43.4 64.5 43.4 64.5 43.3 64.4 43.3 64.3 43.2 64.2 43.2 64.1 43.2 64 43.1 63.8 43.1 63.7 43.1 63.6 43.2 63.5 43.2 63.4 43.2 63.3 43.3 63.2 43.3 63.2 43.4 63.1 43.5 63.1 43.5 63 43.6 63 43.7 63 43.8 63 43.9 63.1 44 63.1 44.1 63.2 44.2 63.3 44.2 63.4 44.3 63.5 44.3 63.6 44.4 63.8 44.4 63.9 44.5 64 44.5 64.2 44.6 64.3 44.6 64.5 44.7 64.6 44.8 64.8 44.8 64.9 44.9 65 45 65.1 45.1 65.2 45.2 65.3 45.4 65.3 45.5 65.4 45.7 65.4 45.9 65.4 46.1 65.3 46.4 65.2 46.6 65.2 46.8 65.1 46.9 64.9 47.1 64.7 47.2 64.6 47.3 64.3 47.4 64.1 47.5 63.9 47.6 63.6 47.6 63.4 47.6 63.3 47.5 63.1 47.5 63 47.5 62.8 47.4 62.7 47.4 62.5 47.3 62.4 47.2 62.3 47.2 62.2 47.1 62 47 61.9 46.9L62.2 46.4C62.2 46.4 62.3 46.4 62.3 46.4 62.3 46.3 62.4 46.3 62.4 46.3 62.5 46.3 62.5 46.3 62.6 46.4 62.7 46.4 62.8 46.5 62.9 46.6 62.9 46.6 63.1 46.7 63.2 46.7 63.3 46.8 63.5 46.8 63.6 46.8 63.9 46.8 64.1 46.7 64.3 46.6 64.4 46.5 64.5 46.3 64.5 46 64.5 45.9 64.4 45.8 64.4 45.7 64.3 45.6 64.2 45.6 64.1 45.5 64 45.5 63.9 45.4 63.7 45.4 63.6 45.3 63.5 45.3 63.3 45.2 63.2 45.2 63 45.1 62.9 45.1 62.7 45 62.6 44.9 62.5 44.8 62.4 44.7 62.3 44.6 62.2 44.4 62.2 44.3 62.1 44.1 62.1 43.8 62.1 43.7 62.2 43.5 62.3 43.3 62.3 43.1 62.4 43 62.6 42.8 62.7 42.7 62.9 42.6 63.1 42.5 63.3 42.4 63.5 42.4 63.8 42.4 64.1 42.4 64.4 42.4 64.6 42.5 64.9 42.6 65.1 42.7 65.3 42.9L65 43.4Z" fill="#FFFFFF"/>
        <path d="M33.2 51.1C33.2 51.2 33.2 51.2 33.1 51.2 33.1 51.2 33 51.2 33 51.1 32.9 51.1 32.9 51 32.8 51 32.7 50.9 32.6 50.9 32.4 50.8 32.3 50.8 32.1 50.7 31.9 50.7 31.7 50.7 31.5 50.8 31.4 50.8 31.2 50.9 31.1 51 31 51.1 30.9 51.2 30.8 51.3 30.7 51.4 30.7 51.5 30.6 51.7 30.6 51.8 30.6 52 30.7 52.2 30.8 52.3 30.8 52.4 31 52.5 31.1 52.6 31.2 52.7 31.4 52.8 31.5 52.8 31.7 52.9 31.9 53 32.1 53 32.2 53.1 32.4 53.1 32.6 53.2 32.8 53.3 32.9 53.4 33 53.5 33.2 53.6 33.3 53.7 33.4 53.9 33.4 54 33.5 54.2 33.5 54.5 33.5 54.7 33.4 54.9 33.4 55.1 33.3 55.3 33.2 55.5 33 55.7 32.9 55.8 32.7 55.9 32.4 56 32.2 56.1 32 56.2 31.7 56.2 31.3 56.2 31 56.1 30.7 56 30.4 55.8 30.2 55.7 30 55.4L30.1 55.3C30.1 55.2 30.2 55.2 30.2 55.2 30.2 55.2 30.3 55.2 30.3 55.2 30.4 55.3 30.4 55.3 30.5 55.4 30.5 55.4 30.6 55.5 30.6 55.5 30.7 55.6 30.8 55.6 30.9 55.7 31 55.7 31.1 55.8 31.2 55.8 31.4 55.8 31.5 55.8 31.7 55.8 31.9 55.8 32.1 55.8 32.3 55.7 32.5 55.7 32.6 55.6 32.7 55.5 32.8 55.3 32.9 55.2 33 55 33.1 54.9 33.1 54.7 33.1 54.5 33.1 54.3 33.1 54.2 33 54 32.9 53.9 32.8 53.8 32.7 53.7 32.5 53.6 32.4 53.5 32.2 53.5 32 53.4 31.9 53.4 31.7 53.3 31.5 53.3 31.3 53.2 31.2 53.1 31 53.1 30.8 53 30.7 52.9 30.6 52.7 30.5 52.6 30.4 52.5 30.3 52.3 30.3 52.1 30.3 51.8 30.3 51.7 30.3 51.5 30.4 51.3 30.4 51.1 30.5 51 30.7 50.8 30.8 50.7 31 50.6 31.2 50.5 31.4 50.4 31.6 50.4 31.9 50.4 32.2 50.4 32.5 50.4 32.7 50.5 32.9 50.6 33.1 50.8 33.3 51L33.2 51.1ZM39.5 55.2C39.6 55.2 39.6 55.2 39.6 55.2L39.8 55.4C39.6 55.5 39.5 55.6 39.4 55.7 39.2 55.8 39.1 55.9 38.9 56 38.8 56 38.6 56.1 38.4 56.1 38.2 56.2 38 56.2 37.7 56.2 37.3 56.2 37 56.1 36.7 56 36.3 55.8 36.1 55.6 35.8 55.4 35.6 55.1 35.4 54.8 35.3 54.5 35.1 54.1 35.1 53.7 35.1 53.3 35.1 52.8 35.1 52.5 35.3 52.1 35.4 51.7 35.6 51.4 35.8 51.2 36.1 50.9 36.4 50.7 36.7 50.6 37.1 50.5 37.4 50.4 37.8 50.4 38.1 50.4 38.2 50.4 38.4 50.4 38.6 50.5 38.7 50.5 38.9 50.6 39 50.6 39.2 50.7 39.3 50.8 39.4 50.9 39.6 51 39.7 51.1L39.6 51.3C39.5 51.3 39.5 51.3 39.5 51.3 39.4 51.3 39.4 51.3 39.4 51.3 39.3 51.2 39.3 51.2 39.2 51.2 39.2 51.1 39.1 51.1 39 51 38.9 51 38.8 50.9 38.7 50.9 38.6 50.8 38.5 50.8 38.3 50.8 38.2 50.8 38 50.7 37.8 50.7 37.5 50.7 37.2 50.8 36.9 50.9 36.6 51 36.4 51.2 36.2 51.4 35.9 51.6 35.8 51.9 35.7 52.2 35.6 52.5 35.5 52.9 35.5 53.3 35.5 53.7 35.6 54 35.7 54.3 35.8 54.7 35.9 54.9 36.1 55.1 36.3 55.4 36.6 55.5 36.9 55.6 37.1 55.8 37.4 55.8 37.8 55.8 38 55.8 38.1 55.8 38.3 55.8 38.5 55.8 38.6 55.7 38.7 55.7 38.9 55.6 39 55.5 39.1 55.5 39.2 55.4 39.3 55.3 39.5 55.2 39.5 55.2 39.5 55.2 39.5 55.2 39.5 55.2 39.5 55.2 39.5 55.2L39.5 55.2ZM46.2 56.1L45.8 56.1 45.8 53.4 42.2 53.4 42.2 56.1 41.8 56.1 41.8 50.4 42.2 50.4 42.2 53.1 45.8 53.1 45.8 50.4 46.2 50.4 46.2 56.1ZM53.6 53.3C53.6 53.7 53.6 54.1 53.4 54.5 53.3 54.8 53.1 55.1 52.9 55.4 52.7 55.6 52.4 55.8 52 56 51.7 56.1 51.3 56.2 50.9 56.2 50.5 56.2 50.2 56.1 49.9 56 49.5 55.8 49.2 55.6 49 55.4 48.8 55.1 48.6 54.8 48.4 54.5 48.3 54.1 48.2 53.7 48.2 53.3 48.2 52.8 48.3 52.4 48.4 52.1 48.6 51.7 48.8 51.4 49 51.2 49.2 50.9 49.5 50.7 49.9 50.6 50.2 50.5 50.5 50.4 50.9 50.4 51.3 50.4 51.7 50.5 52 50.6 52.4 50.7 52.7 50.9 52.9 51.2 53.1 51.4 53.3 51.7 53.4 52.1 53.6 52.4 53.6 52.8 53.6 53.3L53.6 53.3ZM53.2 53.3C53.2 52.9 53.2 52.5 53.1 52.2 52.9 51.9 52.8 51.6 52.6 51.4 52.4 51.2 52.2 51 51.9 50.9 51.6 50.8 51.3 50.7 50.9 50.7 50.6 50.7 50.3 50.8 50 50.9 49.7 51 49.5 51.2 49.3 51.4 49.1 51.6 48.9 51.9 48.8 52.2 48.7 52.5 48.7 52.9 48.7 53.3 48.7 53.7 48.7 54 48.8 54.3 48.9 54.7 49.1 54.9 49.3 55.1 49.5 55.4 49.7 55.5 50 55.6 50.3 55.8 50.6 55.8 50.9 55.8 51.3 55.8 51.6 55.8 51.9 55.6 52.2 55.5 52.4 55.4 52.6 55.1 52.8 54.9 52.9 54.7 53.1 54.3 53.2 54 53.2 53.7 53.2 53.3L53.2 53.3ZM60.8 53.3C60.8 53.7 60.7 54.1 60.6 54.5 60.4 54.8 60.3 55.1 60 55.4 59.8 55.6 59.5 55.8 59.2 56 58.8 56.1 58.5 56.2 58.1 56.2 57.7 56.2 57.3 56.1 57 56 56.7 55.8 56.4 55.6 56.1 55.4 55.9 55.1 55.7 54.8 55.6 54.5 55.4 54.1 55.4 53.7 55.4 53.3 55.4 52.8 55.4 52.4 55.6 52.1 55.7 51.7 55.9 51.4 56.1 51.2 56.4 50.9 56.7 50.7 57 50.6 57.3 50.5 57.7 50.4 58.1 50.4 58.5 50.4 58.8 50.5 59.2 50.6 59.5 50.7 59.8 50.9 60 51.2 60.3 51.4 60.4 51.7 60.6 52.1 60.7 52.4 60.8 52.8 60.8 53.3L60.8 53.3ZM60.4 53.3C60.4 52.9 60.3 52.5 60.2 52.2 60.1 51.9 59.9 51.6 59.7 51.4 59.5 51.2 59.3 51 59 50.9 58.7 50.8 58.4 50.7 58.1 50.7 57.7 50.7 57.4 50.8 57.2 50.9 56.9 51 56.6 51.2 56.4 51.4 56.2 51.6 56.1 51.9 56 52.2 55.9 52.5 55.8 52.9 55.8 53.3 55.8 53.7 55.9 54 56 54.3 56.1 54.7 56.2 54.9 56.4 55.1 56.6 55.4 56.9 55.5 57.2 55.6 57.4 55.8 57.7 55.8 58.1 55.8 58.4 55.8 58.7 55.8 59 55.6 59.3 55.5 59.5 55.4 59.7 55.1 59.9 54.9 60.1 54.7 60.2 54.3 60.3 54 60.4 53.7 60.4 53.3L60.4 53.3ZM63.3 55.8L65.9 55.8 65.9 56.1 62.9 56.1 62.9 50.4 63.3 50.4 63.3 55.8Z" fill="#FFFFFF"/>
      </g>
    </g>
  </g>
</svg>
