<?xml version="1.0" encoding="UTF-8" standalone="no"?>
<svg width="193px" height="193px" viewBox="0 0 193 193" version="1.1" xmlns="http://www.w3.org/2000/svg" xmlns:xlink="http://www.w3.org/1999/xlink">
    <defs></defs>
    <g stroke="none" stroke-width="1" fill="none" fill-rule="evenodd">
        <g transform="translate(-548.000000, -692.000000)">
            <g transform="translate(548.000000, 691.000000)">
                <g transform="translate(97.060660, 97.646447) rotate(-45.000000) translate(-97.060660, -97.646447) translate(28.560660, 29.146447)">
                    <path d="M58,2.2595259e-12 L136,2.2595259e-12 L58,78 L58,2.2595259e-12 Z" fill="#F9E02D" transform="translate(97.000000, 39.000000) rotate(-270.000000) translate(-97.000000, -39.000000) "></path>
                    <path d="M58,2.14583906e-12 L78,2.14543332e-12 L58,20 L58,2.14583906e-12 Z" fill="#F1C407" transform="translate(68.000000, 10.000000) rotate(-270.000000) translate(-68.000000, -10.000000) "></path>
                    <path d="M2.2595259e-12,2.18847163e-12 L78,2.18847163e-12 L2.2595259e-12,78 L2.2595259e-12,2.18847163e-12 Z" fill="#2AA7F0" transform="translate(39.000000, 39.000000) scale(-1, 1) rotate(-270.000000) translate(-39.000000, -39.000000) "></path>
                    <path d="M1.63424829e-12,58 L20,58 L1.63443199e-12,78 L1.63424829e-12,58 Z" fill="#066DE1" transform="translate(10.000000, 68.000000) scale(-1, 1) rotate(-270.000000) translate(-10.000000, -68.000000) "></path>
                    <path d="M1.63424829e-12,58 L78,58 L1.63424829e-12,136 L1.63424829e-12,58 Z" fill="#F0772A" transform="translate(39.000000, 97.000000) scale(-1, 1) rotate(-180.000000) translate(-39.000000, -97.000000) "></path>
                    <path d="M58,127 L58,68 L136,68 L68,136 L58,127 Z" fill="#2AF08B" transform="translate(97.000000, 102.000000) rotate(-180.000000) translate(-97.000000, -102.000000) "></path>
                    <path d="M58,126 L68,116 L68,136 L58,126 Z" fill="#E75115" transform="translate(63.000000, 126.000000) rotate(-180.000000) translate(-63.000000, -126.000000) "></path>
                    <path d="M119.696699,70.9540585 L133.232233,70.2469517 L119.696699,83.6819805 L119.696699,70.9540585 Z" fill="#06E14B" transform="translate(126.464466, 76.964466) rotate(-315.000000) translate(-126.464466, -76.964466) "></path>
                </g>
                <path d="M67.98,92.613 C68.0826672,92.613 68.171333,92.6526663 68.246,92.732 L68.988,93.537 C68.5773313,94.0456692 68.0721697,94.435332 67.4725,94.706 C66.8728303,94.976668 66.1530042,95.112 65.313,95.112 C64.5616629,95.112 63.8861697,94.9836679 63.2865,94.727 C62.6868303,94.470332 62.1746688,94.1133356 61.75,93.656 C61.3253312,93.1986644 60.9998345,92.6526698 60.7735,92.018 C60.5471655,91.3833302 60.434,90.6903371 60.434,89.939 C60.434,89.1783295 60.5599987,88.4818365 60.812,87.8495 C61.0640013,87.2171635 61.4186644,86.6723356 61.876,86.215 C62.3333356,85.7576644 62.8804968,85.4018346 63.5175,85.1475 C64.1545032,84.8931654 64.8579962,84.766 65.628,84.766 C66.3793371,84.766 67.0361639,84.8861655 67.5985,85.1265 C68.1608361,85.3668345 68.6426647,85.6853313 69.044,86.082 L68.414,86.957 C68.3766665,87.0130003 68.3288336,87.0619998 68.2705,87.104 C68.2121664,87.1460002 68.1316672,87.167 68.029,87.167 C67.9216661,87.167 67.8120006,87.1250004 67.7,87.041 C67.5879994,86.9569996 67.4456675,86.8660005 67.273,86.768 C67.1003325,86.6699995 66.882168,86.5790004 66.6185,86.495 C66.354832,86.4109996 66.020002,86.369 65.614,86.369 C65.1379976,86.369 64.700502,86.4518325 64.3015,86.6175 C63.902498,86.7831675 63.5595014,87.0199985 63.2725,87.328 C62.9854986,87.6360015 62.7615008,88.0104978 62.6005,88.4515 C62.4394992,88.8925022 62.359,89.3883306 62.359,89.939 C62.359,90.5083362 62.4394992,91.0146644 62.6005,91.458 C62.7615008,91.9013355 62.9796653,92.2746651 63.255,92.578 C63.5303347,92.8813348 63.8546648,93.1134992 64.228,93.2745 C64.6013352,93.4355008 65.0026645,93.516 65.432,93.516 C65.688668,93.516 65.9208323,93.5020001 66.1285,93.474 C66.3361677,93.4459999 66.5274991,93.401667 66.7025,93.341 C66.8775009,93.280333 67.0431659,93.2021671 67.1995,93.1065 C67.3558341,93.0108329 67.5109992,92.8930007 67.665,92.753 C67.7116669,92.7109998 67.7606664,92.6771668 67.812,92.6515 C67.8633336,92.6258332 67.919333,92.613 67.98,92.613 L67.98,92.613 Z M72.355,91.045 L72.355,95 L70.472,95 L70.472,84.878 L73.559,84.878 C74.2496701,84.878 74.8411642,84.949166 75.3335,85.0915 C75.8258358,85.233834 76.2294984,85.433332 76.5445,85.69 C76.8595016,85.9466679 77.0904993,86.2534982 77.2375,86.6105 C77.3845007,86.9675018 77.458,87.3606645 77.458,87.79 C77.458,88.1306684 77.4078338,88.4526651 77.3075,88.756 C77.2071662,89.0593348 77.0625009,89.3346654 76.8735,89.582 C76.6844991,89.8293346 76.4511681,90.0463324 76.1735,90.233 C75.8958319,90.4196676 75.5796684,90.5689994 75.225,90.681 C75.4630012,90.816334 75.6683325,91.0099987 75.841,91.262 L78.375,95 L76.681,95 C76.5176659,95 76.3788339,94.9673337 76.2645,94.902 C76.1501661,94.8366663 76.0533337,94.7433339 75.974,94.622 L73.846,91.381 C73.7666663,91.2596661 73.6791671,91.1733336 73.5835,91.122 C73.4878329,91.0706664 73.3466676,91.045 73.16,91.045 L72.355,91.045 Z M72.355,89.694 L73.531,89.694 C73.8856684,89.694 74.194832,89.6496671 74.4585,89.561 C74.722168,89.4723329 74.9391658,89.3498341 75.1095,89.1935 C75.2798342,89.0371659 75.4069996,88.8516677 75.491,88.637 C75.5750004,88.4223323 75.617,88.1866679 75.617,87.93 C75.617,87.4166641 75.447835,87.0223347 75.1095,86.747 C74.771165,86.4716653 74.2543368,86.334 73.559,86.334 L72.355,86.334 L72.355,89.694 Z M85.963,84.878 L85.963,86.376 L81.476,86.376 L81.476,89.183 L85.011,89.183 L85.011,90.632 L81.476,90.632 L81.476,93.495 L85.963,93.495 L85.963,95 L79.579,95 L79.579,84.878 L85.963,84.878 Z M96.491,95 L95.035,95 C94.8716659,95 94.7375005,94.9591671 94.6325,94.8775 C94.5274995,94.7958329 94.4516669,94.6943339 94.405,94.573 L93.649,92.508 L89.456,92.508 L88.7,94.573 C88.6626665,94.6803339 88.5891672,94.7783329 88.4795,94.867 C88.3698328,94.9556671 88.2356675,95 88.077,95 L86.614,95 L90.59,84.878 L92.515,84.878 L96.491,95 Z M89.939,91.178 L93.166,91.178 L91.934,87.811 C91.8779997,87.6616659 91.816167,87.485501 91.7485,87.2825 C91.680833,87.079499 91.6143337,86.8590012 91.549,86.621 C91.4836663,86.8590012 91.4195003,87.0806656 91.3565,87.286 C91.2934997,87.4913344 91.231667,87.6709992 91.171,87.825 L89.939,91.178 Z M103.638,84.878 L103.638,86.425 L100.593,86.425 L100.593,95 L98.71,95 L98.71,86.425 L95.651,86.425 L95.651,84.878 L103.638,84.878 Z M113.998,89.939 C113.998,90.6810037 113.874335,91.3681635 113.627,92.0005 C113.379665,92.6328365 113.032002,93.1799977 112.584,93.642 C112.135998,94.1040023 111.597003,94.4644987 110.967,94.7235 C110.336997,94.9825013 109.639337,95.112 108.874,95.112 C108.108663,95.112 107.409836,94.9825013 106.7775,94.7235 C106.145164,94.4644987 105.603836,94.1040023 105.1535,93.642 C104.703164,93.1799977 104.354335,92.6328365 104.107,92.0005 C103.859665,91.3681635 103.736,90.6810037 103.736,89.939 C103.736,89.1969963 103.859665,88.5098365 104.107,87.8775 C104.354335,87.2451635 104.703164,86.6980023 105.1535,86.236 C105.603836,85.7739977 106.145164,85.4135013 106.7775,85.1545 C107.409836,84.8954987 108.108663,84.766 108.874,84.766 C109.639337,84.766 110.336997,84.8966654 110.967,85.158 C111.597003,85.4193346 112.135998,85.779831 112.584,86.2395 C113.032002,86.699169 113.379665,87.2451635 113.627,87.8775 C113.874335,88.5098365 113.998,89.1969963 113.998,89.939 L113.998,89.939 Z M112.066,89.939 C112.066,89.3836639 111.992501,88.8855022 111.8455,88.4445 C111.698499,88.0034978 111.487335,87.6290015 111.212,87.321 C110.936665,87.0129985 110.601835,86.7773341 110.2075,86.614 C109.813165,86.4506658 109.368669,86.369 108.874,86.369 C108.379331,86.369 107.933669,86.4506658 107.537,86.614 C107.140331,86.7773341 106.803168,87.0129985 106.5255,87.321 C106.247832,87.6290015 106.034334,88.0034978 105.885,88.4445 C105.735666,88.8855022 105.661,89.3836639 105.661,89.939 C105.661,90.4943361 105.735666,90.9924978 105.885,91.4335 C106.034334,91.8745022 106.247832,92.2478318 106.5255,92.5535 C106.803168,92.8591682 107.140331,93.0936658 107.537,93.257 C107.933669,93.4203341 108.379331,93.502 108.874,93.502 C109.368669,93.502 109.813165,93.4203341 110.2075,93.257 C110.601835,93.0936658 110.936665,92.8591682 111.212,92.5535 C111.487335,92.2478318 111.698499,91.8745022 111.8455,91.4335 C111.992501,90.9924978 112.066,90.4943361 112.066,89.939 L112.066,89.939 Z M117.428,91.045 L117.428,95 L115.545,95 L115.545,84.878 L118.632,84.878 C119.32267,84.878 119.914164,84.949166 120.4065,85.0915 C120.898836,85.233834 121.302498,85.433332 121.6175,85.69 C121.932502,85.9466679 122.163499,86.2534982 122.3105,86.6105 C122.457501,86.9675018 122.531,87.3606645 122.531,87.79 C122.531,88.1306684 122.480834,88.4526651 122.3805,88.756 C122.280166,89.0593348 122.135501,89.3346654 121.9465,89.582 C121.757499,89.8293346 121.524168,90.0463324 121.2465,90.233 C120.968832,90.4196676 120.652668,90.5689994 120.298,90.681 C120.536001,90.816334 120.741332,91.0099987 120.914,91.262 L123.448,95 L121.754,95 C121.590666,95 121.451834,94.9673337 121.3375,94.902 C121.223166,94.8366663 121.126334,94.7433339 121.047,94.622 L118.919,91.381 C118.839666,91.2596661 118.752167,91.1733336 118.6565,91.122 C118.560833,91.0706664 118.419668,91.045 118.233,91.045 L117.428,91.045 Z M117.428,89.694 L118.604,89.694 C118.958668,89.694 119.267832,89.6496671 119.5315,89.561 C119.795168,89.4723329 120.012166,89.3498341 120.1825,89.1935 C120.352834,89.0371659 120.48,88.8516677 120.564,88.637 C120.648,88.4223323 120.69,88.1866679 120.69,87.93 C120.69,87.4166641 120.520835,87.0223347 120.1825,86.747 C119.844165,86.4716653 119.327337,86.334 118.632,86.334 L117.428,86.334 L117.428,89.694 Z M130.077,86.719 C130.025666,86.8216672 129.966167,86.8939998 129.8985,86.936 C129.830833,86.9780002 129.750334,86.999 129.657,86.999 C129.563666,86.999 129.458667,86.9628337 129.342,86.8905 C129.225333,86.8181663 129.087667,86.7376671 128.929,86.649 C128.770333,86.5603329 128.584834,86.4798337 128.3725,86.4075 C128.160166,86.3351663 127.909335,86.299 127.62,86.299 C127.358665,86.299 127.131168,86.3304997 126.9375,86.3935 C126.743832,86.4565003 126.580501,86.5439994 126.4475,86.656 C126.314499,86.7680006 126.215334,86.9021659 126.15,87.0585 C126.084666,87.2148341 126.052,87.3863324 126.052,87.573 C126.052,87.8110012 126.118499,88.0093325 126.2515,88.168 C126.384501,88.3266675 126.560666,88.4619994 126.78,88.574 C126.999334,88.6860006 127.248999,88.7863329 127.529,88.875 C127.809001,88.9636671 128.094832,89.0581662 128.3865,89.1585 C128.678168,89.2588338 128.963999,89.3754993 129.244,89.5085 C129.524001,89.6415007 129.773666,89.809499 129.993,90.0125 C130.212334,90.215501 130.388499,90.4639985 130.5215,90.758 C130.654501,91.0520015 130.721,91.4089979 130.721,91.829 C130.721,92.2863356 130.642834,92.714498 130.4865,93.1135 C130.330166,93.512502 130.101502,93.8601652 129.8005,94.1565 C129.499498,94.4528348 129.132002,94.6861658 128.698,94.8565 C128.263998,95.0268342 127.767003,95.112 127.207,95.112 C126.884998,95.112 126.567668,95.0805003 126.255,95.0175 C125.942332,94.9544997 125.642501,94.8646672 125.3555,94.748 C125.068499,94.6313327 124.800168,94.4913341 124.5505,94.328 C124.300832,94.1646658 124.078001,93.9826677 123.882,93.782 L124.428,92.879 C124.479334,92.8136663 124.541166,92.7588336 124.6135,92.7145 C124.685834,92.6701664 124.766333,92.648 124.855,92.648 C124.971667,92.648 125.097666,92.6958329 125.233,92.7915 C125.368334,92.8871671 125.528166,92.9933327 125.7125,93.11 C125.896834,93.2266672 126.113832,93.3328329 126.3635,93.4285 C126.613168,93.5241671 126.912998,93.572 127.263,93.572 C127.799669,93.572 128.214999,93.4448346 128.509,93.1905 C128.803001,92.9361654 128.95,92.5710024 128.95,92.095 C128.95,91.8289987 128.883501,91.6120008 128.7505,91.444 C128.617499,91.2759992 128.441334,91.1348339 128.222,91.0205 C128.002666,90.9061661 127.753001,90.8093337 127.473,90.73 C127.192999,90.6506663 126.908335,90.5643338 126.619,90.471 C126.329665,90.3776662 126.045001,90.2656673 125.765,90.135 C125.484999,90.0043327 125.235334,89.834001 125.016,89.624 C124.796666,89.4139989 124.620501,89.1515016 124.4875,88.8365 C124.354499,88.5214984 124.288,88.1330023 124.288,87.671 C124.288,87.3023315 124.361499,86.9430017 124.5085,86.593 C124.655501,86.2429982 124.870165,85.932668 125.1525,85.662 C125.434835,85.391332 125.781331,85.1743341 126.192,85.011 C126.602669,84.8476658 127.071664,84.766 127.599,84.766 C128.196336,84.766 128.746997,84.8593324 129.251,85.046 C129.755003,85.2326676 130.184332,85.4939983 130.539,85.83 L130.077,86.719 Z" fill="#FFFFFF"></path>
                <path d="M66.4535149,102.273514 C66.4055146,102.364182 66.336182,102.409514 66.2455149,102.409514 C66.1761812,102.409514 66.0868487,102.360182 65.9775149,102.261514 C65.868181,102.162847 65.7201825,102.053515 65.5335149,101.933514 C65.3468473,101.813514 65.1135163,101.702848 64.8335149,101.601514 C64.5535135,101.500181 64.2081836,101.449514 63.7975149,101.449514 C63.3868461,101.449514 63.0255164,101.50818 62.7135149,101.625514 C62.4015133,101.742848 62.1401826,101.902847 61.9295149,102.105514 C61.7188471,102.308182 61.5588487,102.542846 61.4495149,102.809514 C61.340181,103.076182 61.2855149,103.35618 61.2855149,103.649514 C61.2855149,104.033516 61.3668474,104.350846 61.5295149,104.601514 C61.6921823,104.852182 61.9068469,105.065514 62.1735149,105.241514 C62.4401829,105.417515 62.7428465,105.565514 63.0815149,105.685514 C63.4201832,105.805515 63.7681797,105.92418 64.1255149,106.041514 C64.48285,106.158848 64.8308465,106.28818 65.1695149,106.429514 C65.5081832,106.570848 65.8108469,106.74818 66.0775149,106.961514 C66.3441829,107.174849 66.5588474,107.437513 66.7215149,107.749514 C66.8841823,108.061516 66.9655149,108.449512 66.9655149,108.913514 C66.9655149,109.388183 66.8841823,109.834846 66.7215149,110.253514 C66.5588474,110.672183 66.3228497,111.03618 66.0135149,111.345514 C65.70418,111.654849 65.3255171,111.898847 64.8775149,112.077514 C64.4295126,112.256182 63.9175177,112.345514 63.3415149,112.345514 C62.5948445,112.345514 61.9521842,112.213516 61.4135149,111.949514 C60.8748455,111.685513 60.4028502,111.324183 59.9975149,110.865514 L60.2215149,110.513514 C60.2855152,110.433514 60.3601811,110.393514 60.4455149,110.393514 C60.4935151,110.393514 60.5548478,110.425514 60.6295149,110.489514 C60.7041819,110.553515 60.7948477,110.632181 60.9015149,110.725514 C61.0081821,110.818848 61.1361808,110.920181 61.2855149,111.029514 C61.4348489,111.138848 61.6081805,111.240181 61.8055149,111.333514 C62.0028492,111.426848 62.2295136,111.505514 62.4855149,111.569514 C62.7415161,111.633515 63.0321799,111.665514 63.3575149,111.665514 C63.8055171,111.665514 64.2055131,111.597515 64.5575149,111.461514 C64.9095166,111.325514 65.206847,111.140182 65.4495149,110.905514 C65.6921827,110.670847 65.8775142,110.392183 66.0055149,110.069514 C66.1335155,109.746846 66.1975149,109.401516 66.1975149,109.033514 C66.1975149,108.633512 66.1161823,108.304182 65.9535149,108.045514 C65.7908474,107.786846 65.5761829,107.570849 65.3095149,107.397514 C65.0428469,107.22418 64.7401832,107.078848 64.4015149,106.961514 C64.0628465,106.84418 63.71485,106.729515 63.3575149,106.617514 C63.0001797,106.505514 62.6521832,106.380182 62.3135149,106.241514 C61.9748465,106.102847 61.6721829,105.925515 61.4055149,105.709514 C61.1388469,105.493513 60.9241823,105.224183 60.7615149,104.901514 C60.5988474,104.578846 60.5175149,104.17485 60.5175149,103.689514 C60.5175149,103.310846 60.5895141,102.945516 60.7335149,102.593514 C60.8775156,102.241513 61.0881801,101.930849 61.3655149,101.661514 C61.6428496,101.39218 61.9855128,101.176182 62.3935149,101.013514 C62.8015169,100.850847 63.2668456,100.769514 63.7895149,100.769514 C64.3761845,100.769514 64.9028459,100.862847 65.3695149,101.049514 C65.8361839,101.236182 66.2615129,101.521512 66.6455149,101.905514 L66.4535149,102.273514 Z M79.0655149,110.313514 C79.1188485,110.313514 79.1641813,110.332181 79.2015149,110.369514 L79.5215149,110.713514 C79.286847,110.964182 79.0308496,111.189513 78.7535149,111.389514 C78.4761801,111.589515 78.1735165,111.76018 77.8455149,111.901514 C77.5175132,112.042848 77.1575168,112.152181 76.7655149,112.229514 C76.3735129,112.306848 75.9428505,112.345514 75.4735149,112.345514 C74.6895109,112.345514 73.9708515,112.208182 73.3175149,111.933514 C72.6641783,111.658846 72.1041839,111.269517 71.6375149,110.765514 C71.1708459,110.261512 70.8068495,109.652185 70.5455149,108.937514 C70.2841802,108.222844 70.1535149,107.428185 70.1535149,106.553514 C70.1535149,105.694843 70.2881802,104.910851 70.5575149,104.201514 C70.8268495,103.492178 71.2055124,102.88285 71.6935149,102.373514 C72.1815173,101.864179 72.7655115,101.469516 73.4455149,101.189514 C74.1255183,100.909513 74.8761774,100.769514 75.6975149,100.769514 C76.1081836,100.769514 76.4841798,100.800181 76.8255149,100.861514 C77.1668499,100.922848 77.4855134,101.010847 77.7815149,101.125514 C78.0775163,101.240182 78.3561802,101.382847 78.6175149,101.553514 C78.8788495,101.724182 79.1348469,101.921513 79.3855149,102.145514 L79.1375149,102.505514 C79.094848,102.569515 79.028182,102.601514 78.9375149,102.601514 C78.8895146,102.601514 78.8281819,102.573515 78.7535149,102.517514 C78.6788478,102.461514 78.5841821,102.392181 78.4695149,102.309514 C78.3548476,102.226847 78.2161823,102.136182 78.0535149,102.037514 C77.8908474,101.938847 77.697516,101.848181 77.4735149,101.765514 C77.2495137,101.682847 76.9908497,101.613515 76.6975149,101.557514 C76.4041801,101.501514 76.0708501,101.473514 75.6975149,101.473514 C75.0095114,101.473514 74.3775177,101.59218 73.8015149,101.829514 C73.225512,102.066849 72.7295169,102.405512 72.3135149,102.845514 C71.8975128,103.285517 71.573516,103.818845 71.3415149,104.445514 C71.1095137,105.072184 70.9935149,105.774844 70.9935149,106.553514 C70.9935149,107.353518 71.1081804,108.068178 71.3375149,108.697514 C71.5668493,109.326851 71.8841795,109.858846 72.2895149,110.293514 C72.6948502,110.728183 73.1735121,111.061513 73.7255149,111.293514 C74.2775176,111.525516 74.8761783,111.641514 75.5215149,111.641514 C75.9268502,111.641514 76.2881799,111.614848 76.6055149,111.561514 C76.9228498,111.508181 77.2148469,111.428182 77.4815149,111.321514 C77.7481829,111.214847 77.9961804,111.084182 78.2255149,110.929514 C78.4548493,110.774847 78.6815137,110.593515 78.9055149,110.385514 C78.9321817,110.364181 78.9575147,110.346848 78.9815149,110.333514 C79.005515,110.320181 79.0335147,110.313514 79.0655149,110.313514 L79.0655149,110.313514 Z M92.3335149,112.217514 L91.5095149,112.217514 L91.5095149,106.793514 L84.4215149,106.793514 L84.4215149,112.217514 L83.5975149,112.217514 L83.5975149,100.897514 L84.4215149,100.897514 L84.4215149,106.177514 L91.5095149,106.177514 L91.5095149,100.897514 L92.3335149,100.897514 L92.3335149,112.217514 Z M107.289515,106.553514 C107.289515,107.428185 107.158849,108.221511 106.897515,108.933514 C106.63618,109.645518 106.268184,110.253512 105.793515,110.757514 C105.318846,111.261517 104.750851,111.650846 104.089515,111.925514 C103.428178,112.200182 102.694852,112.337514 101.889515,112.337514 C101.094844,112.337514 100.366851,112.200182 99.7055149,111.925514 C99.0441782,111.650846 98.4761839,111.261517 98.0015149,110.757514 C97.5268458,110.253512 97.1575162,109.645518 96.8935149,108.933514 C96.6295135,108.221511 96.4975149,107.428185 96.4975149,106.553514 C96.4975149,105.684177 96.6295135,104.893518 96.8935149,104.181514 C97.1575162,103.469511 97.5268458,102.861517 98.0015149,102.357514 C98.4761839,101.853512 99.0441782,101.462849 99.7055149,101.185514 C100.366851,100.90818 101.094844,100.769514 101.889515,100.769514 C102.694852,100.769514 103.428178,100.906846 104.089515,101.181514 C104.750851,101.456182 105.318846,101.846845 105.793515,102.353514 C106.268184,102.860184 106.63618,103.469511 106.897515,104.181514 C107.158849,104.893518 107.289515,105.684177 107.289515,106.553514 L107.289515,106.553514 Z M106.441515,106.553514 C106.441515,105.764177 106.332183,105.054851 106.113515,104.425514 C105.894847,103.796178 105.58685,103.26285 105.189515,102.825514 C104.79218,102.388179 104.313518,102.053516 103.753515,101.821514 C103.193512,101.589513 102.572185,101.473514 101.889515,101.473514 C101.217511,101.473514 100.602851,101.589513 100.045515,101.821514 C99.4881787,102.053516 99.0081835,102.388179 98.6055149,102.825514 C98.2028462,103.26285 97.8908493,103.796178 97.6695149,104.425514 C97.4481804,105.054851 97.3375149,105.764177 97.3375149,106.553514 C97.3375149,107.348185 97.4481804,108.058845 97.6695149,108.685514 C97.8908493,109.312184 98.2028462,109.844179 98.6055149,110.281514 C99.0081835,110.71885 99.4881787,111.05218 100.045515,111.281514 C100.602851,111.510849 101.217511,111.625514 101.889515,111.625514 C102.572185,111.625514 103.193512,111.510849 103.753515,111.281514 C104.313518,111.05218 104.79218,110.71885 105.189515,110.281514 C105.58685,109.844179 105.894847,109.312184 106.113515,108.685514 C106.332183,108.058845 106.441515,107.348185 106.441515,106.553514 L106.441515,106.553514 Z M121.549515,106.553514 C121.549515,107.428185 121.418849,108.221511 121.157515,108.933514 C120.89618,109.645518 120.528184,110.253512 120.053515,110.757514 C119.578846,111.261517 119.010851,111.650846 118.349515,111.925514 C117.688178,112.200182 116.954852,112.337514 116.149515,112.337514 C115.354844,112.337514 114.626851,112.200182 113.965515,111.925514 C113.304178,111.650846 112.736184,111.261517 112.261515,110.757514 C111.786846,110.253512 111.417516,109.645518 111.153515,108.933514 C110.889514,108.221511 110.757515,107.428185 110.757515,106.553514 C110.757515,105.684177 110.889514,104.893518 111.153515,104.181514 C111.417516,103.469511 111.786846,102.861517 112.261515,102.357514 C112.736184,101.853512 113.304178,101.462849 113.965515,101.185514 C114.626851,100.90818 115.354844,100.769514 116.149515,100.769514 C116.954852,100.769514 117.688178,100.906846 118.349515,101.181514 C119.010851,101.456182 119.578846,101.846845 120.053515,102.353514 C120.528184,102.860184 120.89618,103.469511 121.157515,104.181514 C121.418849,104.893518 121.549515,105.684177 121.549515,106.553514 L121.549515,106.553514 Z M120.701515,106.553514 C120.701515,105.764177 120.592183,105.054851 120.373515,104.425514 C120.154847,103.796178 119.84685,103.26285 119.449515,102.825514 C119.05218,102.388179 118.573518,102.053516 118.013515,101.821514 C117.453512,101.589513 116.832185,101.473514 116.149515,101.473514 C115.477511,101.473514 114.862851,101.589513 114.305515,101.821514 C113.748179,102.053516 113.268184,102.388179 112.865515,102.825514 C112.462846,103.26285 112.150849,103.796178 111.929515,104.425514 C111.70818,105.054851 111.597515,105.764177 111.597515,106.553514 C111.597515,107.348185 111.70818,108.058845 111.929515,108.685514 C112.150849,109.312184 112.462846,109.844179 112.865515,110.281514 C113.268184,110.71885 113.748179,111.05218 114.305515,111.281514 C114.862851,111.510849 115.477511,111.625514 116.149515,111.625514 C116.832185,111.625514 117.453512,111.510849 118.013515,111.281514 C118.573518,111.05218 119.05218,110.71885 119.449515,110.281514 C119.84685,109.844179 120.154847,109.312184 120.373515,108.685514 C120.592183,108.058845 120.701515,107.348185 120.701515,106.553514 L120.701515,106.553514 Z M126.529515,111.521514 L131.897515,111.521514 L131.897515,112.217514 L125.713515,112.217514 L125.713515,100.897514 L126.529515,100.897514 L126.529515,111.521514 Z" fill="#FFFFFF"></path>
            </g>
        </g>
    </g>
</svg>