<?xml version="1.0" encoding="UTF-8" standalone="no"?>
<svg width="97px" height="97px" viewBox="0 0 342 343" version="1.1" xmlns="http://www.w3.org/2000/svg" xmlns:xlink="http://www.w3.org/1999/xlink">
    <defs></defs>
    <g stroke="none" stroke-width="1" fill="none" fill-rule="evenodd">
        <g transform="translate(-408.000000, -205.000000)">
            <g transform="translate(406.500000, 204.500000)">
                <rect fill="#FFFFFF" x="92.5" y="91.5" width="162" height="160"></rect>
                <g transform="translate(172.133811, 171.981704) rotate(-45.000000) translate(-172.133811, -171.981704) translate(51.133811, 50.481704)">
                    <path d="M241.926082,1 L241.926082,139.515625 L103.410457,1 L241.926082,1 L241.926082,1 Z" fill="#F9E02D"></path>
                    <path d="M138.927284,36.5168269 L103.410457,1 L138.927284,1 L138.927284,36.5168269 Z" fill="#D0BB28"></path>
                    <path d="M0.411658654,1 L0.411658654,139.515625 L138.927284,1 L0.411658654,1 L0.411658654,1 Z" fill="#2AA7F0"></path>
                    <path d="M0.411658654,103.998798 L0.411658654,139.515625 L35.9284856,103.998798 L0.411658654,103.998798 L0.411658654,103.998798 Z" fill="#258CCA"></path>
                    <path d="M0.411658654,242.514423 L138.927284,242.514423 L0.411658654,103.998798 L0.411658654,242.514423 L0.411658654,242.514423 Z" fill="#F0772A"></path>
                    <path d="M241.926082,137.739784 L241.926082,242.514423 L103.410457,242.514423 L224.167668,121.757212 L241.926082,137.739784 L241.926082,137.739784 Z" fill="#19D474"></path>
                    <path d="M121.16887,224.75601 L103.410457,242.514423 L103.410457,206.997596 L121.16887,224.75601 L121.16887,224.75601 Z" opacity="0.6" fill="#D96C27"></path>
                    <path d="M206.970997,139.087534 L224.404606,121.709858 L241.764024,137.711007 L206.970997,139.087534 L206.970997,139.087534 Z" fill="#16B263"></path>
                </g>
                <path d="M122.254156,163.247265 C122.436465,163.247265 122.59391,163.318288 122.726498,163.460336 L124.044083,164.901698 C123.31485,165.812476 122.417824,166.510172 121.352978,166.994807 C120.288132,167.479441 119.009922,167.721755 117.518309,167.721755 C116.184144,167.721755 114.984657,167.491975 113.919811,167.032408 C112.854965,166.572841 111.945509,165.933634 111.191416,165.114769 C110.437323,164.295904 109.859331,163.318294 109.457425,162.18191 C109.055518,161.045526 108.854567,159.804713 108.854567,158.459435 C108.854567,157.097445 109.078306,155.850366 109.52579,154.71816 C109.973274,153.585954 110.603056,152.610433 111.415157,151.791568 C112.227257,150.972703 113.198863,150.335585 114.330002,149.880196 C115.461142,149.424807 116.710349,149.197115 118.077661,149.197115 C119.411826,149.197115 120.578167,149.412273 121.576719,149.842595 C122.575271,150.272917 123.430864,150.843189 124.143523,151.553429 L123.024819,153.120128 C122.958525,153.220397 122.873587,153.308131 122.770003,153.383333 C122.666419,153.458535 122.523475,153.496135 122.341167,153.496135 C122.150572,153.496135 121.955836,153.420934 121.756955,153.270531 C121.558073,153.120127 121.305331,152.957192 120.998722,152.781721 C120.692112,152.60625 120.304713,152.443315 119.836512,152.292911 C119.368312,152.142507 118.773747,152.067306 118.052801,152.067306 C117.207554,152.067306 116.430684,152.215619 115.722167,152.512249 C115.013651,152.808878 114.404585,153.232927 113.894951,153.784408 C113.385316,154.335888 112.987559,155.006428 112.701666,155.796048 C112.415774,156.585668 112.27283,157.473455 112.27283,158.459435 C112.27283,159.478838 112.415774,160.385425 112.701666,161.179223 C112.987559,161.973021 113.374958,162.641472 113.863876,163.184597 C114.352793,163.727722 114.928713,164.143415 115.591652,164.431689 C116.254591,164.719963 116.96724,164.864097 117.72962,164.864097 C118.18539,164.864097 118.597649,164.83903 118.966409,164.788896 C119.335169,164.738761 119.67492,164.659383 119.985673,164.550758 C120.296426,164.442133 120.590601,164.302176 120.868206,164.130883 C121.145812,163.959589 121.421342,163.748609 121.694804,163.497936 C121.777672,163.422735 121.864681,163.362156 121.955835,163.316199 C122.046989,163.270243 122.146429,163.247265 122.254156,163.247265 L122.254156,163.247265 Z M130.022935,160.439742 L130.022935,167.521217 L126.679253,167.521217 L126.679253,149.397653 L132.160903,149.397653 C133.38734,149.397653 134.437668,149.525076 135.311919,149.779927 C136.18617,150.034778 136.902962,150.391982 137.462317,150.851549 C138.021672,151.311116 138.431859,151.860499 138.692891,152.499715 C138.953924,153.138931 139.084438,153.842894 139.084438,154.611624 C139.084438,155.221595 138.995357,155.798134 138.817192,156.341259 C138.639027,156.884384 138.382142,157.377367 138.046529,157.820222 C137.710916,158.263078 137.296586,158.651615 136.803525,158.985846 C136.310464,159.320076 135.749046,159.587457 135.119253,159.787995 C135.541877,160.030312 135.906488,160.377071 136.213097,160.828283 L140.712774,167.521217 L137.704703,167.521217 C137.414667,167.521217 137.16814,167.462728 136.965115,167.345747 C136.76209,167.228767 136.590143,167.061654 136.449268,166.844404 L132.670534,161.041354 C132.52966,160.824104 132.374286,160.669524 132.204408,160.577611 C132.03453,160.485698 131.78386,160.439742 131.45239,160.439742 L130.022935,160.439742 Z M130.022935,158.02076 L132.111182,158.02076 C132.740975,158.02076 133.289963,157.941381 133.758163,157.782621 C134.226364,157.623862 134.611692,157.404526 134.914158,157.124608 C135.216624,156.84469 135.442434,156.512553 135.591595,156.128188 C135.740756,155.743823 135.815336,155.321863 135.815336,154.862296 C135.815336,153.943162 135.514946,153.23711 134.914158,152.74412 C134.313369,152.25113 133.395627,152.004639 132.160903,152.004639 L130.022935,152.004639 L130.022935,158.02076 Z M154.186943,149.397653 L154.186943,152.07984 L146.219284,152.07984 L146.219284,157.105808 L152.496457,157.105808 L152.496457,159.70026 L146.219284,159.70026 L146.219284,164.826497 L154.186943,164.826497 L154.186943,167.521217 L142.850742,167.521217 L142.850742,149.397653 L154.186943,149.397653 Z M172.881732,167.521217 L170.296282,167.521217 C170.006246,167.521217 169.768006,167.448106 169.581555,167.30188 C169.395103,167.155654 169.260445,166.973919 169.177578,166.756669 L167.835133,163.059261 L160.389536,163.059261 L159.047091,166.756669 C158.980797,166.948851 158.850283,167.12432 158.655545,167.283079 C158.460806,167.441839 158.222566,167.521217 157.940817,167.521217 L155.342937,167.521217 L162.403203,149.397653 L165.821466,149.397653 L172.881732,167.521217 Z M161.247209,160.67788 L166.97746,160.67788 L164.789772,154.649225 C164.690331,154.381841 164.580533,154.066415 164.460376,153.702939 C164.340218,153.339464 164.222134,152.94466 164.106119,152.518516 C163.990105,152.94466 163.876164,153.341552 163.764293,153.709206 C163.652422,154.07686 163.542625,154.398552 163.434897,154.674292 L161.247209,160.67788 Z M185.572808,149.397653 L185.572808,152.167575 L180.165738,152.167575 L180.165738,167.521217 L176.822056,167.521217 L176.822056,152.167575 L171.390126,152.167575 L171.390126,149.397653 L185.572808,149.397653 Z M203.969275,158.459435 C203.969275,159.788002 203.74968,161.01837 203.310483,162.150576 C202.871286,163.282782 202.253933,164.262481 201.458406,165.089702 C200.662879,165.916923 199.705775,166.562396 198.587066,167.026141 C197.468356,167.489886 196.229507,167.721755 194.870482,167.721755 C193.511457,167.721755 192.270536,167.489886 191.147683,167.026141 C190.02483,166.562396 189.063583,165.916923 188.263913,165.089702 C187.464243,164.262481 186.844818,163.282782 186.405621,162.150576 C185.966424,161.01837 185.746829,159.788002 185.746829,158.459435 C185.746829,157.130868 185.966424,155.9005 186.405621,154.768294 C186.844818,153.636088 187.464243,152.656389 188.263913,151.829168 C189.063583,151.001948 190.02483,150.356474 191.147683,149.892729 C192.270536,149.428984 193.511457,149.197115 194.870482,149.197115 C196.229507,149.197115 197.468356,149.431073 198.587066,149.898996 C199.705775,150.366919 200.662879,151.012392 201.458406,151.835435 C202.253933,152.658478 202.871286,153.636088 203.310483,154.768294 C203.74968,155.9005 203.969275,157.130868 203.969275,158.459435 L203.969275,158.459435 Z M200.538583,158.459435 C200.538583,157.465099 200.408069,156.573134 200.147036,155.783515 C199.886004,154.993895 199.511035,154.323355 199.022117,153.771874 C198.5332,153.220394 197.938635,152.798434 197.238406,152.505982 C196.538176,152.21353 195.748876,152.067306 194.870482,152.067306 C193.992088,152.067306 193.200716,152.21353 192.496343,152.505982 C191.791971,152.798434 191.193263,153.220394 190.700202,153.771874 C190.207141,154.323355 189.828028,154.993895 189.562853,155.783515 C189.297677,156.573134 189.165091,157.465099 189.165091,158.459435 C189.165091,159.453771 189.297677,160.345736 189.562853,161.135356 C189.828028,161.924975 190.207141,162.593427 190.700202,163.140729 C191.193263,163.688032 191.791971,164.107903 192.496343,164.400355 C193.200716,164.692806 193.992088,164.83903 194.870482,164.83903 C195.748876,164.83903 196.538176,164.692806 197.238406,164.400355 C197.938635,164.107903 198.5332,163.688032 199.022117,163.140729 C199.511035,162.593427 199.886004,161.924975 200.147036,161.135356 C200.408069,160.345736 200.538583,159.453771 200.538583,158.459435 L200.538583,158.459435 Z M210.059998,160.439742 L210.059998,167.521217 L206.716315,167.521217 L206.716315,149.397653 L212.197965,149.397653 C213.424403,149.397653 214.474731,149.525076 215.348982,149.779927 C216.223233,150.034778 216.940025,150.391982 217.49938,150.851549 C218.058735,151.311116 218.468922,151.860499 218.729954,152.499715 C218.990987,153.138931 219.121501,153.842894 219.121501,154.611624 C219.121501,155.221595 219.03242,155.798134 218.854255,156.341259 C218.67609,156.884384 218.419205,157.377367 218.083592,157.820222 C217.747979,158.263078 217.333648,158.651615 216.840587,158.985846 C216.347527,159.320076 215.786108,159.587457 215.156316,159.787995 C215.57894,160.030312 215.943551,160.377071 216.25016,160.828283 L220.749837,167.521217 L217.741766,167.521217 C217.45173,167.521217 217.205203,167.462728 217.002178,167.345747 C216.799153,167.228767 216.627206,167.061654 216.486331,166.844404 L212.707597,161.041354 C212.566723,160.824104 212.411349,160.669524 212.241471,160.577611 C212.071592,160.485698 211.820922,160.439742 211.489453,160.439742 L210.059998,160.439742 Z M210.059998,158.02076 L212.148245,158.02076 C212.778037,158.02076 213.327026,157.941381 213.795226,157.782621 C214.263427,157.623862 214.648755,157.404526 214.951221,157.124608 C215.253686,156.84469 215.479497,156.512553 215.628658,156.128188 C215.777819,155.743823 215.852399,155.321863 215.852399,154.862296 C215.852399,153.943162 215.552009,153.23711 214.951221,152.74412 C214.350432,152.25113 213.432689,152.004639 212.197965,152.004639 L210.059998,152.004639 L210.059998,158.02076 Z M232.52109,152.693986 C232.429936,152.877813 232.324281,153.007325 232.204124,153.082527 C232.083966,153.157729 231.941022,153.195329 231.775287,153.195329 C231.609552,153.195329 231.423104,153.130573 231.215935,153.001059 C231.008767,152.871544 230.764311,152.727409 230.482562,152.56865 C230.200813,152.40989 229.87142,152.265756 229.494374,152.136241 C229.117327,152.006727 228.671922,151.941971 228.158144,151.941971 C227.694087,151.941971 227.290114,151.998371 226.946214,152.111174 C226.602315,152.223977 226.312283,152.380645 226.076111,152.581183 C225.839939,152.781722 225.663849,153.021947 225.547834,153.301865 C225.43182,153.581783 225.373814,153.888853 225.373814,154.223083 C225.373814,154.649227 225.491898,155.004342 225.72807,155.288438 C225.964242,155.572534 226.277062,155.814848 226.666538,156.015386 C227.056015,156.215924 227.499349,156.395571 227.996553,156.55433 C228.493758,156.71309 229.001313,156.882291 229.519234,157.06194 C230.037155,157.241589 230.54471,157.45048 231.041914,157.68862 C231.539119,157.926759 231.982453,158.227562 232.371929,158.591038 C232.761406,158.954514 233.074226,159.399451 233.310398,159.925865 C233.54657,160.452278 233.664654,161.091484 233.664654,161.843503 C233.664654,162.662368 233.525853,163.428998 233.248247,164.143416 C232.970642,164.857834 232.564598,165.480329 232.030103,166.01092 C231.495608,166.541511 230.843038,166.959293 230.072371,167.264279 C229.301704,167.569264 228.41918,167.721755 227.424771,167.721755 C226.852986,167.721755 226.289496,167.665354 225.734285,167.552551 C225.179074,167.439749 224.646659,167.278902 224.137024,167.070008 C223.62739,166.861114 223.150909,166.610445 222.707569,166.317993 C222.264228,166.025541 221.868543,165.699671 221.5205,165.340374 L222.490043,163.723541 C222.581197,163.60656 222.690995,163.508382 222.819439,163.429002 C222.947884,163.349622 223.090828,163.309933 223.248276,163.309933 C223.455444,163.309933 223.679183,163.395578 223.919498,163.566871 C224.159814,163.738164 224.44363,163.928255 224.770956,164.137149 C225.098283,164.346043 225.48361,164.536134 225.926951,164.707427 C226.370291,164.878721 226.902706,164.964366 227.524212,164.964366 C228.477186,164.964366 229.214695,164.736675 229.73676,164.281286 C230.258824,163.825896 230.519852,163.172068 230.519852,162.319779 C230.519852,161.843501 230.401768,161.454964 230.165596,161.154156 C229.929424,160.853348 229.616604,160.60059 229.227128,160.395874 C228.837651,160.191158 228.394317,160.017778 227.897113,159.87573 C227.399909,159.733682 226.894425,159.579103 226.380647,159.411988 C225.86687,159.244872 225.361386,159.044337 224.864182,158.810375 C224.366977,158.576414 223.923644,158.271433 223.534167,157.895424 C223.14469,157.519414 222.831871,157.04941 222.595698,156.485395 C222.359526,155.921381 222.241442,155.225774 222.241442,154.398553 C222.241442,153.738448 222.371956,153.095064 222.632989,152.468381 C222.894021,151.841699 223.275205,151.286049 223.776553,150.801414 C224.2779,150.31678 224.893182,149.928243 225.622415,149.635791 C226.351648,149.343339 227.184452,149.197115 228.120854,149.197115 C229.181556,149.197115 230.159377,149.364228 231.054344,149.698459 C231.949312,150.032689 232.711681,150.500605 233.341473,151.10222 L232.52109,152.693986 Z" fill="#698CA0"></path>
                <path d="M119.51273,180.275779 C119.427366,180.436991 119.304063,180.517597 119.142819,180.517597 C119.019514,180.517597 118.860644,180.429879 118.666202,180.254442 C118.471761,180.079005 118.208557,179.884605 117.876584,179.671235 C117.54461,179.457866 117.12965,179.261095 116.63169,179.080916 C116.13373,178.900738 115.519588,178.81065 114.789246,178.81065 C114.058905,178.81065 113.416309,178.914962 112.861439,179.12359 C112.306569,179.332218 111.841813,179.616706 111.467158,179.977063 C111.092502,180.337421 110.807958,180.75467 110.613516,181.228824 C110.419074,181.702979 110.321855,182.200833 110.321855,182.722403 C110.321855,183.405185 110.466498,183.96942 110.75579,184.415125 C111.045081,184.86083 111.426844,185.240148 111.901092,185.553089 C112.37534,185.866031 112.913603,186.129183 113.515898,186.342552 C114.118192,186.555922 114.737076,186.766917 115.372568,186.975545 C116.00806,187.184173 116.626944,187.414134 117.229239,187.665436 C117.831533,187.916738 118.369797,188.232046 118.844044,188.611369 C119.318292,188.990692 119.700056,189.457727 119.989347,190.012488 C120.278638,190.567248 120.423281,191.257132 120.423281,192.082161 C120.423281,192.926155 120.278638,193.720352 119.989347,194.464774 C119.700056,195.209196 119.280353,195.856407 118.730225,196.406426 C118.180098,196.956445 117.506676,197.390289 116.70994,197.707973 C115.913204,198.025656 115.002662,198.184495 113.978287,198.184495 C112.650393,198.184495 111.507473,197.949792 110.549493,197.48038 C109.591512,197.010967 108.752107,196.368498 108.03125,195.552952 L108.429616,194.927072 C108.543436,194.784826 108.676223,194.713704 108.827982,194.713704 C108.913347,194.713704 109.022422,194.770601 109.155212,194.884398 C109.288001,194.998195 109.449243,195.138069 109.638942,195.304023 C109.828641,195.469977 110.056276,195.650152 110.321855,195.844556 C110.587434,196.038959 110.89569,196.219135 111.246634,196.385089 C111.597577,196.551043 112.000681,196.690916 112.455959,196.804713 C112.911237,196.91851 113.428159,196.975408 114.006742,196.975408 C114.803478,196.975408 115.514839,196.8545 116.140846,196.612682 C116.766853,196.370863 117.295631,196.041331 117.727196,195.624075 C118.158762,195.206819 118.488359,194.711336 118.715998,194.137609 C118.943637,193.563882 119.057455,192.949862 119.057455,192.295529 C119.057455,191.584298 118.912811,190.998726 118.62352,190.538796 C118.334229,190.078867 117.952465,189.694807 117.478218,189.386607 C117.00397,189.078407 116.465707,188.819997 115.863412,188.611369 C115.261118,188.402741 114.642234,188.198858 114.006742,187.999713 C113.37125,187.800568 112.752366,187.577719 112.150071,187.331159 C111.547776,187.084599 111.009513,186.769291 110.535266,186.385226 C110.061018,186.001161 109.679254,185.522272 109.389963,184.948546 C109.100672,184.374819 108.956028,183.656486 108.956028,182.793525 C108.956028,182.120226 109.084073,181.470645 109.340167,180.844761 C109.596261,180.218878 109.970911,179.666496 110.464129,179.187601 C110.957346,178.708705 111.566746,178.324646 112.292345,178.035411 C113.017944,177.746177 113.845493,177.601562 114.775019,177.601562 C115.818364,177.601562 116.754989,177.767514 117.584923,178.099422 C118.414856,178.43133 119.17127,178.938667 119.854187,179.621449 L119.51273,180.275779 Z M141.942165,194.571458 C142.037014,194.571458 142.117635,194.604648 142.18403,194.67103 L142.753124,195.282686 C142.335786,195.728391 141.880515,196.129045 141.387297,196.484661 C140.89408,196.840276 140.355817,197.143731 139.772492,197.395032 C139.189167,197.646334 138.548942,197.840734 137.851798,197.978239 C137.154654,198.115744 136.388756,198.184495 135.55408,198.184495 C134.159791,198.184495 132.881713,197.940309 131.719806,197.451931 C130.557899,196.963552 129.561994,196.271297 128.73206,195.375145 C127.902126,194.478994 127.254788,193.395568 126.790025,192.124834 C126.325262,190.854101 126.092885,189.441142 126.092885,187.885917 C126.092885,186.35914 126.332376,184.965147 126.811366,183.703897 C127.290357,182.442647 127.963778,181.359221 128.831652,180.453586 C129.699525,179.547951 130.738112,178.846214 131.947444,178.348352 C133.156775,177.85049 134.491763,177.601562 135.952446,177.601562 C136.682787,177.601562 137.351466,177.656089 137.958504,177.765145 C138.565541,177.8742 139.132258,178.030669 139.658673,178.234555 C140.185088,178.438442 140.68067,178.69211 141.145432,178.995569 C141.610195,179.299028 142.065466,179.649897 142.511259,180.048186 L142.070211,180.688291 C141.994331,180.802088 141.875771,180.858986 141.714527,180.858986 C141.629162,180.858986 141.520087,180.8092 141.387297,180.709628 C141.254508,180.610056 141.086153,180.486777 140.882226,180.33979 C140.6783,180.192802 140.431695,180.031592 140.142403,179.856155 C139.853112,179.680718 139.509288,179.519508 139.11092,179.37252 C138.712552,179.225532 138.252538,179.102254 137.730866,179.002681 C137.209193,178.903109 136.616392,178.853323 135.952446,178.853323 C134.728887,178.853323 133.604936,179.064319 132.580561,179.486316 C131.556186,179.908313 130.674098,180.51048 129.934272,181.292835 C129.194446,182.075189 128.618243,183.023484 128.205648,184.137746 C127.793052,185.252008 127.586757,186.501386 127.586757,187.885917 C127.586757,189.308379 127.790681,190.579094 128.198534,191.698098 C128.606387,192.817102 129.170733,193.763025 129.89159,194.535897 C130.612446,195.308768 131.463708,195.901452 132.445401,196.313966 C133.427094,196.72648 134.491764,196.932734 135.639444,196.932734 C136.3603,196.932734 137.002896,196.88532 137.567251,196.790489 C138.131606,196.695658 138.650899,196.553414 139.125147,196.363752 C139.599395,196.17409 140.040439,195.941758 140.448292,195.666749 C140.856145,195.391739 141.259249,195.069319 141.657617,194.699479 C141.705042,194.661547 141.750095,194.630727 141.792777,194.607019 C141.83546,194.583312 141.885255,194.571458 141.942165,194.571458 L141.942165,194.571458 Z M165.538243,197.956902 L164.072824,197.956902 L164.072824,188.312653 L151.467383,188.312653 L151.467383,197.956902 L150.001964,197.956902 L150.001964,177.829155 L151.467383,177.829155 L151.467383,187.217362 L164.072824,187.217362 L164.072824,177.829155 L165.538243,177.829155 L165.538243,197.956902 Z M192.136294,187.885917 C192.136294,189.441142 191.903916,190.85173 191.439153,192.117722 C190.97439,193.383714 190.319938,194.464769 189.475777,195.360921 C188.631616,196.257072 187.621484,196.949327 186.445349,197.437706 C185.269215,197.926085 183.965053,198.170271 182.532825,198.170271 C181.119567,198.170271 179.82489,197.926085 178.648756,197.437706 C177.472621,196.949327 176.462489,196.257072 175.618328,195.360921 C174.774167,194.464769 174.117343,193.383714 173.647838,192.117722 C173.178333,190.85173 172.943584,189.441142 172.943584,187.885917 C172.943584,186.340174 173.178333,184.934328 173.647838,183.668336 C174.117343,182.402344 174.774167,181.321288 175.618328,180.425137 C176.462489,179.528985 177.472621,178.83436 178.648756,178.341239 C179.82489,177.848119 181.119567,177.601562 182.532825,177.601562 C183.965053,177.601562 185.269215,177.845748 186.445349,178.334127 C187.621484,178.822506 188.631616,179.517132 189.475777,180.418025 C190.319938,181.318918 190.97439,182.402344 191.439153,183.668336 C191.903916,184.934328 192.136294,186.340174 192.136294,187.885917 L192.136294,187.885917 Z M190.628193,187.885917 C190.628193,186.48242 190.433755,185.221189 190.044872,184.102185 C189.655988,182.983181 189.108241,182.034886 188.401611,181.257273 C187.694982,180.47966 186.84372,179.884606 185.8478,179.472092 C184.85188,179.059577 183.746899,178.853323 182.532825,178.853323 C181.337721,178.853323 180.244596,179.059577 179.253418,179.472092 C178.262241,179.884606 177.408607,180.47966 176.692493,181.257273 C175.976379,182.034886 175.421518,182.983181 175.027892,184.102185 C174.634267,185.221189 174.437457,186.48242 174.437457,187.885917 C174.437457,189.298896 174.634267,190.562498 175.027892,191.676761 C175.421518,192.791023 175.976379,193.736947 176.692493,194.51456 C177.408607,195.292173 178.262241,195.884857 179.253418,196.292629 C180.244596,196.700402 181.337721,196.904285 182.532825,196.904285 C183.746899,196.904285 184.85188,196.700402 185.8478,196.292629 C186.84372,195.884857 187.694982,195.292173 188.401611,194.51456 C189.108241,193.736947 189.655988,192.791023 190.044872,191.676761 C190.433755,190.562498 190.628193,189.298896 190.628193,187.885917 L190.628193,187.885917 Z M217.496564,187.885917 C217.496564,189.441142 217.264186,190.85173 216.799424,192.117722 C216.334661,193.383714 215.680209,194.464769 214.836048,195.360921 C213.991887,196.257072 212.981754,196.949327 211.80562,197.437706 C210.629486,197.926085 209.325324,198.170271 207.893096,198.170271 C206.479838,198.170271 205.185161,197.926085 204.009026,197.437706 C202.832892,196.949327 201.822759,196.257072 200.978598,195.360921 C200.134437,194.464769 199.477614,193.383714 199.008109,192.117722 C198.538604,190.85173 198.303855,189.441142 198.303855,187.885917 C198.303855,186.340174 198.538604,184.934328 199.008109,183.668336 C199.477614,182.402344 200.134437,181.321288 200.978598,180.425137 C201.822759,179.528985 202.832892,178.83436 204.009026,178.341239 C205.185161,177.848119 206.479838,177.601562 207.893096,177.601562 C209.325324,177.601562 210.629486,177.845748 211.80562,178.334127 C212.981754,178.822506 213.991887,179.517132 214.836048,180.418025 C215.680209,181.318918 216.334661,182.402344 216.799424,183.668336 C217.264186,184.934328 217.496564,186.340174 217.496564,187.885917 L217.496564,187.885917 Z M215.988464,187.885917 C215.988464,186.48242 215.794025,185.221189 215.405142,184.102185 C215.016259,182.983181 214.468511,182.034886 213.761882,181.257273 C213.055253,180.47966 212.203991,179.884606 211.208071,179.472092 C210.212151,179.059577 209.10717,178.853323 207.893096,178.853323 C206.697991,178.853323 205.604867,179.059577 204.613689,179.472092 C203.622511,179.884606 202.768878,180.47966 202.052764,181.257273 C201.33665,182.034886 200.781789,182.983181 200.388163,184.102185 C199.994537,185.221189 199.797727,186.48242 199.797727,187.885917 C199.797727,189.298896 199.994537,190.562498 200.388163,191.676761 C200.781789,192.791023 201.33665,193.736947 202.052764,194.51456 C202.768878,195.292173 203.622511,195.884857 204.613689,196.292629 C205.604867,196.700402 206.697991,196.904285 207.893096,196.904285 C209.10717,196.904285 210.212151,196.700402 211.208071,196.292629 C212.203991,195.884857 213.055253,195.292173 213.761882,194.51456 C214.468511,193.736947 215.016259,192.791023 215.405142,191.676761 C215.794025,190.562498 215.988464,189.298896 215.988464,187.885917 L215.988464,187.885917 Z M226.353096,196.719366 L235.899656,196.719366 L235.899656,197.956902 L224.901906,197.956902 L224.901906,177.829155 L226.353096,177.829155 L226.353096,196.719366 Z" fill="#698CA0"></path>
            </g>
        </g>
    </g>
</svg>
