<svg xmlns="http://www.w3.org/2000/svg" viewBox="0 0 319 154"><title>Diamong Stats</title><g fill="none"><path d="M130.8 31.41v43H89.1l41.7-43z" fill="#F8E02D"/><path d="M130.8 74.31v-42.9l43 42.9h-43z" fill="#F06F2A"/><path d="M130.8 117.275v-43H89.1l41.7 43z" fill="#2AA7F0"/><path d="M130.8 74.31v43l43-43h-43z" fill="#19D474"/><path d="M18.4.9v1.3c0 .4 0 .8-.1 1-.1.2-.2.5-.3.6L8 24.2c-.2.3-.4.5-.7.7-.2.2-.6.3-1 .3H4.1l10.3-20c.1-.3.3-.6.4-.8.2-.3.3-.5.5-.7H2.6c-.2 0-.3-.1-.5-.2-.2-.2-.2-.4-.2-.6v-2h16.5zm17.9 1.3c0 .4-.1.8-.4 1.1-.2.3-.7.4-1.3.4h-7.7l-1.1 6.4c1.3-.3 2.4-.4 3.5-.4 1.3 0 2.4.2 3.4.5.9.4 1.7.9 2.4 1.6.7.6 1.2 1.4 1.5 2.3.3.9.5 1.9.5 2.9 0 1.3-.2 2.5-.7 3.5-.4 1.1-1.1 2-1.8 2.7-.8.8-1.8 1.3-2.8 1.7-1.1.4-2.2.6-3.5.6-.7 0-1.4-.1-2-.2-.7-.1-1.3-.3-1.9-.6-.5-.2-1.1-.5-1.6-.8-.4-.3-.9-.6-1.2-.9l.9-1.3c.2-.3.4-.5.8-.5.2 0 .5.1.7.3.3.2.7.4 1.1.6.4.2.9.4 1.4.6.6.1 1.2.2 2 .2s1.6-.1 2.3-.4c.7-.3 1.2-.6 1.7-1.2.5-.5.9-1.1 1.1-1.8.3-.7.4-1.5.4-2.3 0-.8-.1-1.5-.3-2.1-.2-.6-.6-1.1-1-1.5-.4-.5-1-.8-1.7-1.1-.6-.2-1.4-.3-2.3-.3-.6 0-1.3 0-1.9.1-.7.1-1.4.3-2.1.5l-1.9-.5 2-11.4h11.5v1.3zm15.2 4.6c0 .9-.2 1.8-.5 2.5-.3.8-.7 1.4-1.2 1.9s-1 .9-1.7 1.2c-.6.3-1.3.4-2 .4-.8 0-1.5-.1-2.2-.4-.6-.3-1.2-.7-1.7-1.2s-.9-1.1-1.1-1.9c-.3-.7-.4-1.6-.4-2.5 0-1 .1-1.9.4-2.6.2-.8.6-1.4 1.1-2 .5-.5 1.1-.9 1.7-1.1.7-.3 1.4-.5 2.2-.5.7 0 1.4.2 2.1.5.6.2 1.2.6 1.7 1.1.5.6.9 1.2 1.1 2 .3.7.5 1.6.5 2.6zm-2.4 0c0-.8-.1-1.4-.2-1.9-.2-.6-.4-1-.7-1.3-.3-.4-.6-.6-1-.7-.3-.2-.7-.3-1.1-.3-.5 0-.9.1-1.2.3-.4.1-.7.3-1 .7-.3.3-.5.7-.6 1.3-.2.5-.3 1.1-.3 1.9 0 .7.1 1.3.3 1.8.1.6.3 1 .6 1.3.3.3.6.6 1 .7.3.1.7.2 1.2.2.4 0 .8-.1 1.1-.2.4-.1.7-.4 1-.7.3-.3.5-.7.7-1.3.1-.5.2-1.1.2-1.8zM60 1.5c.1-.2.3-.3.4-.5.2-.1.4-.1.7-.1h2.2L45.5 24.8c-.1.1-.3.2-.4.3-.2.1-.4.1-.6.1h-2.2L60 1.5zm4.9 18c0 1-.1 1.8-.4 2.6-.3.7-.7 1.3-1.2 1.8-.5.6-1.1 1-1.7 1.2-.7.3-1.4.4-2.1.4-.7 0-1.4-.1-2.1-.4-.7-.2-1.2-.6-1.7-1.2-.5-.5-.9-1.1-1.1-1.8-.3-.8-.5-1.6-.5-2.6s.2-1.8.5-2.6c.2-.8.6-1.4 1.1-1.9.5-.6 1-1 1.7-1.2.7-.3 1.4-.4 2.1-.4.8 0 1.5.1 2.2.4.6.2 1.2.6 1.7 1.2.5.5.8 1.1 1.1 1.9.3.8.4 1.6.4 2.6zm-2.3 0c0-.7-.1-1.4-.3-1.9-.1-.5-.3-1-.6-1.3-.3-.3-.6-.6-1-.7-.4-.2-.7-.2-1.2-.2-.4 0-.8 0-1.1.2-.4.1-.7.4-1 .7-.3.3-.5.8-.6 1.3-.2.5-.3 1.2-.3 1.9s.1 1.4.3 1.9c.1.5.3.9.6 1.2.3.3.6.6 1 .7.3.2.7.2 1.1.2.5 0 .8 0 1.2-.2.4-.1.7-.4 1-.7.3-.3.5-.7.6-1.2.2-.5.3-1.2.3-1.9z" fill="#627087"/><path d="M3.1 53.9v4.3H1.6V46.7h3.3c.8 0 1.4.1 1.9.2.6.2 1 .4 1.4.8.3.3.6.6.7 1.1.2.4.3.9.3 1.4 0 .6-.1 1.1-.3 1.5-.2.4-.4.8-.8 1.1-.4.4-.8.6-1.3.8-.6.2-1.2.3-1.9.3H3.1zm0-1.3h1.8c.5 0 .9 0 1.2-.1.3-.2.6-.3.9-.5.2-.2.4-.5.5-.8.1-.3.2-.6.2-1 0-.7-.3-1.3-.7-1.7-.5-.4-1.2-.6-2.1-.6H3.1v4.7zm10.4.8v4.8H12V46.7h3.2c.8 0 1.4.1 1.9.2.5.2 1 .4 1.3.6.4.3.6.7.8 1 .2.4.2.9.2 1.4 0 .4 0 .7-.2 1.1-.1.4-.3.7-.5.9-.3.3-.6.6-.9.8-.4.2-.7.3-1.2.4.2.1.4.3.5.5l3.4 4.6h-1.4c-.3 0-.5-.2-.6-.4l-3-4.1c-.1-.1-.2-.2-.3-.2-.1-.1-.3-.1-.5-.1h-1.2zm0-1.2h1.7c.4 0 .8 0 1.2-.1.3-.1.6-.3.8-.5.3-.2.4-.4.5-.7.2-.3.2-.6.2-.9 0-.7-.2-1.2-.7-1.6-.4-.3-1.1-.5-2-.5h-1.7v4.3zm18.7 6H31c-.1 0-.2-.1-.3-.2-.1 0-.1-.1-.2-.2L29.4 55h-5.1l-1.1 2.8c0 .1-.1.2-.2.2-.1.1-.2.2-.3.2h-1.2l4.6-11.5h1.6l4.5 11.5zm-7.5-4.3H29l-1.8-4.7c-.1-.3-.2-.6-.3-1-.1.2-.2.4-.2.6-.1.1-.1.3-.2.4l-1.8 4.7zm4.9-10l-2.4 1.7-.2.2H25.6l1.7-1.6c.1-.1.1-.1.1-.2h.2c0-.1.1-.1.1-.1H29.6zm11.5 2.8V48h-3.7v10.2h-1.6V48h-3.7v-1.3h9zm4.1 11.5h-1.5V46.7h1.5v11.5zm11.9-2.4s.1 0 .2.1l.6.7c-.5.5-1 .9-1.7 1.2-.7.3-1.5.5-2.4.5-.9 0-1.6-.2-2.3-.4-.6-.3-1.2-.7-1.7-1.2-.5-.6-.8-1.2-1.1-1.9-.3-.7-.4-1.5-.4-2.4 0-.8.1-1.6.4-2.4.3-.7.7-1.3 1.2-1.8s1.1-.9 1.8-1.2c.7-.3 1.5-.4 2.4-.4.8 0 1.5.1 2.1.4.7.2 1.2.6 1.7 1l-.5.7-.2.2H57s-.1 0-.2-.1c-.1 0-.2-.1-.3-.2-.1 0-.2-.1-.3-.2-.2-.1-.3-.2-.5-.2-.2-.1-.5-.2-.7-.2-.3-.1-.6-.1-.9-.1-.7 0-1.2.1-1.7.3-.5.2-1 .5-1.3.9-.4.4-.7.9-.9 1.4-.2.6-.3 1.2-.3 1.9s.1 1.4.3 1.9c.2.6.5 1.1.8 1.5.4.3.8.6 1.3.8.5.2 1 .3 1.6.3h.9c.3-.1.5-.1.7-.2.3-.1.5-.2.7-.3.2-.2.4-.3.6-.5.1-.1.2-.1.3-.1zm14.2-3.4c0 .9-.2 1.7-.5 2.4-.2.7-.6 1.3-1.1 1.8-.5.6-1.1 1-1.8 1.2-.7.3-1.5.5-2.3.5-.8 0-1.6-.2-2.3-.5-.7-.2-1.3-.6-1.8-1.2-.5-.5-.9-1.1-1.1-1.8-.3-.7-.4-1.5-.4-2.4 0-.8.1-1.6.4-2.3.2-.8.6-1.4 1.1-1.9.5-.5 1.1-.9 1.8-1.2.7-.3 1.5-.4 2.3-.4.8 0 1.6.1 2.3.4.7.3 1.3.7 1.8 1.2s.9 1.1 1.1 1.9c.3.7.5 1.5.5 2.3zm-1.6 0c0-.7-.1-1.3-.3-1.9-.2-.5-.5-1-.8-1.4-.4-.4-.8-.7-1.3-.9-.5-.2-1.1-.3-1.7-.3-.6 0-1.2.1-1.7.3-.5.2-.9.5-1.3.9-.3.4-.6.9-.8 1.4-.2.6-.3 1.2-.3 1.9s.1 1.4.3 1.9c.2.6.5 1 .8 1.4.4.4.8.7 1.3.9.5.2 1.1.3 1.7.3.6 0 1.2-.1 1.7-.3.5-.2.9-.5 1.3-.9.3-.4.6-.8.8-1.4.2-.5.3-1.2.3-1.9z" fill="#BEC6D3"/><path d="M199.5.6c1.1 0 2 .2 2.9.5.9.3 1.7.7 2.4 1.3.6.6 1.1 1.3 1.5 2.1.4.9.6 1.8.6 2.9 0 .9-.2 1.7-.5 2.5-.2.8-.6 1.5-1.1 2.2-.4.7-1 1.4-1.6 2.1-.6.7-1.2 1.3-1.9 2l-6.4 6.6c.4-.1.9-.2 1.4-.3.4-.1.9-.1 1.3-.1h8.2c.3 0 .6.1.8.3.1.2.2.4.2.7v1.8h-16.2v-1c0-.2 0-.4.1-.7.1-.2.2-.4.4-.6l7.8-7.8c.7-.7 1.3-1.3 1.8-1.9.5-.6 1-1.2 1.4-1.8.4-.7.6-1.3.9-1.9.2-.6.3-1.3.3-2s-.2-1.4-.4-1.9-.5-1-.9-1.3c-.4-.4-.9-.6-1.4-.8-.5-.2-1.1-.3-1.7-.3-.6 0-1.2.1-1.7.3-.6.2-1 .4-1.4.7-.4.4-.8.8-1 1.2-.3.4-.5.9-.6 1.5-.1.3-.2.5-.4.7-.2.1-.4.2-.7.2h-.4l-1.6-.3c.1-1.1.4-2.1.9-3 .5-.8 1-1.5 1.7-2.1.7-.6 1.5-1 2.4-1.3.9-.3 1.9-.5 2.9-.5zm26.2 1.6c0 .4-.2.8-.4 1.1-.3.3-.8.4-1.4.4h-7.7l-1.1 6.4c1.3-.3 2.5-.4 3.5-.4 1.3 0 2.4.2 3.4.5 1 .4 1.8.9 2.4 1.6.7.6 1.2 1.4 1.5 2.3.4.9.5 1.9.5 2.9 0 1.3-.2 2.5-.7 3.5-.4 1.1-1 2-1.8 2.7-.8.8-1.7 1.3-2.8 1.7-1.1.4-2.2.6-3.5.6-.7 0-1.4-.1-2-.2-.7-.1-1.3-.3-1.8-.6-.6-.2-1.1-.5-1.6-.8-.5-.3-.9-.6-1.3-.9l.9-1.3c.2-.3.5-.5.8-.5.2 0 .5.1.8.3.3.2.6.4 1 .6.4.2.9.4 1.5.6.5.1 1.2.2 1.9.2.9 0 1.6-.1 2.3-.4.7-.3 1.3-.6 1.8-1.2.4-.5.8-1.1 1.1-1.8.2-.7.4-1.5.4-2.3 0-.8-.2-1.5-.4-2.1-.2-.6-.5-1.1-1-1.5-.4-.5-1-.8-1.7-1.1-.6-.2-1.4-.3-2.3-.3-.6 0-1.2 0-1.9.1s-1.3.3-2 .5l-1.9-.5L214.1.9h11.6v1.3zm15.1 4.6c0 .9-.2 1.8-.5 2.5-.3.8-.6 1.4-1.1 1.9-.5.5-1.1.9-1.8 1.2-.6.3-1.3.4-2 .4-.8 0-1.5-.1-2.2-.4-.6-.3-1.2-.7-1.7-1.2s-.8-1.1-1.1-1.9c-.3-.7-.4-1.6-.4-2.5 0-1 .1-1.9.4-2.6.3-.8.6-1.4 1.1-2 .5-.5 1.1-.9 1.7-1.1.7-.3 1.4-.5 2.2-.5.7 0 1.4.2 2.1.5.7.2 1.2.6 1.7 1.1.5.6.9 1.2 1.2 2 .2.7.4 1.6.4 2.6zm-2.4 0c0-.8-.1-1.4-.2-1.9-.2-.6-.4-1-.7-1.3-.2-.4-.6-.6-.9-.7-.4-.2-.8-.3-1.2-.3-.4 0-.8.1-1.2.3-.4.1-.7.3-1 .7-.2.3-.4.7-.6 1.3-.2.5-.2 1.1-.2 1.9 0 .7 0 1.3.2 1.8.2.6.4 1 .6 1.3.3.3.6.6 1 .7.4.1.8.2 1.2.2.4 0 .8-.1 1.2-.2.3-.1.7-.4.9-.7.3-.3.5-.7.7-1.3.1-.5.2-1.1.2-1.8zm10.9-5.3c.1-.2.3-.3.5-.5.1-.1.4-.1.6-.1h2.2l-17.8 23.9c-.1.1-.3.2-.4.3-.2.1-.4.1-.6.1h-2.2l17.7-23.7zm4.9 18c0 1-.1 1.8-.4 2.6-.3.7-.7 1.3-1.2 1.8-.5.6-1 1-1.7 1.2-.6.3-1.3.4-2 .4-.8 0-1.5-.1-2.2-.4-.6-.2-1.2-.6-1.7-1.2-.5-.5-.9-1.1-1.1-1.8-.3-.8-.4-1.6-.4-2.6s.1-1.8.4-2.6c.2-.8.6-1.4 1.1-1.9.5-.6 1.1-1 1.7-1.2.7-.3 1.4-.4 2.2-.4.7 0 1.4.1 2.1.4.6.2 1.2.6 1.7 1.2.5.5.9 1.1 1.1 1.9.3.8.4 1.6.4 2.6zm-2.3 0c0-.7-.1-1.4-.2-1.9-.2-.5-.4-1-.7-1.3-.3-.3-.6-.6-1-.7-.3-.2-.7-.2-1.1-.2-.5 0-.9 0-1.2.2-.4.1-.7.4-1 .7-.3.3-.5.8-.6 1.3-.2.5-.3 1.2-.3 1.9s.1 1.4.3 1.9c.1.5.3.9.6 1.2.3.3.6.6 1 .7.3.2.7.2 1.2.2.4 0 .8 0 1.1-.2.4-.1.7-.4 1-.7.3-.3.5-.7.7-1.2.1-.5.2-1.2.2-1.9z" fill="#627087"/><path d="M198.5 46.7V48h-3.7v10.2h-1.5V48h-3.8v-1.3h9zm9.4 0V48h-5.5v3.8h4.4V53h-4.4v3.9h5.5v1.3h-7.1V46.7h7.1zm13.5 5.7c0 .9-.1 1.7-.4 2.4-.2.7-.6 1.3-1.1 1.8-.5.6-1.1 1-1.8 1.2-.7.3-1.5.5-2.3.5-.9 0-1.6-.2-2.3-.5-.7-.2-1.3-.6-1.8-1.2-.5-.5-.9-1.1-1.2-1.8-.2-.7-.4-1.5-.4-2.4 0-.8.2-1.6.4-2.3.3-.8.7-1.4 1.2-1.9s1.1-.9 1.8-1.2c.7-.3 1.4-.4 2.3-.4.8 0 1.6.1 2.3.4.7.3 1.3.7 1.8 1.2s.9 1.1 1.1 1.9c.3.7.4 1.5.4 2.3zm-1.6 0c0-.7-.1-1.3-.2-1.9-.2-.5-.5-1-.9-1.4-.3-.4-.7-.7-1.2-.9-.5-.2-1.1-.3-1.7-.3-.6 0-1.2.1-1.7.3-.5.2-.9.5-1.3.9-.3.4-.6.9-.8 1.4-.2.6-.3 1.2-.3 1.9s.1 1.4.3 1.9c.2.6.5 1 .8 1.4.4.4.8.7 1.3.9.5.2 1.1.3 1.7.3.6 0 1.2-.1 1.7-.3.5-.2.9-.5 1.2-.9.4-.4.7-.8.9-1.4.1-.5.2-1.2.2-1.9zm-1.3-8.5l-2.3 1.7c-.1.1-.2.1-.3.2h-1.3l1.6-1.6.2-.2h.1c.1-.1.1-.1.2-.1h1.8zm7.4 9.5v4.8h-1.5V46.7h3.2c.7 0 1.4.1 1.9.2.5.2 1 .4 1.3.6.4.3.6.7.8 1 .1.4.2.9.2 1.4 0 .4 0 .7-.2 1.1-.1.4-.3.7-.5.9-.3.3-.6.6-.9.8-.4.2-.8.3-1.2.4.2.1.4.3.5.5l3.4 4.6h-1.4c-.3 0-.5-.2-.6-.4l-3-4.1c-.1-.1-.2-.2-.3-.2-.1-.1-.3-.1-.5-.1h-1.2zm0-1.2h1.6c.5 0 .9 0 1.2-.1.4-.1.7-.3.9-.5.2-.2.4-.4.5-.7.1-.3.2-.6.2-.9 0-.7-.2-1.2-.7-1.6-.4-.3-1.1-.5-2-.5h-1.7v4.3zm11.1 6h-1.5V46.7h1.5v11.5zm11.8-2.4c.1 0 .2 0 .3.1l.6.7c-.5.5-1 .9-1.7 1.2-.7.3-1.5.5-2.4.5-.9 0-1.6-.2-2.3-.4-.7-.3-1.2-.7-1.7-1.2-.5-.6-.8-1.2-1.1-1.9-.3-.7-.4-1.5-.4-2.4 0-.8.1-1.6.4-2.4.3-.7.7-1.3 1.2-1.8s1.1-.9 1.8-1.2c.7-.3 1.5-.4 2.4-.4.8 0 1.5.1 2.1.4.6.2 1.2.6 1.7 1l-.5.7-.2.2h-.2s-.1 0-.2-.1c-.1 0-.2-.1-.3-.2-.1 0-.2-.1-.3-.2-.2-.1-.4-.2-.6-.2-.2-.1-.4-.2-.6-.2-.3-.1-.6-.1-1-.1-.6 0-1.1.1-1.6.3-.5.2-1 .5-1.4.9-.3.4-.6.9-.8 1.4-.2.6-.3 1.2-.3 1.9s.1 1.4.3 1.9c.2.6.5 1.1.8 1.5.4.3.8.6 1.3.8.5.2 1 .3 1.6.3h.9c.2-.1.5-.1.7-.2.3-.1.5-.2.7-.3.2-.2.4-.3.6-.5.1-.1.2-.1.2-.1zm14.2-3.4c0 .9-.1 1.7-.4 2.4-.2.7-.6 1.3-1.1 1.8-.5.6-1.1 1-1.8 1.2-.7.3-1.5.5-2.3.5-.9 0-1.6-.2-2.3-.5-.7-.2-1.3-.6-1.8-1.2-.5-.5-.9-1.1-1.2-1.8-.2-.7-.4-1.5-.4-2.4 0-.8.2-1.6.4-2.3.3-.8.7-1.4 1.2-1.9s1.1-.9 1.8-1.2c.7-.3 1.4-.4 2.3-.4.8 0 1.6.1 2.3.4.7.3 1.3.7 1.8 1.2s.9 1.1 1.1 1.9c.3.7.4 1.5.4 2.3zm-1.5 0c0-.7-.1-1.3-.3-1.9-.2-.5-.5-1-.9-1.4-.3-.4-.7-.7-1.2-.9-.5-.2-1.1-.3-1.7-.3-.6 0-1.2.1-1.7.3-.5.2-.9.5-1.3.9-.3.4-.6.9-.8 1.4-.2.6-.3 1.2-.3 1.9s.1 1.4.3 1.9c.2.6.5 1 .8 1.4.4.4.8.7 1.3.9.5.2 1.1.3 1.7.3.6 0 1.2-.1 1.7-.3.5-.2.9-.5 1.2-.9.4-.4.7-.8.9-1.4.2-.5.3-1.2.3-1.9z" fill="#BEC6D3"/><path d="M9.3 110.3c-.9 0-1.8-.2-2.6-.5s-1.5-.8-2.1-1.4c-.7-.6-1.2-1.3-1.5-2.2-.4-.8-.6-1.8-.6-2.9 0-1.1.2-2.1.6-3 .4-1 1-1.8 1.7-2.5.7-.6 1.5-1.2 2.5-1.6 1-.4 2.1-.6 3.3-.6 1.1 0 2.2.2 3.2.6.9.4 1.7.9 2.4 1.6.7.7 1.2 1.5 1.6 2.5.3 1 .5 2 .5 3.2 0 .7 0 1.4-.2 2-.1.6-.3 1.2-.5 1.8l-.9 1.8c-.4.6-.8 1.2-1.2 1.9l-5.9 8.5c-.2.3-.4.4-.7.6-.2.1-.6.1-.9.1H5.2l7.4-9.7c.3-.3.5-.6.7-.9l.6-.9c-.6.5-1.3.9-2.1 1.2-.8.2-1.6.4-2.5.4zm6.1-7.2c0-.7-.1-1.4-.3-2-.3-.7-.6-1.2-1.1-1.6-.4-.4-.9-.8-1.5-1-.6-.2-1.2-.4-2-.4-.7 0-1.4.2-2 .4-.6.3-1.2.6-1.6 1-.4.5-.8 1-1 1.6-.2.6-.4 1.2-.4 1.9 0 .8.2 1.5.4 2.1.2.6.5 1.1.9 1.5.4.5.9.8 1.5 1 .6.2 1.3.3 2 .3.9 0 1.6-.1 2.2-.4.6-.2 1.2-.6 1.6-1 .4-.5.8-1 1-1.6.2-.5.3-1.1.3-1.8z" fill="#627087"/><path d="M7.3 143.5l-.2.2h-.2c-.1 0-.2 0-.3-.1-.1-.1-.3-.2-.5-.3l-.6-.3c-.3-.1-.6-.2-1-.2-.3 0-.6.1-.9.2-.3.1-.5.2-.7.4-.1.1-.3.3-.4.5-.1.2-.1.5-.1.7 0 .4.1.6.2.8.2.2.4.4.7.6.2.1.5.2.8.4.4.1.7.2 1 .3.4.1.7.2 1.1.4.3.1.6.3.8.5.3.3.5.5.7.9.1.3.2.7.2 1.2s-.1.9-.3 1.4c-.1.4-.4.8-.7 1.1-.3.4-.7.6-1.2.8-.5.2-1 .3-1.6.3-.8 0-1.5-.2-2.1-.4-.6-.3-1.1-.7-1.5-1.1l.4-.8c.1 0 .1-.1.2-.1 0 0 .1-.1.2-.1s.2.1.4.2c.1.1.3.3.5.4.2.2.5.3.8.4.3.1.7.2 1.1.2.4 0 .7-.1 1-.2.3-.1.5-.2.7-.4.2-.2.4-.4.5-.6.1-.3.1-.6.1-.9 0-.4 0-.6-.2-.9-.2-.2-.4-.4-.6-.5-.3-.2-.6-.3-.9-.4-.3-.1-.7-.2-1-.3-.3-.1-.7-.2-1-.4-.3-.1-.6-.3-.9-.6-.2-.2-.4-.5-.6-.8-.2-.4-.2-.8-.2-1.3 0-.4 0-.8.2-1.2.2-.3.4-.7.7-1 .3-.3.6-.5 1.1-.7.4-.2.9-.2 1.5-.2s1.2.1 1.8.3c.5.2.9.5 1.3.8l-.3.8zm10.3-1.8v1.3h-5.5v3.8h4.5v1.2h-4.5v3.9h5.5v1.3h-7.1v-11.5h7.1zm8.5 7.3c.1.1.2.3.2.4.1.2.1.3.2.4.1-.1.1-.3.2-.4 0-.1.1-.3.2-.4l3.8-7c.1-.2.2-.2.3-.3H32.4v11.5h-1.3V144l-3.9 7.1c-.2.3-.3.4-.6.4h-.2c-.3 0-.4-.1-.6-.4l-4-7.1v.4c.1.1.1.2.1.3v8.5h-1.4v-11.5H22c0 .1.1.1.2.3l3.9 7zm19.2 4.2h-1.2c-.1 0-.2-.1-.3-.2-.1 0-.2-.1-.2-.2l-1.1-2.8h-5.1l-1.1 2.8c0 .1-.1.2-.2.2-.1.1-.2.2-.3.2h-1.2l4.6-11.5h1.5l4.6 11.5zm-7.5-4.3h4.3l-1.8-4.7c-.1-.3-.2-.6-.4-1 0 .2-.1.4-.1.6-.1.1-.1.3-.2.4l-1.8 4.7zm10.4-7.2h.3c.1.1.2.1.3.3l6.6 8.6v-8.9h1.3v11.5h-.8c-.1 0-.2-.1-.3-.1 0-.1-.1-.1-.2-.2l-6.6-8.7v9h-1.4v-11.5h.8zm21.4 11.5h-1.2c-.1 0-.2-.1-.3-.2-.1 0-.2-.1-.2-.2l-1.1-2.8h-5.1l-1.1 2.8c0 .1-.1.2-.2.2-.1.1-.2.2-.3.2h-1.2l4.6-11.5H65l4.6 11.5zm-7.5-4.3h4.3l-1.8-4.7c-.1-.3-.2-.6-.3-1-.1.2-.2.4-.2.6-.1.1-.1.3-.2.4l-1.8 4.7zm15.5-5.4c0 .1-.1.1-.1.2h-.2c-.1 0-.2 0-.4-.1-.1-.1-.2-.2-.4-.3-.2-.1-.4-.2-.7-.3-.2-.1-.6-.2-.9-.2-.4 0-.7.1-.9.2-.3.1-.5.2-.7.4-.2.1-.3.3-.4.5-.1.2-.1.5-.1.7 0 .4 0 .6.2.8.1.2.4.4.6.6.3.1.6.2.9.4.3.1.7.2 1 .3.3.1.7.2 1 .4.3.1.6.3.9.5.2.3.5.5.6.9.2.3.2.7.2 1.2s0 .9-.2 1.4c-.2.4-.4.8-.8 1.1-.3.4-.7.6-1.2.8-.4.2-1 .3-1.6.3-.7 0-1.4-.2-2-.4-.6-.3-1.2-.7-1.6-1.1l.5-.8.1-.1c.1 0 .1-.1.2-.1s.3.1.4.2c.2.1.3.3.5.4.3.2.5.3.8.4.3.1.7.2 1.2.2.3 0 .7-.1.9-.2.3-.1.6-.2.8-.4.2-.2.3-.4.4-.6.1-.3.2-.6.2-.9 0-.4-.1-.6-.2-.9-.2-.2-.4-.4-.7-.5-.2-.2-.5-.3-.8-.4-.4-.1-.7-.2-1-.3-.4-.1-.7-.2-1.1-.4-.3-.1-.6-.3-.8-.6-.3-.2-.5-.5-.7-.8-.1-.4-.2-.8-.2-1.3 0-.4.1-.8.2-1.2.2-.3.4-.7.7-1 .3-.3.7-.5 1.1-.7.5-.2 1-.2 1.6-.2.6 0 1.2.1 1.7.3.5.2 1 .5 1.4.8l-.4.8z" fill="#BEC6D3"/><path d="M199.2 120.5c-1.2 0-2.4-.1-3.4-.5-1-.3-1.8-.7-2.6-1.3-.7-.6-1.3-1.4-1.6-2.2-.4-.9-.6-1.8-.6-2.9 0-1.6.4-2.9 1.2-3.9.8-1 2-1.7 3.5-2.2-1.3-.4-2.3-1.1-2.9-2.1-.7-.9-1-2.1-1-3.4 0-.9.2-1.7.5-2.5.4-.8.9-1.5 1.5-2 .7-.6 1.4-1.1 2.3-1.4 1-.3 2-.5 3.1-.5s2.1.2 3 .5c.9.3 1.7.8 2.3 1.4.7.5 1.1 1.2 1.5 2 .4.8.5 1.6.5 2.5 0 1.3-.3 2.5-1 3.4-.6 1-1.6 1.7-2.8 2.1 1.5.5 2.6 1.2 3.5 2.2.8 1 1.2 2.3 1.2 3.9 0 1.1-.2 2-.6 2.9-.4.8-1 1.6-1.7 2.2-.7.6-1.6 1-2.6 1.3-1 .4-2.1.5-3.3.5zm0-2.4c.8 0 1.5-.1 2.1-.3.6-.2 1.2-.6 1.6-1 .4-.4.8-.8 1-1.4.2-.6.4-1.2.4-1.9 0-.8-.2-1.5-.5-2.1-.2-.6-.6-1.1-1.1-1.5-.5-.3-1-.6-1.6-.8-.6-.2-1.3-.3-1.9-.3-.7 0-1.3.1-2 .3-.6.2-1.1.5-1.6.8-.4.4-.8.9-1.1 1.5-.3.6-.4 1.3-.4 2.1 0 .7.1 1.3.3 1.9.3.6.6 1 1 1.4.5.4 1 .8 1.6 1 .7.2 1.4.3 2.2.3zm0-11.7c.8 0 1.4-.1 2-.4.6-.2 1-.5 1.4-.9.3-.4.6-.9.7-1.4.2-.5.3-1.1.3-1.6 0-.6-.1-1.1-.3-1.6-.2-.5-.5-1-.8-1.3-.4-.4-.9-.7-1.4-.9-.6-.2-1.2-.3-1.9-.3-.8 0-1.4.1-1.9.3-.6.2-1.1.5-1.4.9-.4.3-.7.8-.9 1.3-.1.5-.2 1-.2 1.6 0 .5 0 1.1.2 1.6s.4 1 .8 1.4c.3.4.8.7 1.3.9.6.3 1.3.4 2.1.4z" fill="#627087"/><path d="M200 153.2h-1.5v-5.3h-6.2v5.3h-1.6v-11.5h1.6v5.1h6.2v-5.1h1.5v11.5zm14.1-5.8c0 .9-.1 1.7-.4 2.4-.3.7-.6 1.3-1.1 1.8-.5.6-1.1 1-1.8 1.2-.7.3-1.5.5-2.3.5-.9 0-1.6-.2-2.3-.5-.7-.2-1.3-.6-1.8-1.2-.5-.5-.9-1.1-1.2-1.8-.2-.7-.4-1.5-.4-2.4 0-.8.2-1.6.4-2.3.3-.8.7-1.4 1.2-1.9s1.1-.9 1.8-1.2c.7-.3 1.4-.4 2.3-.4.8 0 1.6.1 2.3.4.7.3 1.3.7 1.8 1.2s.8 1.1 1.1 1.9c.3.7.4 1.5.4 2.3zm-1.6 0c0-.7-.1-1.3-.3-1.9-.1-.5-.4-1-.8-1.4-.3-.4-.7-.7-1.2-.9-.6-.2-1.1-.3-1.7-.3-.6 0-1.2.1-1.7.3-.5.2-.9.5-1.3.9-.3.4-.6.9-.8 1.4-.2.6-.3 1.2-.3 1.9s.1 1.4.3 1.9c.2.6.5 1 .8 1.4.4.4.8.7 1.3.9.5.2 1.1.3 1.7.3.6 0 1.1-.1 1.7-.3.5-.2.9-.5 1.2-.9.4-.4.7-.8.8-1.4.2-.5.3-1.2.3-1.9zm6.1 1v4.8h-1.5v-11.5h3.2c.7 0 1.4.1 1.9.2.5.2 1 .4 1.3.6.3.3.6.7.8 1 .1.4.2.9.2 1.4 0 .4-.1.7-.2 1.1-.1.4-.3.7-.5.9-.3.3-.6.6-.9.8-.4.2-.8.3-1.2.4.2.1.4.3.5.5l3.3 4.6h-1.3c-.3 0-.5-.2-.7-.4l-2.9-4.1c-.1-.1-.2-.2-.3-.2-.1-.1-.3-.1-.5-.1h-1.2zm0-1.2h1.6c.5 0 .9 0 1.2-.1.4-.1.7-.3.9-.5.2-.2.4-.4.5-.7.1-.3.2-.6.2-.9 0-.7-.2-1.2-.7-1.6-.4-.3-1.1-.5-2-.5h-1.7v4.3zm18.7 6h-1.2c-.1 0-.2-.1-.3-.2-.1 0-.2-.1-.2-.2l-1.1-2.8h-5.1l-1.1 2.8c0 .1-.1.2-.2.2-.1.1-.2.2-.3.2h-1.2l4.6-11.5h1.5l4.6 11.5zm-7.5-4.3h4.3l-1.8-4.7c-.1-.3-.2-.6-.4-1 0 .2-.1.4-.1.6-.1.1-.1.3-.2.4l-1.8 4.7zm15.5-5.4c0 .1-.1.1-.1.2h-.3s-.2 0-.3-.1c-.1-.1-.2-.2-.4-.3-.2-.1-.4-.2-.7-.3-.3-.1-.6-.2-.9-.2-.4 0-.7.1-1 .2-.2.1-.4.2-.6.4-.2.1-.3.3-.4.5-.1.2-.2.5-.2.7 0 .4.1.6.3.8.1.2.3.4.6.6.3.1.6.2.9.4.3.1.6.2 1 .3.3.1.7.2 1 .4.3.1.6.3.9.5.2.3.4.5.6.9.2.3.2.7.2 1.2s-.1.9-.2 1.4c-.2.4-.4.8-.8 1.1-.3.4-.7.6-1.2.8-.5.2-1 .3-1.6.3-.7 0-1.4-.2-2-.4-.6-.3-1.2-.7-1.6-1.1l.5-.8s0-.1.1-.1.1-.1.2-.1.3.1.4.2c.1.1.3.3.5.4.3.2.5.3.8.4.3.1.7.2 1.1.2.4 0 .7-.1 1-.2.3-.1.6-.2.8-.4.2-.2.3-.4.4-.6.1-.3.2-.6.2-.9 0-.4-.1-.6-.3-.9-.1-.2-.3-.4-.6-.5-.2-.2-.5-.3-.9-.4-.3-.1-.6-.2-1-.3-.3-.1-.6-.2-1-.4-.3-.1-.6-.3-.8-.6-.3-.2-.5-.5-.7-.8-.1-.4-.2-.8-.2-1.3 0-.4.1-.8.2-1.2.2-.3.4-.7.7-1 .3-.3.7-.5 1.1-.7.5-.2 1-.2 1.5-.2.7 0 1.3.1 1.8.3.5.2 1 .5 1.4.8l-.4.8zm8.7 5.4v4.3h-1.5v-11.5h3.4c.7 0 1.3.1 1.9.2.5.2.9.4 1.3.8.4.3.6.6.8 1.1.2.4.2.9.2 1.4 0 .6 0 1.1-.2 1.5-.2.4-.5.8-.9 1.1-.3.4-.8.6-1.3.8-.5.2-1.1.3-1.8.3H254zm0-1.3h1.9c.4 0 .8 0 1.1-.1.4-.2.7-.3.9-.5.2-.2.4-.5.5-.8.1-.3.2-.6.2-1 0-.7-.2-1.3-.7-1.7-.4-.4-1.1-.6-2-.6H254v4.7zm19.4-.2c0 .9-.1 1.7-.4 2.4-.3.7-.6 1.3-1.1 1.8-.5.6-1.1 1-1.8 1.2-.7.3-1.5.5-2.3.5-.9 0-1.6-.2-2.3-.5-.7-.2-1.3-.6-1.8-1.2-.5-.5-.9-1.1-1.2-1.8-.2-.7-.4-1.5-.4-2.4 0-.8.2-1.6.4-2.3.3-.8.7-1.4 1.2-1.9s1.1-.9 1.8-1.2c.7-.3 1.4-.4 2.3-.4.8 0 1.6.1 2.3.4.7.3 1.3.7 1.8 1.2s.8 1.1 1.1 1.9c.3.7.4 1.5.4 2.3zm-1.6 0c0-.7-.1-1.3-.3-1.9-.1-.5-.4-1-.8-1.4-.3-.4-.8-.7-1.3-.9-.5-.2-1-.3-1.6-.3-.6 0-1.2.1-1.7.3-.5.2-.9.5-1.3.9-.3.4-.6.9-.8 1.4-.2.6-.3 1.2-.3 1.9s.1 1.4.3 1.9c.2.6.5 1 .8 1.4.4.4.8.7 1.3.9.5.2 1.1.3 1.7.3.6 0 1.1-.1 1.6-.3.5-.2 1-.5 1.3-.9.4-.4.7-.8.8-1.4.2-.5.3-1.2.3-1.9zm6.1 1v4.8h-1.5v-11.5h3.2c.7 0 1.4.1 1.9.2.5.2 1 .4 1.3.6.3.3.6.7.8 1 .1.4.2.9.2 1.4 0 .4-.1.7-.2 1.1-.1.4-.3.7-.5.9-.3.3-.6.6-.9.8-.4.2-.8.3-1.2.4.2.1.3.3.5.5l3.3 4.6h-1.3c-.3 0-.5-.2-.7-.4l-2.9-4.1c-.1-.1-.2-.2-.3-.2-.1-.1-.3-.1-.5-.1h-1.2zm0-1.2h1.6c.5 0 .9 0 1.2-.1.4-.1.7-.3.9-.5.2-.2.4-.4.5-.7.1-.3.2-.6.2-.9 0-.7-.2-1.2-.7-1.6-.4-.3-1.1-.5-2-.5h-1.7v4.3zm23 .2c0 .9-.2 1.7-.4 2.4-.3.7-.7 1.3-1.2 1.8s-1.1.9-1.8 1.1c-.7.3-1.4.5-2.3.5h-4.3v-11.5h4.3c.9 0 1.6.1 2.3.4.7.3 1.3.7 1.8 1.2s.9 1.1 1.2 1.8c.2.7.4 1.5.4 2.3zm-1.6 0c0-.7-.1-1.3-.3-1.9-.2-.5-.5-1-.8-1.4-.4-.4-.8-.6-1.3-.9-.5-.2-1.1-.3-1.7-.3h-2.7v9h2.7c.6 0 1.2-.1 1.7-.3.5-.2.9-.5 1.3-.9.3-.4.6-.8.8-1.4.2-.5.3-1.2.3-1.9zm6.2 5.8h-1.6v-11.5h1.6v11.5zm13.2 0h-1.2c-.2 0-.3-.1-.4-.2-.1 0-.1-.1-.2-.2l-1-2.8h-5.2l-1.1 2.8c0 .1-.1.2-.1.2-.1.1-.3.2-.4.2h-1.2l4.6-11.5h1.6l4.6 11.5zm-7.6-4.3h4.3l-1.8-4.7c-.1-.3-.2-.6-.3-1-.1.2-.1.4-.2.6 0 .1-.1.3-.2.4l-1.8 4.7z" fill="#BEC6D3"/></g></svg>