<svg width="343" height="343" viewBox="0 0 343 343" xmlns="http://www.w3.org/2000/svg"><g fill="none"><path d="M171.435.794l97.93 97.93H73.505l97.93-97.93z" fill="#F9E02D"/><path d="M123.725 98.725h-50.22l25.11-25.11 25.11 25.11z" fill="#D0BB28"/><path d="M.684 171.545l97.93 97.93V73.616l-97.93 97.93z" fill="#2AA7F0"/><path d="M73.504 244.365l25.11 25.11v-50.22l-25.11 25.11z" fill="#258CCA"/><path d="M171.435 342.296l97.93-97.93H73.505l97.93 97.93z" fill="#F0772A"/><path d="M268.11 97.47l74.075 74.075-97.93 97.93V98.726l23.855-1.256z" fill="#19D474"/><path d="M244.255 244.365v25.11l-25.11-25.11h25.11z" opacity=".6" fill="#D96C27"/><path d="M244.35 123.135l.04-24.61 23.585-.96-23.626 25.57z" fill="#16B263"/><path d="M121.254 162.747c.182 0 .34.07.472.213l1.318 1.442c-.73.91-1.626 1.608-2.69 2.093-1.066.484-2.344.727-3.836.727-1.334 0-2.533-.23-3.598-.69-1.065-.46-1.974-1.098-2.73-1.917-.753-.82-1.33-1.797-1.733-2.933-.4-1.136-.602-2.377-.602-3.723 0-1.363.223-2.61.67-3.742.448-1.132 1.078-2.108 1.89-2.926.812-.82 1.784-1.456 2.915-1.912 1.13-.455 2.38-.683 3.748-.683 1.334 0 2.5.215 3.5.646.997.43 1.853 1 2.566 1.71l-1.12 1.567c-.065.1-.15.188-.254.263-.104.076-.247.113-.43.113-.19 0-.384-.075-.583-.225-.2-.15-.452-.313-.758-.488-.308-.176-.695-.34-1.163-.49-.47-.15-1.063-.225-1.784-.225-.845 0-1.622.15-2.33.445-.71.297-1.318.72-1.828 1.272s-.907 1.222-1.193 2.012c-.286.79-.43 1.677-.43 2.663 0 1.02.144 1.925.43 2.72.286.793.673 1.46 1.162 2.005.49.543 1.065.958 1.728 1.247.663.288 1.375.432 2.138.432.455 0 .868-.025 1.236-.075.37-.05.71-.13 1.02-.24.31-.108.605-.248.882-.42.278-.17.553-.38.827-.632.083-.075.17-.136.26-.182.092-.046.19-.07.3-.07zm8.77-2.307v7.08h-3.345V149.4h5.48c1.227 0 2.278.127 3.152.382.874.255 1.59.612 2.15 1.072.56.46.97 1.008 1.23 1.648.262.64.392 1.343.392 2.112 0 .61-.09 1.186-.267 1.73-.178.542-.435 1.035-.77 1.478-.336.443-.75.832-1.243 1.166-.494.334-1.055.6-1.685.802.422.242.786.59 1.093 1.04l4.5 6.693h-3.008c-.29 0-.537-.057-.74-.174-.203-.117-.375-.284-.516-.502l-3.78-5.803c-.14-.216-.296-.37-.466-.462-.17-.092-.42-.138-.752-.138h-1.43zm0-2.42h2.087c.63 0 1.18-.08 1.648-.237.468-.16.854-.378 1.156-.658.303-.28.528-.612.678-.997.15-.384.223-.806.223-1.266 0-.92-.3-1.625-.9-2.118-.602-.493-1.52-.74-2.754-.74h-2.137v6.017zm24.163-8.622v2.682h-7.968v5.026h6.276v2.594h-6.277v5.126h7.967v2.695H142.85V149.4h11.337zm18.695 18.123h-2.586c-.29 0-.528-.072-.714-.218-.187-.146-.322-.328-.404-.545l-1.343-3.698h-7.445l-1.343 3.697c-.066.192-.197.367-.39.526-.196.16-.434.238-.716.238h-2.597l7.06-18.122h3.418l7.062 18.123zm-11.635-6.842h5.73l-2.187-6.03c-.1-.266-.21-.582-.33-.945-.12-.364-.238-.758-.354-1.184-.116.425-.23.822-.342 1.19-.112.367-.22.69-.33.964l-2.187 6.004zm24.326-11.28v2.77h-5.407v15.353h-3.344V152.17h-5.432v-2.77h14.183zm18.396 9.06c0 1.33-.22 2.56-.66 3.693-.44 1.133-1.056 2.112-1.852 2.94-.795.827-1.752 1.472-2.87 1.936-1.12.464-2.358.696-3.718.696-1.36 0-2.6-.232-3.722-.696-1.123-.464-2.084-1.11-2.884-1.936-.8-.828-1.42-1.807-1.858-2.94-.44-1.132-.66-2.362-.66-3.69 0-1.33.22-2.56.66-3.692.44-1.132 1.058-2.112 1.858-2.94.8-.826 1.76-1.472 2.884-1.935 1.123-.464 2.363-.696 3.722-.696 1.36 0 2.598.234 3.717.702 1.12.467 2.076 1.112 2.87 1.935.797.823 1.414 1.8 1.853 2.933.44 1.132.66 2.363.66 3.69zm-3.43 0c0-.993-.132-1.885-.393-2.674-.26-.79-.636-1.46-1.125-2.012-.49-.552-1.083-.974-1.784-1.266-.7-.292-1.49-.44-2.368-.44-.878 0-1.67.148-2.374.44-.704.292-1.303.714-1.796 1.266-.493.55-.872 1.222-1.137 2.012s-.398 1.68-.398 2.675c0 .994.133 1.886.398 2.675.265.79.644 1.458 1.137 2.006.493.548 1.092.968 1.796 1.26.705.293 1.496.44 2.374.44.88 0 1.668-.147 2.368-.44.7-.292 1.295-.712 1.784-1.26.49-.547.864-1.215 1.125-2.005.26-.79.392-1.68.392-2.676zm9.52 1.982v7.08h-3.344V149.4h5.482c1.226 0 2.277.127 3.15.382.875.255 1.592.612 2.15 1.072.56.46.97 1.008 1.232 1.648.26.64.392 1.343.392 2.112 0 .61-.09 1.186-.268 1.73-.178.542-.435 1.035-.77 1.478-.336.443-.75.832-1.243 1.166-.492.334-1.054.6-1.684.802.423.242.788.59 1.094 1.04l4.5 6.693h-3.008c-.29 0-.537-.057-.74-.174-.203-.117-.375-.284-.516-.502l-3.778-5.803c-.14-.216-.297-.37-.467-.462-.168-.092-.42-.138-.75-.138h-1.43zm0-2.42h2.088c.63 0 1.18-.08 1.647-.237.468-.16.854-.378 1.156-.658.304-.28.53-.612.68-.997.148-.384.222-.806.222-1.266 0-.92-.3-1.625-.9-2.118-.602-.493-1.52-.74-2.754-.74h-2.138v6.017zm22.46-5.326c-.09.184-.196.313-.316.39-.12.074-.263.11-.43.11-.164 0-.35-.063-.558-.193-.207-.128-.452-.273-.733-.43-.282-.16-.612-.304-.99-.434-.376-.13-.82-.194-1.335-.194-.464 0-.868.056-1.212.17-.344.112-.634.27-.87.47-.236.2-.412.44-.528.72-.116.28-.174.587-.174.92 0 .427.118.782.354 1.066.236.285.55.527.94.727.388.2.83.38 1.33.54.496.158 1.003.327 1.52.507.52.18 1.027.388 1.524.627.497.237.94.538 1.33.9.39.365.702.81.938 1.336.237.526.355 1.165.355 1.918 0 .818-.14 1.585-.417 2.3-.277.714-.683 1.336-1.218 1.867-.534.532-1.187.95-1.958 1.254-.77.305-1.653.458-2.647.458-.572 0-1.136-.057-1.69-.17-.556-.112-1.088-.273-1.598-.482-.51-.21-.986-.46-1.43-.752-.443-.292-.838-.618-1.186-.978l.97-1.616c.09-.117.2-.216.33-.295.128-.08.27-.12.428-.12.207 0 .43.086.67.257.242.17.526.36.853.57.328.21.714.4 1.157.57.443.172.976.257 1.597.257.953 0 1.69-.227 2.213-.683.522-.454.783-1.108.783-1.96 0-.476-.118-.865-.354-1.166-.237-.3-.55-.553-.94-.758-.388-.205-.832-.378-1.33-.52-.496-.142-1.002-.297-1.515-.464-.513-.167-1.02-.368-1.516-.602-.497-.234-.94-.54-1.33-.915-.39-.376-.702-.846-.938-1.41s-.355-1.26-.355-2.086c0-.662.132-1.305.393-1.932.26-.626.642-1.182 1.144-1.667.5-.483 1.116-.872 1.845-1.164.73-.293 1.562-.44 2.5-.44 1.06 0 2.037.168 2.932.502.895.335 1.658.803 2.287 1.404l-.82 1.592zM118.513 179.776c-.086.16-.21.242-.37.242-.123 0-.282-.088-.477-.264-.194-.175-.457-.37-.79-.583-.33-.212-.746-.41-1.244-.59s-1.112-.27-1.843-.27c-.73 0-1.374.105-1.93.314-.553.208-1.018.493-1.393.853-.374.36-.66.778-.853 1.252-.195.473-.292.97-.292 1.492 0 .683.144 1.247.434 1.693.29.446.67.825 1.145 1.138.475.313 1.014.576 1.616.79.602.213 1.22.424 1.857.633.635.208 1.254.438 1.856.69.602.25 1.14.566 1.614.945.474.38.856.848 1.145 1.402.29.555.433 1.245.433 2.07 0 .844-.144 1.638-.434 2.383-.29.744-.71 1.39-1.26 1.94s-1.223.985-2.02 1.303c-.797.318-1.707.476-2.732.476-1.328 0-2.47-.234-3.43-.704-.956-.47-1.796-1.112-2.517-1.927l.4-.626c.113-.142.246-.213.398-.213.085 0 .194.057.327.17.133.114.294.254.484.42.19.166.416.346.682.54.265.195.574.375.925.54.35.167.754.307 1.21.42.454.115.97.17 1.55.17.796 0 1.508-.12 2.134-.36.627-.243 1.156-.573 1.587-.99.432-.417.76-.913.99-1.486.227-.574.34-1.188.34-1.842 0-.712-.144-1.297-.433-1.757-.29-.46-.672-.845-1.146-1.153-.474-.31-1.012-.567-1.615-.776-.602-.207-1.22-.41-1.856-.61-.636-.2-1.255-.422-1.857-.67-.602-.245-1.14-.56-1.615-.945-.474-.384-.856-.863-1.145-1.436-.29-.575-.434-1.294-.434-2.156 0-.674.128-1.323.384-1.95.256-.625.63-1.178 1.124-1.656.493-.48 1.103-.863 1.828-1.153.726-.29 1.553-.433 2.483-.433 1.043 0 1.98.166 2.81.497.83.33 1.586.84 2.27 1.52l-.342.656zm23.43 14.795c.094 0 .175.035.24.1l.57.613c-.417.445-.872.846-1.366 1.202-.493.355-1.03.66-1.615.91-.583.25-1.223.446-1.92.583-.697.138-1.463.206-2.298.206-1.394 0-2.672-.244-3.834-.732s-2.158-1.18-2.988-2.077c-.83-.896-1.477-1.98-1.942-3.25-.465-1.27-.697-2.684-.697-4.24 0-1.526.24-2.92.718-4.18.48-1.262 1.154-2.346 2.022-3.25.868-.907 1.906-1.61 3.115-2.107 1.21-.498 2.545-.746 4.005-.746.73 0 1.4.054 2.007.163.606.11 1.172.266 1.7.47.525.203 1.02.457 1.485.76.465.304.92.655 1.366 1.053l-.44.64c-.076.114-.194.17-.355.17-.086 0-.195-.05-.328-.148-.132-.1-.3-.223-.505-.37-.204-.147-.45-.308-.74-.484-.29-.175-.633-.336-1.03-.483-.4-.147-.86-.27-1.38-.37-.523-.1-1.116-.15-1.78-.15-1.223 0-2.347.21-3.37.633-1.026.422-1.908 1.024-2.648 1.807-.74.782-1.316 1.73-1.728 2.845-.413 1.114-.62 2.363-.62 3.748 0 1.422.205 2.693.613 3.812.406 1.12.97 2.065 1.692 2.838.72.773 1.572 1.365 2.553 1.778.982.412 2.047.62 3.194.62.72 0 1.363-.05 1.927-.144.565-.094 1.084-.237 1.558-.426.474-.19.915-.422 1.323-.697.408-.275.81-.598 1.21-.968.047-.038.092-.07.135-.093.042-.024.092-.036.15-.036zm23.595 3.387h-1.465v-9.644h-12.606v9.644h-1.465V177.83h1.465v9.387h12.606v-9.388h1.465v20.127zm26.598-10.07c0 1.554-.232 2.965-.697 4.23-.466 1.267-1.12 2.348-1.964 3.244-.844.897-1.855 1.59-3.03 2.078-1.177.488-2.48.732-3.913.732-1.413 0-2.708-.244-3.884-.732-1.177-.49-2.188-1.18-3.032-2.077-.844-.895-1.5-1.976-1.97-3.242s-.704-2.677-.704-4.232c0-1.546.234-2.952.704-4.218s1.126-2.347 1.97-3.243c.844-.896 1.855-1.59 3.03-2.084 1.177-.492 2.472-.738 3.885-.738 1.432 0 2.736.244 3.912.732 1.176.49 2.187 1.183 3.03 2.084.845.9 1.5 1.984 1.964 3.25.464 1.266.696 2.672.696 4.218zm-1.508 0c0-1.405-.194-2.666-.583-3.785-.39-1.12-.937-2.067-1.643-2.845-.707-.777-1.558-1.372-2.554-1.785-.996-.412-2.1-.62-3.315-.62-1.195 0-2.288.208-3.28.62-.99.413-1.844 1.008-2.56 1.785-.717.778-1.27 1.726-1.665 2.845-.394 1.12-.59 2.38-.59 3.784 0 1.413.196 2.676.59 3.79.394 1.115.948 2.06 1.664 2.84.717.776 1.57 1.37 2.56 1.777.993.407 2.086.61 3.28.61 1.215 0 2.32-.203 3.316-.61.996-.408 1.847-1 2.554-1.778.706-.778 1.254-1.724 1.643-2.838.39-1.115.583-2.378.583-3.79zm26.87 0c0 1.554-.234 2.965-.7 4.23-.463 1.267-1.118 2.348-1.962 3.244-.844.897-1.854 1.59-3.03 2.078-1.177.488-2.48.732-3.913.732-1.413 0-2.708-.244-3.884-.732-1.177-.49-2.187-1.18-3.03-2.077-.846-.895-1.502-1.976-1.972-3.242s-.704-2.677-.704-4.232c0-1.546.235-2.952.704-4.218.47-1.266 1.126-2.347 1.97-3.243.845-.896 1.855-1.59 3.03-2.084 1.177-.492 2.472-.738 3.885-.738 1.432 0 2.736.244 3.913.732 1.176.49 2.186 1.183 3.03 2.084.844.9 1.5 1.984 1.963 3.25.464 1.266.697 2.672.697 4.218zm-1.51 0c0-1.405-.194-2.666-.583-3.785-.39-1.12-.936-2.067-1.643-2.845-.707-.777-1.558-1.372-2.554-1.785-.996-.412-2.1-.62-3.315-.62-1.195 0-2.288.208-3.28.62-.99.413-1.844 1.008-2.56 1.785-.716.778-1.27 1.726-1.665 2.845-.393 1.12-.59 2.38-.59 3.784 0 1.413.197 2.676.59 3.79.394 1.115.95 2.06 1.665 2.84.716.776 1.57 1.37 2.56 1.777.992.407 2.085.61 3.28.61 1.214 0 2.32-.203 3.315-.61.996-.408 1.847-1 2.554-1.778.707-.778 1.254-1.724 1.643-2.838.39-1.115.583-2.378.583-3.79zm10.365 8.832h9.547v1.237h-10.998V177.83h1.45v18.89z" fill="#698CA0"/></g></svg>