<svg width="50" height="50" viewBox="0 0 50 50" xmlns="http://www.w3.org/2000/svg"><g fill="none"><path d="M25.062.188l14.235 14.234h-28.47L25.063.188z" fill="#F9E02D"/><path d="M18.128 14.422h-7.3l3.65-3.65 3.65 3.65z" fill="#D0BB28"/><path d="M.244 25.006L14.478 39.24V10.773L.244 25.006z" fill="#2AA7F0"/><path d="M10.828 35.59l3.65 3.65v-7.3l-3.65 3.65z" fill="#258CCA"/><path d="M25.062 49.825L39.297 35.59h-28.47l14.235 14.235z" fill="#F0772A"/><path d="M39.114 14.24L49.88 25.006 35.648 39.24V14.423l3.467-.182z" fill="#19D474"/><path d="M35.647 35.59v3.65l-3.65-3.65h3.65z" opacity=".6" fill="#D96C27"/><path d="M35.66 17.97l.006-3.577 3.428-.14-3.433 3.717z" fill="#16B263"/></g></svg>