<svg width="193" height="193" viewBox="0 0 193 193" xmlns="http://www.w3.org/2000/svg"><g fill="none"><path d="M96.354.494L151.5 55.64H41.208L96.354.494z" fill="#F9E02D"/><path d="M55.348 41.5l14.14 14.14h-28.28l14.14-14.14z" fill="#F1C407"/><path d="M.202 96.646l55.146 55.146V41.5L.202 96.646z" fill="#2AA7F0"/><path d="M41.208 137.652l14.14 14.14v-28.28l-14.14 14.14z" fill="#066DE1"/><path d="M96.354 192.798l55.146-55.146H41.208l55.146 55.146z" fill="#F0772A"/><path d="M150.793 54.933l41.713 41.713-55.146 55.146V55.64l13.433-.707z" fill="#2AF08B"/><path d="M137.36 137.652v14.14l-14.14-14.14h14.14z" fill="#E75115"/><path d="M137.26 55.64l13.534-.708-13.535 13.435V55.64z" fill="#06E14B"/><path d="M67.98 91.613c.103 0 .19.04.266.12l.742.804c-.41.51-.916.898-1.516 1.17-.6.27-1.32.405-2.16.405-.75 0-1.426-.128-2.026-.385-.6-.257-1.11-.614-1.536-1.07-.425-.458-.75-1.004-.977-1.64-.226-.634-.34-1.327-.34-2.078 0-.762.127-1.458.38-2.09.25-.633.606-1.178 1.063-1.635.457-.457 1.004-.813 1.642-1.068.637-.254 1.34-.38 2.11-.38.75 0 1.408.12 1.97.36.563.24 1.045.558 1.446.955l-.63.875c-.037.056-.085.105-.144.147-.058.042-.138.063-.24.063-.108 0-.218-.042-.33-.126-.112-.083-.254-.174-.427-.272-.173-.098-.39-.19-.654-.273-.265-.084-.6-.126-1.006-.126-.476 0-.913.082-1.313.248-.398.165-.74.402-1.027.71-.288.308-.51.682-.673 1.123-.16.443-.24.938-.24 1.49 0 .568.08 1.075.24 1.518.162.443.38.817.655 1.12.275.303.6.535.973.697.373.16.775.24 1.204.24.257 0 .49-.013.697-.04.206-.03.397-.073.573-.134.175-.06.34-.138.496-.234.156-.095.31-.213.465-.353.047-.042.096-.076.147-.102.05-.024.107-.037.168-.037zm4.375-.568V95h-1.883V84.878h3.087c.69 0 1.28.07 1.773.213.493.144.896.343 1.212.6.315.257.545.563.692.92.148.358.22.75.22 1.18 0 .34-.05.663-.15.966-.1.303-.244.58-.433.826-.19.247-.423.464-.7.65-.278.188-.594.337-.95.45.24.134.444.328.617.58L78.376 95H76.68c-.162 0-.3-.033-.416-.098-.114-.065-.21-.16-.29-.28l-2.128-3.24c-.08-.122-.167-.21-.263-.26-.095-.05-.236-.077-.423-.077h-.805zm0-1.35h1.176c.356 0 .665-.045.928-.134.264-.088.48-.21.65-.367.172-.156.3-.34.383-.556.085-.215.127-.45.127-.707 0-.513-.17-.908-.508-1.183-.34-.275-.856-.413-1.55-.413h-1.205v3.36zm13.608-4.817v1.498h-4.487v2.807h3.535v1.45h-3.534v2.862h4.487V95H79.58V84.878h6.383zM96.49 95h-1.455c-.163 0-.297-.04-.403-.123-.105-.08-.18-.183-.227-.304l-.756-2.065h-4.194l-.756 2.065c-.037.107-.11.205-.22.294-.11.09-.244.133-.403.133h-1.463l3.976-10.122h1.925L96.49 95zm-6.55-3.822h3.226l-1.232-3.367c-.056-.148-.118-.324-.185-.528-.07-.203-.136-.423-.2-.66-.066.237-.13.46-.194.664-.063.205-.124.385-.185.54l-1.23 3.352zm13.698-6.3v1.547h-3.045V95H98.71v-8.575h-3.06v-1.547h7.988zm10.36 5.06c0 .743-.124 1.43-.37 2.063-.248.633-.596 1.18-1.044 1.642-.448.462-.987.822-1.617 1.082-.63.26-1.328.388-2.093.388-.765 0-1.464-.13-2.096-.388-.633-.26-1.174-.62-1.625-1.082-.45-.462-.8-1.01-1.046-1.64-.247-.634-.37-1.32-.37-2.063 0-.743.123-1.43.37-2.063.247-.632.596-1.18 1.046-1.64.45-.463.992-.823 1.624-1.082.633-.26 1.332-.39 2.097-.39.765 0 1.463.132 2.093.393.63.26 1.17.622 1.617 1.082.448.46.796 1.005 1.043 1.638.247.632.37 1.32.37 2.06zm-1.932 0c0-.554-.073-1.052-.22-1.493-.148-.442-.36-.816-.634-1.124-.275-.307-.61-.543-1.005-.706-.394-.163-.838-.245-1.333-.245s-.94.08-1.337.244c-.397.163-.734.4-1.012.707-.277.31-.49.683-.64 1.125-.15.44-.224.94-.224 1.494s.076 1.052.225 1.493c.15.442.363.815.64 1.12.278.306.615.54 1.012.704.397.163.842.245 1.337.245s.94-.082 1.334-.245c.394-.163.73-.398 1.004-.704.275-.305.486-.678.633-1.12.148-.44.22-.94.22-1.494zm5.362 1.107V95h-1.883V84.878h3.087c.69 0 1.282.07 1.774.213.493.144.896.343 1.212.6.315.257.545.563.693.92.148.358.22.75.22 1.18 0 .34-.05.663-.15.966-.1.303-.244.58-.433.826-.19.247-.423.464-.7.65-.278.188-.594.337-.95.45.24.134.444.328.617.58L123.448 95h-1.694c-.163 0-.302-.033-.416-.098-.115-.065-.212-.16-.29-.28l-2.13-3.24c-.078-.122-.166-.21-.262-.26-.095-.05-.236-.077-.423-.077h-.805zm0-1.35h1.176c.355 0 .664-.045.927-.134.265-.088.482-.21.653-.367.17-.156.297-.34.38-.556.085-.215.127-.45.127-.707 0-.513-.17-.908-.507-1.183-.34-.275-.856-.413-1.55-.413h-1.205v3.36zm12.65-2.976c-.052.102-.112.174-.18.216-.067.042-.148.063-.24.063-.094 0-.2-.037-.316-.11-.117-.072-.254-.152-.413-.24-.16-.09-.345-.17-.558-.243-.212-.072-.463-.108-.752-.108-.26 0-.49.03-.683.094-.193.063-.356.15-.49.262-.133.112-.232.246-.297.402-.065.157-.098.328-.098.515 0 .238.066.436.2.595.133.16.31.294.528.406.22.112.47.212.75.3.28.09.565.184.857.285.29.1.577.215.857.35.28.132.53.3.75.502.218.204.394.452.528.746.133.294.2.65.2 1.07 0 .458-.08.886-.236 1.285-.156.4-.384.747-.685 1.043-.3.297-.668.53-1.102.7-.434.17-.93.256-1.49.256-.323 0-.64-.03-.953-.094-.313-.064-.612-.153-.9-.27-.287-.117-.555-.257-.805-.42-.25-.163-.472-.345-.668-.546l.546-.903c.05-.066.113-.12.186-.165.072-.045.152-.067.24-.067.118 0 .244.048.38.144.134.095.294.2.48.318.183.117.4.223.65.32.25.094.55.142.9.142.536 0 .95-.127 1.245-.382.293-.254.44-.62.44-1.095 0-.266-.066-.483-.2-.65-.133-.17-.31-.31-.528-.424-.22-.114-.47-.21-.75-.29-.28-.08-.564-.166-.853-.26-.29-.092-.575-.204-.855-.335-.28-.13-.53-.3-.75-.51-.218-.21-.394-.473-.528-.788-.133-.316-.2-.704-.2-1.166 0-.368.074-.727.22-1.077.15-.35.363-.66.645-.93.283-.272.63-.49 1.04-.652.41-.162.88-.244 1.407-.244.596 0 1.147.093 1.65.28.505.187.934.448 1.29.784l-.463.89zM66.454 101.274c-.048.09-.118.136-.208.136-.07 0-.16-.05-.268-.148-.11-.1-.258-.208-.444-.328-.187-.12-.42-.23-.7-.332-.28-.102-.626-.152-1.036-.152-.41 0-.772.058-1.084.176-.312.117-.574.277-.784.48-.21.202-.37.437-.48.704-.11.266-.164.546-.164.84 0 .384.08.7.244.952.162.25.377.464.644.64.266.176.57.324.908.444.338.12.686.238 1.044.356.357.117.705.246 1.044.388.338.14.64.318.908.532.266.213.48.476.644.788.162.312.244.7.244 1.164 0 .474-.082.92-.244 1.34-.163.418-.4.782-.708 1.092-.31.31-.688.553-1.136.732-.448.178-.96.268-1.536.268-.747 0-1.39-.132-1.928-.396-.54-.264-1.01-.626-1.416-1.084l.224-.352c.064-.08.138-.12.224-.12.048 0 .11.032.184.096l.272.236c.106.093.234.194.384.304.15.11.322.21.52.304.197.093.424.172.68.236.256.064.546.096.872.096.448 0 .848-.068 1.2-.204.352-.136.65-.322.892-.556.242-.235.428-.514.556-.836.128-.323.192-.668.192-1.036 0-.4-.082-.73-.244-.988-.163-.26-.378-.475-.644-.648-.267-.174-.57-.32-.908-.436-.34-.118-.687-.232-1.044-.344-.358-.112-.706-.238-1.044-.376-.34-.14-.642-.316-.908-.532-.267-.216-.482-.486-.644-.808-.163-.323-.244-.727-.244-1.212 0-.38.072-.744.216-1.096.144-.352.354-.663.632-.932.277-.27.62-.486 1.028-.648.408-.163.873-.244 1.396-.244.586 0 1.113.093 1.58.28.466.186.892.472 1.276.856l-.192.368zm12.612 9.04c.053 0 .098.018.136.056l.32.344c-.235.25-.49.476-.768.676-.278.2-.58.37-.908.512-.328.14-.688.25-1.08.328-.392.077-.823.116-1.292.116-.784 0-1.503-.138-2.156-.412-.654-.275-1.214-.664-1.68-1.168-.467-.504-.83-1.114-1.092-1.828-.262-.715-.392-1.51-.392-2.384 0-.86.134-1.643.404-2.352.27-.71.648-1.32 1.136-1.828.488-.51 1.072-.904 1.752-1.184.68-.28 1.43-.42 2.252-.42.41 0 .786.03 1.128.092.34.06.66.15.956.264.296.114.574.257.836.428.26.17.517.368.768.592l-.248.36c-.043.064-.11.096-.2.096-.048 0-.11-.028-.184-.084-.075-.056-.17-.126-.284-.208-.115-.083-.254-.174-.416-.272-.163-.1-.356-.19-.58-.272-.224-.083-.483-.152-.776-.208-.294-.056-.627-.084-1-.084-.688 0-1.32.118-1.896.356-.576.237-1.072.576-1.488 1.016-.416.44-.74.973-.972 1.6-.232.626-.348 1.33-.348 2.108 0 .8.114 1.514.344 2.144.23.63.546 1.16.952 1.596.405.434.884.768 1.436 1 .552.232 1.15.348 1.796.348.405 0 .766-.027 1.084-.08.317-.054.61-.134.876-.24.266-.107.514-.238.744-.392.23-.155.456-.336.68-.544.026-.022.052-.04.076-.052.024-.014.052-.02.084-.02zm13.268 1.904h-.824v-5.424h-7.088v5.424h-.824v-11.32h.824v5.28h7.088v-5.28h.824v11.32zm14.956-5.664c0 .874-.13 1.668-.392 2.38s-.63 1.32-1.104 1.824c-.475.504-1.043.893-1.704 1.168-.662.274-1.395.412-2.2.412-.795 0-1.523-.138-2.184-.412-.662-.275-1.23-.664-1.704-1.168-.475-.504-.844-1.112-1.108-1.824-.264-.712-.396-1.506-.396-2.38 0-.87.132-1.66.396-2.372s.633-1.32 1.108-1.824c.474-.504 1.042-.895 1.704-1.172.66-.278 1.39-.416 2.184-.416.805 0 1.538.137 2.2.412.66.274 1.23.665 1.704 1.172.474.506.842 1.116 1.104 1.828.26.712.392 1.502.392 2.372zm-.848 0c0-.79-.11-1.5-.328-2.128-.22-.63-.527-1.163-.924-1.6-.398-.438-.876-.772-1.436-1.004-.56-.232-1.182-.348-1.864-.348-.672 0-1.287.116-1.844.348-.558.232-1.038.566-1.44 1.004-.403.437-.715.97-.936 1.6-.222.63-.332 1.338-.332 2.128 0 .794.11 1.505.332 2.132.22.626.533 1.158.936 1.596.402.437.882.77 1.44 1 .557.23 1.172.344 1.844.344.682 0 1.304-.115 1.864-.344.56-.23 1.038-.563 1.436-1 .397-.438.705-.97.924-1.596.218-.627.328-1.338.328-2.132zm15.108 0c0 .874-.13 1.668-.392 2.38s-.63 1.32-1.104 1.824c-.475.504-1.043.893-1.704 1.168-.662.274-1.395.412-2.2.412-.795 0-1.523-.138-2.184-.412-.662-.275-1.23-.664-1.704-1.168-.475-.504-.844-1.112-1.108-1.824-.264-.712-.396-1.506-.396-2.38 0-.87.132-1.66.396-2.372s.633-1.32 1.108-1.824c.474-.504 1.042-.895 1.704-1.172.66-.278 1.39-.416 2.184-.416.805 0 1.538.137 2.2.412.66.274 1.23.665 1.704 1.172.474.506.842 1.116 1.104 1.828.26.712.392 1.502.392 2.372zm-.848 0c0-.79-.11-1.5-.328-2.128-.22-.63-.527-1.163-.924-1.6-.398-.438-.876-.772-1.436-1.004-.56-.232-1.182-.348-1.864-.348-.672 0-1.287.116-1.844.348-.558.232-1.038.566-1.44 1.004-.403.437-.715.97-.936 1.6-.222.63-.332 1.338-.332 2.128 0 .794.11 1.505.332 2.132.22.626.533 1.158.936 1.596.402.437.882.77 1.44 1 .557.23 1.172.344 1.844.344.682 0 1.304-.115 1.864-.344.56-.23 1.038-.563 1.436-1 .397-.438.705-.97.924-1.596.218-.627.328-1.338.328-2.132zm5.828 4.968h5.368v.696h-6.184v-11.32h.816v10.624z" fill="#fff"/></g></svg>